<?xml version="1.0" encoding="utf-8"?>
<!-- Generator: Adobe Illustrator 19.2.0, SVG Export Plug-In . SVG Version: 6.00 Build 0)  -->
<svg version="1.1" id="Laag_1" xmlns="http://www.w3.org/2000/svg" xmlns:xlink="http://www.w3.org/1999/xlink" x="0px" y="0px"
	 viewBox="0 0 100.6 630" style="enable-background:new 0 0 100.6 630;" xml:space="preserve">
<style type="text/css">
	.st0{fill:#FFFFFF;}
	.st1{fill:#1D1D1B;}
</style>
<title>chap1</title>
<g>
	<g>
		
			<rect x="-265.5" y="265" transform="matrix(4.489635e-011 1 -1 4.489635e-011 364.8181 265.8243)" class="st0" width="630" height="100.6"/>
	</g>
	<g>
		<path class="st1" d="M62.4,2.1c-0.5-0.5-0.8-0.9-1-1.4c-0.2-0.4-0.2-0.8,0-0.9c0.2-0.2,0.5-0.2,1,0.1L97,15.7l1.7,1.4
			c1.1,1.2,1.3,1.9,0.5,2l-34.6,7.2c-0.3,0.1-0.7-0.1-1.2-0.4c-0.5-0.3-1-0.7-1.4-1.2c-0.4-0.5-0.6-0.9-0.7-1.3
			c-0.1-0.4,0-0.6,0.3-0.7l11-2.3c0,0,0-0.1,0-0.1V7.2l-8.8-4.1C63.3,2.9,62.8,2.5,62.4,2.1z M76.2,19.7l16.2-3.4L76.2,8.9V19.7z"/>
		<path class="st1" d="M81.2,51.5c-0.4,0.7-1.2,1.5-2.3,2.5c-1.1,0.9-2.4,1.6-4,1.9c-1.6,0.3-3.1,0.2-4.6-0.5
			c-1.5-0.6-2.8-1.5-4-2.6c-2.7-2.5-4.4-6-5-10.3c-0.4-3-0.4-6.6,0-10.6c0-0.3,0.2-0.5,0.6-0.4l34.6,3c1.4,0.4,2.3,1.1,2.8,2
			c0.2,0.4,0.3,0.8,0.2,1.2c-0.3,3-0.7,5.8-1.2,8.4c-0.5,2.5-1.3,4.5-2.3,5.8c-1.9,2.6-4.1,3.9-6.7,3.9
			C86.5,55.8,83.8,54.4,81.2,51.5z M67.3,51.2c0.2,0.2,0.8,0.5,1.6,0.9c0.8,0.3,1.9,0.4,3.2,0.1c1.3-0.2,2.6-0.9,3.9-2.1
			c1.3-1.1,2-2,2.1-2.7c0.1-1,0.1-2.3,0.1-3.8c0-1.5,0.1-4,0.2-7.3l-13.5-1.2C64.3,42,64.8,46.9,66.4,50
			C66.8,50.6,67.1,51,67.3,51.2z M82.4,36.7L82,45c-0.1,1.2-0.1,2.3-0.2,3.2c0.1,0.9,0.5,1.8,1.4,2.7c0.9,0.9,1.9,1.3,3.2,1.2
			c2.4-0.1,4.4-1.1,5.9-3.2c1.1-1.5,2-3.7,2.5-6.5c0.3-1.3,0.5-2.9,0.7-4.7L82.4,36.7z"/>
		<path class="st1" d="M90.4,87c-0.5-0.3-1-0.6-1.4-1.1c-0.4-0.5-0.7-0.9-0.9-1.4C88,84,88,83.7,88.2,83.6c2.1-1.1,3.8-2.6,5.2-4.5
			s2.2-4,2.4-6.1c0.1-1.3,0-2.5-0.3-3.5c-0.3-1-0.7-1.7-1.1-2.1c-0.4-0.4-1.2-0.7-2.2-0.9c-1.1-0.2-2.2,0-3.5,0.5
			c-1.3,0.5-2.3,1.4-3.2,2.6c-0.8,1.2-1.6,2.6-2.2,4.4c0,0.1-0.2,0.7-0.6,1.9c-0.4,1.2-0.7,2-1,2.6c-1.8,4.1-4.4,6.4-7.8,7
			c-2.3,0.4-4.6-0.2-6.8-1.7c-1.3-0.8-2.4-1.9-3.3-3.1c-2.3-3-3.2-6.4-2.5-9.9c0.4-2.4,1.4-4.6,3-6.6c1.6-2,3.4-3.5,5.7-4.6
			c0.3-0.1,0.6-0.1,1.1,0.2c0.5,0.3,0.9,0.6,1.4,1.1c0.4,0.5,0.7,0.9,0.9,1.4c0.1,0.4,0.1,0.7-0.2,0.8c-2.1,1.1-3.9,2.5-5.4,4.4
			c-1.5,1.9-2.4,3.8-2.7,5.9c-0.4,2-0.3,3.7,0.2,5c0.5,1.3,1,2.2,1.7,2.6c1.2,0.8,2.6,1,4.3,0.8c3-0.4,5.4-2.6,7.1-6.4
			c0.3-0.6,0.6-1.4,0.9-2.6c1-3,2-5.1,3-6.4c1-1.3,2.2-2.3,3.6-2.9c1.5-0.6,3.1-0.8,4.8-0.5s3.5,1.3,5.1,2.9c2.9,2.8,4.2,6.2,3.8,10
			c-0.3,2.4-1.1,4.6-2.6,6.6c-1.5,2-3.3,3.6-5.4,4.8C91.2,87.3,90.9,87.2,90.4,87z"/>
		<path class="st1" d="M96.7,88.9c0.3,0.1,0.6,0.3,1.1,0.6s0.8,0.7,1.2,1.2c0.4,0.5,0.5,0.9,0.5,1.3v21.7c0,0.5-0.3,0.6-0.9,0.4
			c-0.8-0.3-1.5-0.7-2-1.5c-0.5-0.7-0.8-1.3-0.8-1.6v-7.4l-31.5-2.7c-0.4,0-0.8-0.2-1.3-0.6c-0.5-0.4-0.9-0.8-1.2-1.2
			c-0.3-0.4-0.5-0.8-0.5-1c-0.2-0.6,0-0.8,0.5-0.8l34,2.9V89.3C95.8,88.9,96.1,88.7,96.7,88.9z"/>
		<path class="st1" d="M75.5,127.9c-0.6-1.9-0.9-3.5-0.9-4.9s0-2.5,0.1-3.2l-10.4-0.9c-0.4,0-0.8-0.2-1.3-0.6
			c-0.5-0.4-0.9-0.8-1.2-1.2c-0.3-0.4-0.5-0.8-0.5-1c-0.2-0.6,0-0.8,0.5-0.8l34.6,2.9c0.4,0,0.8,0.2,1.3,0.6
			c1.1,0.8,1.6,1.6,1.7,2.4c0.8,1.9,1.2,3.8,1.2,5.8c0,2-0.4,3.9-1.2,5.6c-1.1,2.3-2.5,4-4.4,5.2c-1.9,1.1-3.8,1.7-5.8,1.7
			c-3.8,0-7.2-1.8-10.3-5.3c-0.6-0.7-1.1-1.4-1.6-2.2l-12.7,5.4c-0.3,0.1-0.6,0-1.1-0.3c-0.5-0.3-1-0.6-1.4-1.1
			c-0.4-0.5-0.7-0.9-0.8-1.4c-0.1-0.4-0.1-0.7,0.2-0.8L75.5,127.9z M79.4,130.9c1.3,3.4,3.7,5,7.2,5c1.8,0,3.5-0.5,5.2-1.6
			c1.7-1,3-2.5,3.9-4.4c0.8-1.9,1.3-3.8,1.3-5.6c0-0.9-0.1-1.8-0.3-2.7l-17.9-1.5c-0.8,3.3-0.7,6.5,0.2,9.6
			C79.3,130.2,79.4,130.6,79.4,130.9z"/>
		<path class="st1" d="M62.4,146c-0.5-0.5-0.8-0.9-1-1.4c-0.2-0.4-0.2-0.8,0-0.9c0.2-0.2,0.5-0.2,1,0.1L97,159.6l1.7,1.4
			c1.1,1.2,1.3,1.9,0.5,2l-34.6,7.2c-0.3,0.1-0.7-0.1-1.2-0.4c-0.5-0.3-1-0.7-1.4-1.2c-0.4-0.5-0.6-0.9-0.7-1.3
			c-0.1-0.4,0-0.6,0.3-0.7l11-2.3c0,0,0-0.1,0-0.1v-13.1l-8.8-4.1C63.3,146.8,62.8,146.4,62.4,146z M76.2,163.6l16.2-3.4l-16.2-7.4
			V163.6z"/>
		<path class="st1" d="M87.8,202.7c-0.5-0.4-0.9-0.8-1.2-1.2c-0.3-0.4-0.4-0.8-0.5-1c-0.2-0.6,0-0.8,0.5-0.8c1.3,0.1,2.7-0.1,4-0.6
			c1.3-0.6,2.4-1.4,3.2-2.5c0.9-1.1,1.4-2.4,1.7-3.7c0.3-1.4,0.2-2.7-0.1-4c-1.1-4-5-6.8-11.8-8.4c-5.1-1.2-9.3-0.9-12.7,1
			c-1.9,1-3.4,2.4-4.5,4.3c-1.1,1.8-1.6,3.8-1.5,5.8c0.1,2.1,0.5,3.7,1.4,5c0.9,1.3,2.1,2.2,3.6,2.7c0.4,0.2,0.9,0.5,1.4,1
			c0.5,0.5,0.8,0.9,1,1.4c0.2,0.5,0.2,0.8,0,1c-0.2,0.2-0.5,0.2-0.9,0.1c-1.3-0.5-2.7-1.3-4-2.4c-1.3-1-2.5-2.2-3.4-3.6
			c-1.7-2.4-2.6-4.9-2.7-7.5c-0.1-2.5,0.5-4.8,1.6-6.8c1.2-2,2.7-3.5,4.8-4.6c3.7-2,8.3-2.3,13.9-1c6.4,1.5,11.2,4.3,14.6,8.5
			c2.7,3.4,3.7,6.8,3.1,10.2c-0.3,1.6-0.9,3-1.9,4.2c-1,1.2-2.2,2.1-3.6,2.8c-1.4,0.6-3,0.9-4.6,0.7
			C88.8,203.3,88.3,203.1,87.8,202.7z"/>
		<path class="st1" d="M96.7,206.4c0.3,0.1,0.6,0.3,1.1,0.6s0.8,0.7,1.2,1.2c0.4,0.5,0.5,0.9,0.5,1.3v21.7c0,0.5-0.3,0.6-0.9,0.4
			c-0.8-0.3-1.5-0.7-2-1.5c-0.5-0.7-0.8-1.3-0.8-1.6v-7.4l-31.5-2.7c-0.4,0-0.8-0.2-1.3-0.6c-0.5-0.4-0.9-0.8-1.2-1.2
			c-0.3-0.4-0.5-0.8-0.5-1c-0.2-0.6,0-0.8,0.5-0.8l34,2.9v-10.8C95.8,206.4,96.1,206.2,96.7,206.4z"/>
	</g>
</g>
</svg>
