<?xml version="1.0" encoding="utf-8"?>
<!-- Generator: Adobe Illustrator 19.2.0, SVG Export Plug-In . SVG Version: 6.00 Build 0)  -->
<svg version="1.1" id="Laag_1" xmlns="http://www.w3.org/2000/svg" xmlns:xlink="http://www.w3.org/1999/xlink" x="0px" y="0px"
	 viewBox="0 0 100.6 630" style="enable-background:new 0 0 100.6 630;" xml:space="preserve">
<style type="text/css">
	.st0{fill:#FFFFFF;}
	.st1{fill:#1D1D1B;}
</style>
<title>chap1</title>
<g>
	<g>
		
			<rect x="-264.8" y="265.2" transform="matrix(4.490079e-011 1 -1 4.490079e-011 365.6395 265.3117)" class="st0" width="630" height="100.6"/>
	</g>
	<g>
		<path class="st1" d="M87.8,26.7c-0.5-0.4-0.9-0.8-1.2-1.2c-0.3-0.4-0.4-0.8-0.5-1c-0.2-0.6,0-0.8,0.5-0.8c1.3,0.1,2.7-0.1,4-0.6
			c1.3-0.6,2.4-1.4,3.2-2.5s1.4-2.4,1.7-3.7c0.3-1.4,0.2-2.7-0.1-4c-1.1-4-5-6.8-11.8-8.4c-5.1-1.2-9.3-0.9-12.7,1
			c-1.9,1-3.4,2.4-4.5,4.3c-1.1,1.8-1.6,3.8-1.5,5.8c0.1,2.1,0.5,3.7,1.4,5c0.9,1.3,2.1,2.2,3.6,2.7c0.4,0.2,0.9,0.5,1.4,1
			c0.5,0.5,0.8,0.9,1,1.4c0.2,0.5,0.2,0.8,0,1c-0.2,0.2-0.5,0.2-0.9,0.1c-1.3-0.5-2.7-1.3-4-2.4c-1.3-1-2.5-2.2-3.4-3.6
			c-1.7-2.4-2.6-4.9-2.7-7.5c-0.1-2.5,0.5-4.8,1.6-6.8c1.2-2,2.7-3.5,4.8-4.6c3.7-2,8.3-2.3,13.9-1c6.4,1.5,11.2,4.3,14.6,8.5
			c2.7,3.4,3.7,6.8,3.1,10.2c-0.3,1.6-0.9,3-1.9,4.2c-1,1.2-2.2,2.1-3.6,2.8c-1.4,0.6-3,0.9-4.6,0.7C88.8,27.3,88.4,27.1,87.8,26.7z
			"/>
		<path class="st1" d="M97.8,34.9c0.5,0.4,0.9,0.8,1.2,1.2c0.3,0.4,0.5,0.8,0.5,1c0.2,0.6,0,0.8-0.5,0.8l-16.6-1.4v15.3L96.4,53
			c0.4,0,0.8,0.2,1.3,0.6c0.5,0.4,0.9,0.8,1.2,1.2c0.3,0.4,0.5,0.8,0.5,1c0.2,0.6,0,0.8-0.5,0.8l-34.6-2.9c-0.4,0-0.8-0.2-1.3-0.6
			c-0.5-0.4-0.9-0.8-1.2-1.2c-0.3-0.4-0.5-0.8-0.5-1c-0.2-0.6,0-0.8,0.5-0.8l16.8,1.4V36.2L64.4,35c-0.4,0-0.8-0.2-1.3-0.6
			c-0.5-0.4-0.9-0.8-1.2-1.2c-0.3-0.4-0.5-0.8-0.5-1c-0.2-0.6,0-0.8,0.5-0.8l34.6,2.9C96.8,34.3,97.3,34.5,97.8,34.9z"/>
		<path class="st1" d="M62.4,61.3c-0.5-0.5-0.8-0.9-1-1.4c-0.2-0.4-0.2-0.8,0-0.9c0.2-0.2,0.5-0.2,1,0.1L97,74.9l1.7,1.4
			c1.1,1.2,1.3,1.9,0.5,2l-34.6,7.2c-0.3,0.1-0.7-0.1-1.2-0.4c-0.5-0.3-1-0.7-1.4-1.2s-0.6-0.9-0.7-1.3c-0.1-0.4,0-0.6,0.3-0.7
			l11-2.3c0,0,0-0.1,0-0.1V66.4l-8.8-4.1C63.3,62.1,62.8,61.7,62.4,61.3z M76.3,78.8l16.2-3.4L76.3,68V78.8z"/>
		<path class="st1" d="M96.4,93.3c0.4,0,0.9,0.3,1.6,0.9c0.9,0.7,1.4,1.4,1.4,2.2c1.4,3.7,1.4,7.3,0,10.8c-1,2.4-2.5,4.4-4.6,5.8
			c-2.1,1.4-4.5,2-7.1,1.6c-1.5-0.2-3-0.7-4.5-1.6c-1.6-0.9-3-2.1-4.2-3.6c-2-2.4-3.3-5.2-4-8.4c-0.4-2-0.5-4-0.2-6.1l-10.3-0.9
			c-0.7,0-1.4-0.4-2.3-1.4c-0.3-0.4-0.6-0.7-0.7-1.2c-0.2-0.4-0.2-0.7,0-0.9c0.1-0.1,0.3-0.2,0.6-0.2L96.4,93.3z M96.6,96.8
			l-17.8-1.5c-0.6,2.7-0.7,5.3-0.3,7.8c0.5,2.4,1.2,4.3,2.3,5.6c1.1,1.3,2.7,2.1,4.7,2.4c2,0.3,4-0.2,6-1.5s3.3-2.9,4.1-4.9
			c0.8-2,1.2-3.6,1.2-4.8S96.8,97.6,96.6,96.8z"/>
		<path class="st1" d="M96.8,116.7c0.3,0.1,0.6,0.3,1.1,0.6c0.4,0.3,0.8,0.7,1.2,1.2c0.4,0.5,0.5,0.9,0.5,1.3v21.7
			c0,0.5-0.3,0.6-0.9,0.4c-0.8-0.3-1.5-0.7-2-1.5c-0.5-0.7-0.8-1.3-0.8-1.6v-7.4l-31.5-2.7c-0.4,0-0.8-0.2-1.3-0.6
			c-0.5-0.4-0.9-0.8-1.2-1.2c-0.3-0.4-0.5-0.8-0.5-1c-0.2-0.6,0-0.8,0.5-0.8l34,2.9v-10.8C95.9,116.6,96.2,116.5,96.8,116.7z"/>
		<path class="st1" d="M99.5,168.2c0,0.3-0.2,0.5-0.5,0.5c-0.4,0-0.8-0.2-1.3-0.6c-0.5-0.4-1-0.8-1.3-1.3c-0.4-0.5-0.6-0.9-0.6-1.3
			v-16.2l-13.4-1.2c0,5.4,0,10.9,0,16.4c0,0.5-0.3,0.6-0.9,0.4c-0.8-0.3-1.5-0.7-2-1.5c-0.5-0.7-0.8-1.3-0.8-1.6c0-4.7,0-9.3,0-14
			l-13.8-1.2c0,6.1,0,12.3,0,18.5c0,0.5-0.3,0.6-0.9,0.4c-0.8-0.3-1.5-0.7-2-1.5c-0.5-0.7-0.8-1.3-0.8-1.6v-18.9
			c0-0.2,0-0.4,0.1-0.5c0.1-0.1,0.3-0.2,0.6-0.1l34.5,2.9c0.4,0,0.8,0.2,1.3,0.6c0.9,0.7,1.5,1.4,1.7,2.2c0,0.2,0,0.3,0,0.3
			c0,0.1,0,0.1,0,0.2V168.2z"/>
		<path class="st1" d="M75.6,183.3c-0.6-1.9-0.9-3.5-0.9-4.9s0-2.5,0.1-3.2l-10.4-0.9c-0.4,0-0.8-0.2-1.3-0.6
			c-0.5-0.4-0.9-0.8-1.2-1.2c-0.3-0.4-0.5-0.8-0.5-1c-0.2-0.6,0-0.8,0.5-0.8l34.6,2.9c0.4,0,0.8,0.2,1.3,0.6
			c1.1,0.8,1.6,1.6,1.7,2.4c0.8,1.9,1.2,3.8,1.2,5.8c0,2-0.4,3.9-1.2,5.6c-1.1,2.3-2.5,4-4.4,5.2c-1.9,1.1-3.8,1.7-5.8,1.7
			c-3.8,0-7.2-1.8-10.3-5.3c-0.6-0.7-1.1-1.4-1.6-2.2l-12.7,5.4c-0.3,0.1-0.6,0-1.1-0.3c-0.5-0.3-1-0.6-1.4-1.1
			c-0.4-0.5-0.7-0.9-0.8-1.4c-0.1-0.4-0.1-0.7,0.2-0.8L75.6,183.3z M79.4,186.3c1.3,3.4,3.7,5,7.2,5c1.8,0,3.5-0.5,5.2-1.6
			c1.7-1,3-2.5,3.9-4.4c0.8-1.9,1.3-3.8,1.3-5.6c0-0.9-0.1-1.8-0.3-2.7l-17.9-1.5c-0.8,3.3-0.7,6.5,0.2,9.6
			C79.3,185.6,79.5,185.9,79.4,186.3z"/>
		<path class="st1" d="M90.9,214.3c-0.5-0.5-0.8-0.9-1-1.4c-0.2-0.4-0.2-0.8,0-0.9c0.2-0.2,0.6-0.1,1.3,0.2c0.7,0.3,1.4,0.8,2.3,1.4
			c4,2.9,6,6.9,6,12c0,6.7-3.3,9.1-9.9,7.2c-3.4-0.9-6.1-2.7-8.1-5.2c-1.4,4.1-4.4,5.7-9.2,4.7c-2.1-0.4-4-1.2-5.6-2.4
			c-3.6-2.6-5.4-6.1-5.4-10.7c0-6,2.6-9.1,7.7-9.5c0.3,0,0.7,0.1,1.2,0.5s0.9,0.7,1.2,1.1c0.3,0.4,0.5,0.7,0.6,1
			c0.2,0.6,0.1,1-0.3,1c-4.5,0.3-6.8,3.2-6.9,8.5c0,1.2,0.1,2.1,0.3,3c0.4,1.2,0.9,2.1,1.6,2.6c0.7,0.5,1.8,0.9,3.2,1.2
			c2.9,0.6,5,0.1,6.5-1.6c1.5-1.7,2.2-4.6,2.1-8.7c0-0.1,0-0.2,0-0.2c0,0,0-0.1,0-0.1c0-0.4,0.4-0.6,1-0.3c0.8,0.3,1.5,0.8,2,1.5
			c0.5,0.7,0.7,1.3,0.7,1.6c-0.1,2,0,3.6,0.5,4.8c0.5,1.2,1,2,1.7,2.5c0.7,0.5,1.7,0.9,3,1.3c2.7,0.7,4.8,0.6,6.1-0.4
			c1.4-1,2.1-3,2.1-6c0-2-0.2-3.5-0.7-4.5c-0.5-1.1-1-1.8-1.4-2.1s-0.9-0.6-1.4-0.8C91.8,215.2,91.4,214.8,90.9,214.3z"/>
		<path class="st1" d="M63,249.6c-0.5-0.4-0.9-0.8-1.2-1.2c-0.3-0.4-0.4-0.8-0.5-1c-0.2-0.6,0-0.8,0.5-0.8l34.6,3.4
			c1.5,1.2,2.4,2.1,2.7,2.6c0.3,0.5,0.3,0.9,0.1,1l-28.8,14.2l26,2.3c0.4,0,0.8,0.2,1.3,0.6c0.5,0.4,0.9,0.8,1.2,1.2
			c0.3,0.4,0.4,0.8,0.5,1c0.2,0.6,0,0.8-0.5,0.8l-34.6-3c-0.4,0-0.8-0.4-1.3-1c-0.5-0.6-0.8-1.2-1.1-1.8l-0.4-0.9l28.9-14.3
			l-26.1-2.5C64,250.2,63.5,250,63,249.6z"/>
		<path class="st1" d="M99.5,301c0,0.3-0.2,0.5-0.5,0.5c-0.4,0-0.8-0.2-1.3-0.6c-0.5-0.4-1-0.8-1.3-1.3c-0.4-0.5-0.6-0.9-0.6-1.3
			v-16.2L82.4,281c0,5.4,0,10.9,0,16.4c0,0.5-0.3,0.6-0.9,0.4c-0.8-0.3-1.5-0.7-2-1.5c-0.5-0.7-0.8-1.3-0.8-1.6c0-4.7,0-9.3,0-14
			l-13.8-1.2c0,6.1,0,12.3,0,18.5c0,0.5-0.3,0.6-0.9,0.4c-0.8-0.3-1.5-0.7-2-1.5c-0.5-0.7-0.8-1.3-0.8-1.6v-18.9
			c0-0.2,0-0.4,0.1-0.5c0.1-0.1,0.3-0.2,0.6-0.1l34.5,2.9c0.4,0,0.8,0.2,1.3,0.6c0.9,0.7,1.5,1.4,1.7,2.2c0,0.2,0,0.3,0,0.3
			c0,0.1,0,0.1,0,0.2V301z"/>
		<path class="st1" d="M98.2,343.3c0.5,0.5,0.9,0.9,1.1,1.4c0.2,0.5,0.3,0.8,0.1,1c-0.1,0.2-0.4,0.3-0.9,0.1L64,333.3l-1.7-1.6
			c-1.1-1.2-1.3-1.8-0.7-2l24.8-5.6L63.9,315l-1.7-1.5c-1.1-1.2-1.3-1.8-0.5-2l34.6-6.7c0.3-0.1,0.7,0.1,1.2,0.4
			c0.5,0.3,1,0.7,1.3,1.2c0.4,0.5,0.6,0.9,0.7,1.3c0.1,0.4,0,0.6-0.3,0.7l-30.2,5.9l22.3,9.1c0.8,0.3,1.3,0.8,1.7,1.3
			c0.4,0.6,0.6,1.1,0.5,1.5v0.7l-24.3,5.5l27.6,10.1C97.3,342.6,97.7,342.9,98.2,343.3z"/>
		<path class="st1" d="M97.8,381.2c0.5,0.4,0.9,0.8,1.2,1.2c0.3,0.4,0.4,0.8,0.5,1c0.2,0.6,0,0.8-0.5,0.8l-27.2-2.4
			c-0.1,0-0.2,0-0.3,0c-1.6-0.5-3.1-1.3-4.5-2.3c-2.3-1.7-3.9-3.7-4.7-5.9c-0.8-2.2-1.2-4.7-1-7.4c0.4-6.6,3.8-9.4,10.2-8.6l24.9,2
			c0.4,0,0.8,0.2,1.3,0.6c0.5,0.4,0.9,0.8,1.2,1.2c0.3,0.4,0.5,0.7,0.5,1c0.2,0.6,0,0.8-0.5,0.8l-25-2c-5.7-0.7-8.7,1.8-9,7.7
			c-0.1,2.3,0.1,4.1,0.6,5.5c0.5,1.3,1,2.2,1.6,2.7c0.6,0.4,1.3,0.8,2.3,1.1l27,2.4C96.8,380.6,97.3,380.9,97.8,381.2z"/>
		<path class="st1" d="M90.4,413.3c-0.5-0.3-1-0.6-1.4-1.1c-0.4-0.5-0.7-0.9-0.9-1.4c-0.1-0.4-0.1-0.7,0.1-0.9
			c2.1-1.1,3.8-2.6,5.2-4.5c1.4-1.9,2.2-4,2.4-6.1c0.1-1.3,0-2.5-0.3-3.5c-0.3-1-0.7-1.7-1.1-2.1c-0.4-0.4-1.2-0.7-2.2-0.9
			c-1.1-0.2-2.2,0-3.5,0.5c-1.3,0.5-2.3,1.4-3.2,2.6c-0.8,1.2-1.6,2.6-2.2,4.4c0,0.1-0.2,0.7-0.6,1.9c-0.4,1.2-0.7,2-1,2.6
			c-1.8,4.1-4.4,6.4-7.8,7c-2.3,0.4-4.6-0.2-6.8-1.7c-1.3-0.8-2.4-1.9-3.3-3.1c-2.3-3-3.2-6.4-2.5-9.9c0.4-2.4,1.4-4.6,3-6.6
			c1.6-2,3.4-3.5,5.7-4.6c0.3-0.1,0.6-0.1,1.1,0.2c0.5,0.3,0.9,0.6,1.4,1.1c0.4,0.5,0.7,0.9,0.9,1.4c0.1,0.4,0.1,0.7-0.2,0.8
			c-2.1,1.1-3.9,2.5-5.4,4.4c-1.5,1.9-2.4,3.8-2.7,5.9c-0.4,2-0.3,3.7,0.2,5c0.5,1.3,1,2.2,1.7,2.6c1.2,0.8,2.6,1,4.3,0.8
			c3-0.4,5.4-2.6,7.1-6.4c0.3-0.6,0.6-1.4,0.9-2.6c1-3,2-5.1,3-6.4c1-1.3,2.2-2.3,3.6-2.9c1.5-0.6,3.1-0.8,4.8-0.5
			c1.8,0.3,3.5,1.3,5.1,2.9c2.9,2.8,4.2,6.2,3.8,10c-0.3,2.4-1.1,4.6-2.6,6.6c-1.5,2-3.3,3.6-5.4,4.8
			C91.3,413.6,90.9,413.6,90.4,413.3z"/>
		<path class="st1" d="M99.5,441.5c0,0.3-0.2,0.5-0.5,0.5c-0.4,0-0.8-0.2-1.3-0.6c-0.5-0.4-1-0.8-1.3-1.3c-0.4-0.5-0.6-0.9-0.6-1.3
			v-16.2l-13.4-1.2c0,5.4,0,10.9,0,16.4c0,0.5-0.3,0.6-0.9,0.4c-0.8-0.3-1.5-0.7-2-1.5c-0.5-0.7-0.8-1.3-0.8-1.6c0-4.7,0-9.3,0-14
			L64.9,420c0,6.1,0,12.3,0,18.5c0,0.5-0.3,0.6-0.9,0.4c-0.8-0.3-1.5-0.7-2-1.5c-0.5-0.7-0.8-1.3-0.8-1.6V417c0-0.2,0-0.4,0.1-0.5
			s0.3-0.2,0.6-0.1l34.5,2.9c0.4,0,0.8,0.2,1.3,0.6c0.9,0.7,1.5,1.4,1.7,2.2c0,0.2,0,0.3,0,0.3c0,0.1,0,0.1,0,0.2V441.5z"/>
		<path class="st1" d="M90.4,470.9c-0.5-0.3-1-0.6-1.4-1.1c-0.4-0.5-0.7-0.9-0.9-1.4c-0.1-0.4-0.1-0.7,0.1-0.9
			c2.1-1.1,3.8-2.6,5.2-4.5c1.4-1.9,2.2-4,2.4-6.1c0.1-1.3,0-2.5-0.3-3.5c-0.3-1-0.7-1.7-1.1-2.1c-0.4-0.4-1.2-0.7-2.2-0.9
			c-1.1-0.2-2.2,0-3.5,0.5c-1.3,0.5-2.3,1.4-3.2,2.6c-0.8,1.2-1.6,2.6-2.2,4.4c0,0.1-0.2,0.7-0.6,1.9c-0.4,1.2-0.7,2-1,2.6
			c-1.8,4.1-4.4,6.4-7.8,7c-2.3,0.4-4.6-0.2-6.8-1.7c-1.3-0.8-2.4-1.9-3.3-3.1c-2.3-3-3.2-6.4-2.5-9.9c0.4-2.4,1.4-4.6,3-6.6
			c1.6-2,3.4-3.5,5.7-4.6c0.3-0.1,0.6-0.1,1.1,0.2c0.5,0.3,0.9,0.6,1.4,1.1c0.4,0.5,0.7,0.9,0.9,1.4c0.1,0.4,0.1,0.7-0.2,0.8
			c-2.1,1.1-3.9,2.5-5.4,4.4c-1.5,1.9-2.4,3.8-2.7,5.9c-0.4,2-0.3,3.7,0.2,5c0.5,1.3,1,2.2,1.7,2.6c1.2,0.8,2.6,1,4.3,0.8
			c3-0.4,5.4-2.6,7.1-6.4c0.3-0.6,0.6-1.4,0.9-2.6c1-3,2-5.1,3-6.4s2.2-2.3,3.6-2.9c1.5-0.6,3.1-0.8,4.8-0.5
			c1.8,0.3,3.5,1.3,5.1,2.9c2.9,2.8,4.2,6.2,3.8,10c-0.3,2.4-1.1,4.6-2.6,6.6c-1.5,2-3.3,3.6-5.4,4.8
			C91.3,471.2,90.9,471.2,90.4,470.9z"/>
		<path class="st1" d="M29.9,4.1c-0.5-0.5-0.8-0.9-1-1.4c-0.2-0.4-0.2-0.8,0-0.9c0.2-0.2,0.6-0.1,1.3,0.2c0.7,0.3,1.4,0.8,2.3,1.4
			c4,2.9,6,6.9,6,12c0,6.7-3.3,9.1-9.9,7.2c-3.4-0.9-6.1-2.7-8.1-5.2c-1.4,4.1-4.4,5.7-9.2,4.7c-2.1-0.4-4-1.2-5.6-2.4
			C2.1,17,0.3,13.5,0.3,9c0-6,2.6-9.1,7.7-9.5c0.3,0,0.7,0.1,1.2,0.5s0.9,0.7,1.2,1.1c0.3,0.4,0.5,0.7,0.6,1c0.2,0.6,0.1,1-0.3,1
			C6.3,3.5,4,6.3,3.9,11.6c0,1.2,0.1,2.1,0.3,3c0.4,1.2,0.9,2.1,1.6,2.6c0.7,0.5,1.8,0.9,3.2,1.2c2.9,0.6,5,0.1,6.5-1.6
			C17,15,17.7,12.1,17.7,8c0-0.1,0-0.2,0-0.2c0,0,0-0.1,0-0.1c0-0.4,0.4-0.6,1-0.3c0.8,0.3,1.5,0.8,2,1.5c0.5,0.7,0.7,1.3,0.7,1.6
			c-0.1,2,0,3.6,0.5,4.8c0.5,1.2,1,2,1.7,2.5c0.7,0.5,1.7,0.9,3,1.3c2.7,0.7,4.8,0.6,6.1-0.4c1.4-1,2.1-3,2.1-6c0-2-0.2-3.5-0.7-4.5
			c-0.5-1.1-1-1.8-1.4-2.1s-0.9-0.6-1.4-0.8C30.8,4.9,30.4,4.6,29.9,4.1z"/>
		<path class="st1" d="M6.5,27.2c1.4,1.2,1.4,2.4-0.1,3.5c-1.2,0.9-2.5,0.8-3.6-0.2c-1.4-1.2-1.4-2.3,0-3.2
			C4.2,26.3,5.4,26.3,6.5,27.2z"/>
		<path class="st1" d="M2.8,35.7l15.4,15.8c6.5,5.6,11,7.4,13.6,5.5c1.7-1.2,2.7-3.8,3-7.7c0.2-2.4-0.4-4.1-1.8-5.1
			c-1.4-1-3.3-1.9-5.8-2.6c-0.4-0.1-0.9-0.4-1.4-0.8c-0.5-0.4-0.9-0.9-1.2-1.4s-0.3-0.9-0.2-1.1c0.1-0.3,0.4-0.3,0.8-0.2
			c3.2,0.9,5.8,2.2,7.8,3.7s3.5,3.2,4.3,5c0.8,1.8,1.2,3.6,1,5.5c-0.7,8.4-4.6,11-11.7,7.6c-2.8-1.3-5.9-3.5-9.5-6.6
			c-0.1-0.1-0.2-0.2-0.3-0.3L4,39.6c0,3,0,9.3,0,19c0,0.5-0.3,0.6-0.9,0.4c-0.8-0.3-1.5-0.7-2-1.5c-0.5-0.7-0.8-1.3-0.8-1.6
			c0-13.1,0-20.1,0-20.8c0,0,0.6,0.1,1.9,0.5L2.8,35.7z"/>
		<path class="st1" d="M2.1,104.2c-0.5-0.4-0.9-0.8-1.2-1.2c-0.3-0.4-0.5-0.8-0.5-1c-0.2-0.6,0-0.8,0.5-0.8l29.6,2.5L9.6,91.9
			c-1-0.7-1.7-1.3-2-1.8c-0.4-0.5-0.5-0.8-0.5-1.1c0-0.2,0.2-0.4,0.6-0.5l20.9-8.4L3.3,77.5c-0.4,0-0.8-0.2-1.3-0.6
			c-0.5-0.4-0.9-0.8-1.2-1.2c-0.3-0.4-0.4-0.8-0.5-1c-0.1-0.6,0.1-0.8,0.6-0.8l34.6,3.6c0.4,0,0.8,0.4,1.2,1s0.8,1.2,1.1,1.8
			l0.4,0.9L13,91.2l23.3,13.2c1.3,0.8,1.9,1.6,1.9,2.6c0,0.2-0.1,0.5-0.2,0.7l-34.6-3C3,104.8,2.5,104.6,2.1,104.2z"/>
		<path class="st1" d="M38.5,135c0,0.3-0.2,0.5-0.5,0.5c-0.4,0-0.8-0.2-1.3-0.6c-0.5-0.4-1-0.8-1.3-1.3c-0.4-0.5-0.6-0.9-0.6-1.3
			v-16.2L21.4,115c0,5.4,0,10.9,0,16.4c0,0.5-0.3,0.6-0.9,0.4c-0.8-0.3-1.5-0.7-2-1.5c-0.5-0.7-0.8-1.3-0.8-1.6c0-4.7,0-9.3,0-14
			l-13.8-1.2c0,6.1,0,12.3,0,18.5c0,0.5-0.3,0.6-0.9,0.4c-0.8-0.3-1.5-0.7-2-1.5c-0.5-0.7-0.8-1.3-0.8-1.6v-18.9
			c0-0.2,0-0.4,0.1-0.5c0.1-0.1,0.3-0.2,0.6-0.1l34.5,2.9c0.4,0,0.8,0.2,1.3,0.6c0.9,0.7,1.5,1.4,1.7,2.2c0,0.2,0,0.3,0,0.3
			c0,0.1,0,0.1,0,0.2V135z"/>
		<path class="st1" d="M14.6,150.1c-0.6-1.9-0.9-3.5-0.9-4.9s0-2.5,0.1-3.2l-10.4-0.9c-0.4,0-0.8-0.2-1.3-0.6
			c-0.5-0.4-0.9-0.8-1.2-1.2c-0.3-0.4-0.5-0.8-0.5-1c-0.2-0.6,0-0.8,0.5-0.8l34.6,2.9c0.4,0,0.8,0.2,1.3,0.6
			c1.1,0.8,1.6,1.6,1.7,2.4c0.8,1.9,1.2,3.8,1.2,5.8c0,2-0.4,3.9-1.2,5.6c-1.1,2.3-2.5,4-4.4,5.2c-1.9,1.1-3.8,1.7-5.8,1.7
			c-3.8,0-7.2-1.8-10.3-5.3c-0.6-0.7-1.1-1.4-1.6-2.2l-12.7,5.4c-0.3,0.1-0.6,0-1.1-0.3c-0.5-0.3-1-0.6-1.4-1.1
			c-0.4-0.5-0.7-0.9-0.8-1.4c-0.1-0.4-0.1-0.7,0.2-0.8L14.6,150.1z M18.4,153.1c1.3,3.4,3.7,5,7.2,5c1.8,0,3.5-0.5,5.2-1.6
			c1.7-1,3-2.5,3.9-4.4c0.8-1.9,1.3-3.8,1.3-5.6c0-0.9-0.1-1.8-0.3-2.7l-17.9-1.5c-0.8,3.3-0.7,6.5,0.2,9.6
			C18.3,152.3,18.5,152.7,18.4,153.1z"/>
		<path class="st1" d="M5,190c-3.1-3.1-4.6-6.6-4.7-10.4c0-2.2,0.6-4.3,1.7-6.2c1.1-1.9,2.7-3.4,4.7-4.5c2.2-1.2,4.8-1.8,7.7-1.8
			c1.9,0,3.9,0.3,6.1,0.8c6.2,1.4,11,4.1,14.3,8c2.4,2.8,3.6,5.8,3.6,8.8c0,2.1-0.5,4-1.6,5.5c-2,2.8-4.6,4.1-7.7,4.1
			c-0.3,0-0.6,0-1,0c-0.4,0-0.8-0.2-1.3-0.6c-0.5-0.4-0.9-0.8-1.2-1.2c-0.3-0.4-0.4-0.8-0.5-1c-0.1-0.3,0-0.5,0-0.6
			c0.1-0.1,0.3-0.2,0.5-0.2c0.2,0,0.5,0,0.7,0c1.2,0,2.4-0.3,3.6-0.8c1.2-0.6,2.3-1.4,3.1-2.7c1.1-1.5,1.6-3.2,1.6-5.1
			c0-2.2-0.6-4-1.9-5.5c-0.6-0.7-1.4-1.4-2.5-2.1c-2.1-1.3-4.4-2.3-6.9-2.9c-2.5-0.6-4.7-0.9-6.4-0.9c-2.7,0-5,0.5-7,1.6
			c-4.1,2.1-6.1,5.4-6.1,9.9c0,2.2,0.6,4,1.7,5.6c0.8,1.1,1.9,1.9,3.3,2.4c0.1,0,0.2,0.1,0.3,0.2l7.2,0.7l0.1-11.4
			c0-0.5,0.3-0.6,0.9-0.4c0.8,0.3,1.5,0.7,2,1.5c0.5,0.7,0.8,1.3,0.8,1.6l-0.1,11.9c0,0.4-0.2,0.5-0.6,0.5l-16.2-1.5
			c-0.4,0-0.8-0.2-1.3-0.6c-0.5-0.4-0.9-0.8-1.2-1.2c-0.3-0.4-0.4-0.8-0.5-1c-0.2-0.6,0-0.8,0.5-0.8L5,190z"/>
		<path class="st1" d="M38.5,221.9c0,0.3-0.2,0.5-0.5,0.5c-0.4,0-0.8-0.2-1.3-0.6c-0.5-0.4-1-0.8-1.3-1.3c-0.4-0.5-0.6-0.9-0.6-1.3
			V203l-13.4-1.2c0,5.4,0,10.9,0,16.4c0,0.5-0.3,0.6-0.9,0.4c-0.8-0.3-1.5-0.7-2-1.5c-0.5-0.7-0.8-1.3-0.8-1.6c0-4.7,0-9.3,0-14
			l-13.8-1.2c0,6.1,0,12.3,0,18.5c0,0.5-0.3,0.6-0.9,0.4c-0.8-0.3-1.5-0.7-2-1.5c-0.5-0.7-0.8-1.3-0.8-1.6v-18.9
			c0-0.2,0-0.4,0.1-0.5c0.1-0.1,0.3-0.2,0.6-0.1l34.5,2.9c0.4,0,0.8,0.2,1.3,0.6c0.9,0.7,1.5,1.4,1.7,2.2c0,0.2,0,0.3,0,0.3
			c0,0.1,0,0.1,0,0.2V221.9z"/>
		<path class="st1" d="M0.9,224.1l34.6,3.4c1.2,0.2,2.1,0.8,2.7,1.8c0.2,0.4,0.4,0.8,0.4,1.3c0.9,14.5-5.1,21.6-17.8,21.2
			c-4.8-0.2-8.9-1.5-12.2-4c-3.3-2.5-5.6-5.7-6.8-9.5s-1.7-8.4-1.3-13.7C0.3,224.2,0.5,224.1,0.9,224.1z M3.9,227.8
			c-0.3,4.7,0.1,8.5,1.1,11.5c1,3,2.2,5,3.8,6.1c2.2,1.6,5.3,2.5,9.4,2.7c5.6,0.2,9.8-1.2,12.6-4c2.8-2.8,4.2-7.3,4.3-13.2
			L3.9,227.8z"/>
		<path class="st1" d="M37.2,305.1c0.5,0.5,0.9,0.9,1.1,1.4c0.2,0.5,0.3,0.8,0.1,1c-0.1,0.2-0.4,0.3-0.9,0.1L3,295.1l-1.7-1.6
			c-1.1-1.2-1.3-1.8-0.7-2l24.8-5.6l-22.5-9.2l-1.7-1.5c-1.1-1.2-1.3-1.8-0.5-2l34.6-6.7c0.3-0.1,0.7,0.1,1.2,0.4
			c0.5,0.3,1,0.7,1.3,1.2c0.4,0.5,0.6,0.9,0.7,1.3c0.1,0.4,0,0.6-0.3,0.7l-30.2,5.9l22.3,9.1c0.8,0.3,1.3,0.8,1.7,1.3
			c0.4,0.6,0.6,1.1,0.5,1.5v0.7l-24.3,5.5l27.6,10.1C36.3,304.4,36.7,304.7,37.2,305.1z"/>
		<path class="st1" d="M36.8,312.7c0.5,0.4,0.9,0.8,1.2,1.2c0.3,0.4,0.5,0.8,0.5,1c0.2,0.6,0,0.8-0.5,0.8l-34.6-2.9
			c-0.4,0-0.8-0.2-1.3-0.6c-0.5-0.4-0.9-0.8-1.2-1.2c-0.3-0.4-0.5-0.8-0.5-1c-0.2-0.6,0-0.8,0.5-0.8l34.6,2.9
			C35.8,312.1,36.3,312.3,36.8,312.7z"/>
		<path class="st1" d="M35.8,319.2c0.3,0.1,0.6,0.3,1.1,0.6c0.4,0.3,0.8,0.7,1.2,1.2c0.4,0.5,0.5,0.9,0.5,1.3V344
			c0,0.5-0.3,0.6-0.9,0.4c-0.8-0.3-1.5-0.7-2-1.5c-0.5-0.7-0.8-1.3-0.8-1.6v-7.4l-31.5-2.7c-0.4,0-0.8-0.2-1.3-0.6
			c-0.5-0.4-0.9-0.8-1.2-1.2c-0.3-0.4-0.5-0.8-0.5-1c-0.2-0.6,0-0.8,0.5-0.8l34,2.9v-10.8C34.9,319.1,35.2,319,35.8,319.2z"/>
		<path class="st1" d="M36.8,349c0.5,0.4,0.9,0.8,1.2,1.2c0.3,0.4,0.5,0.8,0.5,1c0.2,0.6,0,0.8-0.5,0.8l-16.6-1.4v15.3l14.1,1.2
			c0.4,0,0.8,0.2,1.3,0.6c0.5,0.4,0.9,0.8,1.2,1.2c0.3,0.4,0.5,0.8,0.5,1c0.2,0.6,0,0.8-0.5,0.8l-34.6-2.9c-0.4,0-0.8-0.2-1.3-0.6
			c-0.5-0.4-0.9-0.8-1.2-1.2c-0.3-0.4-0.5-0.8-0.5-1c-0.2-0.6,0-0.8,0.5-0.8l16.8,1.4v-15.3l-14.3-1.2c-0.4,0-0.8-0.2-1.3-0.6
			c-0.5-0.4-0.9-0.8-1.2-1.2c-0.3-0.4-0.5-0.8-0.5-1c-0.2-0.6,0-0.8,0.5-0.8l34.6,2.9C35.8,348.4,36.3,348.6,36.8,349z"/>
		<path class="st1" d="M36.8,377.6c0.5,0.4,0.9,0.8,1.2,1.2c0.3,0.4,0.5,0.8,0.5,1c0.2,0.6,0,0.8-0.5,0.8l-34.6-2.9
			c-0.4,0-0.8-0.2-1.3-0.6c-0.5-0.4-0.9-0.8-1.2-1.2c-0.3-0.4-0.5-0.8-0.5-1c-0.2-0.6,0-0.8,0.5-0.8l34.6,2.9
			C35.8,377,36.3,377.2,36.8,377.6z"/>
		<path class="st1" d="M2,388.1c-0.5-0.4-0.9-0.8-1.2-1.2c-0.3-0.4-0.4-0.8-0.5-1c-0.2-0.6,0-0.8,0.5-0.8l34.6,3.4
			c1.5,1.2,2.4,2.1,2.7,2.6c0.3,0.5,0.3,0.9,0.1,1L9.5,406.2l26,2.3c0.4,0,0.8,0.2,1.3,0.6c0.5,0.4,0.9,0.8,1.2,1.2
			c0.3,0.4,0.4,0.8,0.5,1c0.2,0.6,0,0.8-0.5,0.8l-34.6-3c-0.4,0-0.8-0.4-1.3-1c-0.5-0.6-0.8-1.2-1.1-1.8l-0.4-0.9l28.9-14.3
			l-26.1-2.5C3,388.6,2.5,388.4,2,388.1z"/>
		<path class="st1" d="M2.1,454c-0.5-0.4-0.9-0.8-1.2-1.2c-0.3-0.4-0.5-0.8-0.5-1c-0.2-0.6,0-0.8,0.5-0.8l29.6,2.5L9.6,441.6
			c-1-0.7-1.7-1.3-2-1.8c-0.4-0.5-0.5-0.8-0.5-1.1c0-0.2,0.2-0.4,0.6-0.5l20.9-8.4l-25.2-2.6c-0.4,0-0.8-0.2-1.3-0.6
			s-0.9-0.8-1.2-1.2c-0.3-0.4-0.4-0.8-0.5-1c-0.1-0.6,0.1-0.8,0.6-0.8l34.6,3.6c0.4,0,0.8,0.4,1.2,1c0.4,0.6,0.8,1.2,1.1,1.8
			l0.4,0.9L13,441l23.3,13.2c1.3,0.8,1.9,1.6,1.9,2.6c0,0.2-0.1,0.5-0.2,0.7l-34.6-3C3,454.5,2.5,454.3,2.1,454z"/>
		<path class="st1" d="M38.5,484.8c0,0.3-0.2,0.5-0.5,0.5c-0.4,0-0.8-0.2-1.3-0.6c-0.5-0.4-1-0.8-1.3-1.3c-0.4-0.5-0.6-0.9-0.6-1.3
			v-16.2l-13.4-1.2c0,5.4,0,10.9,0,16.4c0,0.5-0.3,0.6-0.9,0.4c-0.8-0.3-1.5-0.7-2-1.5c-0.5-0.7-0.8-1.3-0.8-1.6c0-4.7,0-9.3,0-14
			l-13.8-1.2c0,6.1,0,12.3,0,18.5c0,0.5-0.3,0.6-0.9,0.4c-0.8-0.3-1.5-0.7-2-1.5c-0.5-0.7-0.8-1.3-0.8-1.6v-18.9
			c0-0.2,0-0.4,0.1-0.5s0.3-0.2,0.6-0.1l34.5,2.9c0.4,0,0.8,0.2,1.3,0.6c0.9,0.7,1.5,1.4,1.7,2.2c0,0.2,0,0.3,0,0.3
			c0,0.1,0,0.1,0,0.2V484.8z"/>
		<path class="st1" d="M0.9,487l34.6,3.4c1.2,0.2,2.1,0.8,2.7,1.8c0.2,0.4,0.4,0.8,0.4,1.3c0.9,14.5-5.1,21.6-17.8,21.2
			c-4.8-0.2-8.9-1.5-12.2-4c-3.3-2.5-5.6-5.7-6.8-9.5c-1.2-3.8-1.7-8.4-1.3-13.7C0.3,487.1,0.5,486.9,0.9,487z M3.9,490.7
			c-0.3,4.7,0.1,8.5,1.1,11.5c1,3,2.2,5,3.8,6.1c2.2,1.6,5.3,2.5,9.4,2.7c5.6,0.2,9.8-1.2,12.6-4c2.8-2.8,4.2-7.3,4.3-13.2
			L3.9,490.7z"/>
		<path class="st1" d="M36.8,522.4c0.5,0.4,0.9,0.8,1.2,1.2c0.3,0.4,0.5,0.8,0.5,1c0.2,0.6,0,0.8-0.5,0.8l-34.6-2.9
			c-0.4,0-0.8-0.2-1.3-0.6c-0.5-0.4-0.9-0.8-1.2-1.2c-0.3-0.4-0.5-0.8-0.5-1c-0.2-0.6,0-0.8,0.5-0.8l34.6,2.9
			C35.8,521.8,36.3,522,36.8,522.4z"/>
		<path class="st1" d="M1.4,532c-0.5-0.5-0.8-0.9-1-1.4c-0.2-0.4-0.2-0.8,0-0.9c0.2-0.2,0.5-0.2,1,0.1L36,545.6l1.7,1.4
			c1.1,1.2,1.3,1.9,0.5,2l-34.6,7.2c-0.3,0.1-0.7-0.1-1.2-0.4c-0.5-0.3-1-0.7-1.4-1.2s-0.6-0.9-0.7-1.3c-0.1-0.4,0-0.6,0.3-0.7
			l11-2.3c0,0,0-0.1,0-0.1v-13.1L2.8,533C2.3,532.8,1.8,532.4,1.4,532z M15.3,549.6l16.2-3.4l-16.2-7.4V549.6z"/>
	</g>
</g>
</svg>
