<?xml version="1.0" encoding="utf-8"?>
<!-- Generator: Adobe Illustrator 19.2.0, SVG Export Plug-In . SVG Version: 6.00 Build 0)  -->
<svg version="1.1" id="Laag_1" xmlns="http://www.w3.org/2000/svg" xmlns:xlink="http://www.w3.org/1999/xlink" x="0px" y="0px"
	 viewBox="0 0 100.6 630" style="enable-background:new 0 0 100.6 630;" xml:space="preserve">
<style type="text/css">
	.st0{fill:#FFFFFF;}
	.st1{fill:#1D1D1B;}
</style>
<title>chap1</title>
<g>
	<g>
		
			<rect x="-261.9" y="262.4" transform="matrix(4.489724e-011 1 -1 4.489724e-011 365.723 259.6351)" class="st0" width="630" height="100.6"/>
	</g>
	<g>
		<path class="st1" d="M89.9,24.9c-0.5-0.4-0.9-0.8-1.2-1.2c-0.3-0.4-0.4-0.8-0.5-1c-0.2-0.6,0-0.8,0.5-0.8c1.3,0.1,2.7-0.1,4-0.6
			c1.3-0.6,2.4-1.4,3.2-2.5s1.4-2.4,1.7-3.7c0.3-1.4,0.2-2.7-0.1-4c-1.1-4-5-6.8-11.8-8.4c-5.1-1.2-9.3-0.9-12.7,1
			c-1.9,1-3.4,2.4-4.5,4.3c-1.1,1.8-1.6,3.8-1.5,5.8c0.1,2.1,0.5,3.7,1.4,5c0.9,1.3,2.1,2.2,3.6,2.7c0.4,0.2,0.9,0.5,1.4,1
			c0.5,0.5,0.8,0.9,1,1.4c0.2,0.5,0.2,0.8,0,1c-0.2,0.2-0.5,0.2-0.9,0.1c-1.3-0.5-2.7-1.3-4-2.4c-1.3-1-2.5-2.2-3.4-3.6
			c-1.7-2.4-2.6-4.9-2.7-7.5c-0.1-2.5,0.5-4.8,1.6-6.8c1.2-2,2.7-3.5,4.8-4.6c3.7-2,8.3-2.3,13.9-1C90,0.6,94.8,3.4,98.2,7.6
			c2.7,3.4,3.7,6.8,3.1,10.2c-0.3,1.6-0.9,3-1.9,4.2c-1,1.2-2.2,2.1-3.6,2.8c-1.4,0.6-3,0.9-4.6,0.7C90.9,25.5,90.4,25.3,89.9,24.9z
			"/>
		<path class="st1" d="M99.8,33.1c0.5,0.4,0.9,0.8,1.2,1.2c0.3,0.4,0.5,0.8,0.5,1c0.2,0.6,0,0.8-0.5,0.8l-16.6-1.4V50l14.1,1.2
			c0.4,0,0.8,0.2,1.3,0.6c0.5,0.4,0.9,0.8,1.2,1.2c0.3,0.4,0.5,0.8,0.5,1c0.2,0.6,0,0.8-0.5,0.8l-34.6-2.9c-0.4,0-0.8-0.2-1.3-0.6
			c-0.5-0.4-0.9-0.8-1.2-1.2c-0.3-0.4-0.5-0.8-0.5-1c-0.2-0.6,0-0.8,0.5-0.8l16.8,1.4V34.4l-14.3-1.2c-0.4,0-0.8-0.2-1.3-0.6
			c-0.5-0.4-0.9-0.8-1.2-1.2c-0.3-0.4-0.5-0.8-0.5-1c-0.2-0.6,0-0.8,0.5-0.8l34.6,2.9C98.9,32.5,99.3,32.7,99.8,33.1z"/>
		<path class="st1" d="M64.4,59.5c-0.5-0.5-0.8-0.9-1-1.4c-0.2-0.4-0.2-0.8,0-0.9c0.2-0.2,0.5-0.2,1,0.1l34.6,15.8l1.7,1.4
			c1.1,1.2,1.3,1.9,0.5,2l-34.6,7.2c-0.3,0.1-0.7-0.1-1.2-0.4c-0.5-0.3-1-0.7-1.4-1.2s-0.6-0.9-0.7-1.3c-0.1-0.4,0-0.6,0.3-0.7
			l11-2.3c0,0,0-0.1,0-0.1V64.6l-8.8-4.1C65.4,60.3,64.9,59.9,64.4,59.5z M78.3,77l16.2-3.4l-16.2-7.4V77z"/>
		<path class="st1" d="M98.5,91.5c0.4,0,0.9,0.3,1.6,0.9c0.9,0.7,1.4,1.4,1.4,2.2c1.4,3.7,1.4,7.3,0,10.8c-1,2.4-2.5,4.4-4.6,5.8
			c-2.1,1.4-4.5,2-7.1,1.6c-1.5-0.2-3-0.7-4.5-1.6c-1.6-0.9-3-2.1-4.2-3.6c-2-2.4-3.3-5.2-4-8.4c-0.4-2-0.5-4-0.2-6.1l-10.3-0.9
			c-0.7,0-1.4-0.4-2.3-1.4c-0.3-0.4-0.6-0.7-0.7-1.2c-0.2-0.4-0.2-0.7,0-0.9c0.1-0.1,0.3-0.2,0.6-0.2L98.5,91.5z M98.7,95l-17.8-1.5
			c-0.6,2.7-0.7,5.3-0.3,7.8c0.5,2.4,1.2,4.3,2.3,5.6c1.1,1.3,2.7,2.1,4.7,2.4c2,0.3,4-0.2,6-1.5s3.3-2.9,4.1-4.9
			c0.8-2,1.2-3.6,1.2-4.8S98.8,95.8,98.7,95z"/>
		<path class="st1" d="M98.8,114.9c0.3,0.1,0.6,0.3,1.1,0.6c0.4,0.3,0.8,0.7,1.2,1.2c0.4,0.5,0.5,0.9,0.5,1.3v21.7
			c0,0.5-0.3,0.6-0.9,0.4c-0.8-0.3-1.5-0.7-2-1.5c-0.5-0.7-0.8-1.3-0.8-1.6v-7.4l-31.5-2.7c-0.4,0-0.8-0.2-1.3-0.6
			c-0.5-0.4-0.9-0.8-1.2-1.2c-0.3-0.4-0.5-0.8-0.5-1c-0.2-0.6,0-0.8,0.5-0.8l34,2.9v-10.8C97.9,114.8,98.2,114.7,98.8,114.9z"/>
		<path class="st1" d="M101.6,166.4c0,0.3-0.2,0.5-0.5,0.5c-0.4,0-0.8-0.2-1.3-0.6c-0.5-0.4-1-0.8-1.3-1.3c-0.4-0.5-0.6-0.9-0.6-1.3
			v-16.2l-13.4-1.2c0,5.4,0,10.9,0,16.4c0,0.5-0.3,0.6-0.9,0.4c-0.8-0.3-1.5-0.7-2-1.5c-0.5-0.7-0.8-1.3-0.8-1.6c0-4.7,0-9.3,0-14
			L67,144.9c0,6.1,0,12.3,0,18.5c0,0.5-0.3,0.6-0.9,0.4c-0.8-0.3-1.5-0.7-2-1.5c-0.5-0.7-0.8-1.3-0.8-1.6v-18.9c0-0.2,0-0.4,0.1-0.5
			c0.1-0.1,0.3-0.2,0.6-0.1l34.5,2.9c0.4,0,0.8,0.2,1.3,0.6c0.9,0.7,1.5,1.4,1.7,2.2c0,0.2,0,0.3,0,0.3c0,0.1,0,0.1,0,0.2V166.4z"/>
		<path class="st1" d="M77.6,181.5c-0.6-1.9-0.9-3.5-0.9-4.9s0-2.5,0.1-3.2l-10.4-0.9c-0.4,0-0.8-0.2-1.3-0.6
			c-0.5-0.4-0.9-0.8-1.2-1.2c-0.3-0.4-0.5-0.8-0.5-1c-0.2-0.6,0-0.8,0.5-0.8l34.6,2.9c0.4,0,0.8,0.2,1.3,0.6
			c1.1,0.8,1.6,1.6,1.7,2.4c0.8,1.9,1.2,3.8,1.2,5.8c0,2-0.4,3.9-1.2,5.6c-1.1,2.3-2.5,4-4.4,5.2c-1.9,1.1-3.8,1.7-5.8,1.7
			c-3.8,0-7.2-1.8-10.3-5.3c-0.6-0.7-1.1-1.4-1.6-2.2L66.8,191c-0.3,0.1-0.6,0-1.1-0.3c-0.5-0.3-1-0.6-1.4-1.1
			c-0.4-0.5-0.7-0.9-0.8-1.4c-0.1-0.4-0.1-0.7,0.2-0.8L77.6,181.5z M81.5,184.5c1.3,3.4,3.7,5,7.2,5c1.8,0,3.5-0.5,5.2-1.6
			c1.7-1,3-2.5,3.9-4.4c0.8-1.9,1.3-3.8,1.3-5.6c0-0.9-0.1-1.8-0.3-2.7l-17.9-1.5c-0.8,3.3-0.7,6.5,0.2,9.6
			C81.4,183.8,81.5,184.1,81.5,184.5z"/>
		<path class="st1" d="M92.9,212.5c-0.5-0.5-0.8-0.9-1-1.4c-0.2-0.4-0.2-0.8,0-0.9c0.2-0.2,0.6-0.1,1.3,0.2c0.7,0.3,1.4,0.8,2.3,1.4
			c4,2.9,6,6.9,6,12c0,6.7-3.3,9.1-9.9,7.2c-3.4-0.9-6.1-2.7-8.1-5.2c-1.4,4.1-4.4,5.7-9.2,4.7c-2.1-0.4-4-1.2-5.6-2.4
			c-3.6-2.6-5.4-6.1-5.4-10.7c0-6,2.6-9.1,7.7-9.5c0.3,0,0.7,0.1,1.2,0.5s0.9,0.7,1.2,1.1c0.3,0.4,0.5,0.7,0.6,1
			c0.2,0.6,0.1,1-0.3,1c-4.5,0.3-6.8,3.2-6.9,8.5c0,1.2,0.1,2.1,0.3,3c0.4,1.2,0.9,2.1,1.6,2.6c0.7,0.5,1.8,0.9,3.2,1.2
			c2.9,0.6,5,0.1,6.5-1.6c1.5-1.7,2.2-4.6,2.1-8.7c0-0.1,0-0.2,0-0.2c0,0,0-0.1,0-0.1c0-0.4,0.4-0.6,1-0.3c0.8,0.3,1.5,0.8,2,1.5
			c0.5,0.7,0.7,1.3,0.7,1.6c-0.1,2,0,3.6,0.5,4.8c0.5,1.2,1,2,1.7,2.5c0.7,0.5,1.7,0.9,3,1.3c2.7,0.7,4.8,0.6,6.1-0.4
			c1.4-1,2.1-3,2.1-6c0-2-0.2-3.5-0.7-4.5c-0.5-1.1-1-1.8-1.4-2.1s-0.9-0.6-1.4-0.8C93.9,213.4,93.4,213,92.9,212.5z"/>
		<path class="st1" d="M65.1,247.8c-0.5-0.4-0.9-0.8-1.2-1.2c-0.3-0.4-0.4-0.8-0.5-1c-0.2-0.6,0-0.8,0.5-0.8l34.6,3.4
			c1.5,1.2,2.4,2.1,2.7,2.6c0.3,0.5,0.3,0.9,0.1,1l-28.8,14.2l26,2.3c0.4,0,0.8,0.2,1.3,0.6c0.5,0.4,0.9,0.8,1.2,1.2
			c0.3,0.4,0.4,0.8,0.5,1c0.2,0.6,0,0.8-0.5,0.8l-34.6-3c-0.4,0-0.8-0.4-1.3-1c-0.5-0.6-0.8-1.2-1.1-1.8l-0.4-0.9l28.9-14.3
			l-26.1-2.5C66,248.4,65.6,248.2,65.1,247.8z"/>
		<path class="st1" d="M101.6,299.2c0,0.3-0.2,0.5-0.5,0.5c-0.4,0-0.8-0.2-1.3-0.6c-0.5-0.4-1-0.8-1.3-1.3c-0.4-0.5-0.6-0.9-0.6-1.3
			v-16.2l-13.4-1.2c0,5.4,0,10.9,0,16.4c0,0.5-0.3,0.6-0.9,0.4c-0.8-0.3-1.5-0.7-2-1.5c-0.5-0.7-0.8-1.3-0.8-1.6c0-4.7,0-9.3,0-14
			L67,277.7c0,6.1,0,12.3,0,18.5c0,0.5-0.3,0.6-0.9,0.4c-0.8-0.3-1.5-0.7-2-1.5c-0.5-0.7-0.8-1.3-0.8-1.6v-18.9c0-0.2,0-0.4,0.1-0.5
			c0.1-0.1,0.3-0.2,0.6-0.1l34.5,2.9c0.4,0,0.8,0.2,1.3,0.6c0.9,0.7,1.5,1.4,1.7,2.2c0,0.2,0,0.3,0,0.3c0,0.1,0,0.1,0,0.2V299.2z"/>
		<path class="st1" d="M100.3,341.5c0.5,0.5,0.9,0.9,1.1,1.4c0.2,0.5,0.3,0.8,0.1,1c-0.1,0.2-0.4,0.3-0.9,0.1L66,331.5l-1.7-1.6
			c-1.1-1.2-1.3-1.8-0.7-2l24.8-5.6l-22.5-9.2l-1.7-1.5c-1.1-1.2-1.3-1.8-0.5-2l34.6-6.7c0.3-0.1,0.7,0.1,1.2,0.4
			c0.5,0.3,1,0.7,1.3,1.2c0.4,0.5,0.6,0.9,0.7,1.3c0.1,0.4,0,0.6-0.3,0.7L71,312.5l22.3,9.1c0.8,0.3,1.3,0.8,1.7,1.3
			c0.4,0.6,0.6,1.1,0.5,1.5v0.7l-24.3,5.5l27.6,10.1C99.3,340.8,99.8,341.1,100.3,341.5z"/>
		<path class="st1" d="M99.8,379.4c0.5,0.4,0.9,0.8,1.2,1.2c0.3,0.4,0.4,0.8,0.5,1c0.2,0.6,0,0.8-0.5,0.8L73.8,380
			c-0.1,0-0.2,0-0.3,0c-1.6-0.5-3.1-1.3-4.5-2.3c-2.3-1.7-3.9-3.7-4.7-5.9c-0.8-2.2-1.2-4.7-1-7.4c0.4-6.6,3.8-9.4,10.2-8.6l24.9,2
			c0.4,0,0.8,0.2,1.3,0.6c0.5,0.4,0.9,0.8,1.2,1.2c0.3,0.4,0.5,0.7,0.5,1c0.2,0.6,0,0.8-0.5,0.8l-25-2c-5.7-0.7-8.7,1.8-9,7.7
			c-0.1,2.3,0.1,4.1,0.6,5.5c0.5,1.3,1,2.2,1.6,2.7c0.6,0.4,1.3,0.8,2.3,1.1l27,2.4C98.9,378.9,99.3,379.1,99.8,379.4z"/>
		<path class="st1" d="M92.5,411.5c-0.5-0.3-1-0.6-1.4-1.1c-0.4-0.5-0.7-0.9-0.9-1.4c-0.1-0.4-0.1-0.7,0.1-0.9
			c2.1-1.1,3.8-2.6,5.2-4.5c1.4-1.9,2.2-4,2.4-6.1c0.1-1.3,0-2.5-0.3-3.5c-0.3-1-0.7-1.7-1.1-2.1c-0.4-0.4-1.2-0.7-2.2-0.9
			c-1.1-0.2-2.2,0-3.5,0.5c-1.3,0.5-2.3,1.4-3.2,2.6c-0.8,1.2-1.6,2.6-2.2,4.4c0,0.1-0.2,0.7-0.6,1.9c-0.4,1.2-0.7,2-1,2.6
			c-1.8,4.1-4.4,6.4-7.8,7c-2.3,0.4-4.6-0.2-6.8-1.7c-1.3-0.8-2.4-1.9-3.3-3.1c-2.3-3-3.2-6.4-2.5-9.9c0.4-2.4,1.4-4.6,3-6.6
			c1.6-2,3.4-3.5,5.7-4.6c0.3-0.1,0.6-0.1,1.1,0.2c0.5,0.3,0.9,0.6,1.4,1.1c0.4,0.5,0.7,0.9,0.9,1.4c0.1,0.4,0.1,0.7-0.2,0.8
			c-2.1,1.1-3.9,2.5-5.4,4.4c-1.5,1.9-2.4,3.8-2.7,5.9c-0.4,2-0.3,3.7,0.2,5c0.5,1.3,1,2.2,1.7,2.6c1.2,0.8,2.6,1,4.3,0.8
			c3-0.4,5.4-2.6,7.1-6.4c0.3-0.6,0.6-1.4,0.9-2.6c1-3,2-5.1,3-6.4c1-1.3,2.2-2.3,3.6-2.9c1.5-0.6,3.1-0.8,4.8-0.5
			c1.8,0.3,3.5,1.3,5.1,2.9c2.9,2.8,4.2,6.2,3.8,10c-0.3,2.4-1.1,4.6-2.6,6.6c-1.5,2-3.3,3.6-5.4,4.8
			C93.3,411.8,93,411.8,92.5,411.5z"/>
		<path class="st1" d="M101.6,439.7c0,0.3-0.2,0.5-0.5,0.5c-0.4,0-0.8-0.2-1.3-0.6c-0.5-0.4-1-0.8-1.3-1.3c-0.4-0.5-0.6-0.9-0.6-1.3
			v-16.2l-13.4-1.2c0,5.4,0,10.9,0,16.4c0,0.5-0.3,0.6-0.9,0.4c-0.8-0.3-1.5-0.7-2-1.5c-0.5-0.7-0.8-1.3-0.8-1.6c0-4.7,0-9.3,0-14
			L67,418.2c0,6.1,0,12.3,0,18.5c0,0.5-0.3,0.6-0.9,0.4c-0.8-0.3-1.5-0.7-2-1.5c-0.5-0.7-0.8-1.3-0.8-1.6v-18.9c0-0.2,0-0.4,0.1-0.5
			s0.3-0.2,0.6-0.1l34.5,2.9c0.4,0,0.8,0.2,1.3,0.6c0.9,0.7,1.5,1.4,1.7,2.2c0,0.2,0,0.3,0,0.3c0,0.1,0,0.1,0,0.2V439.7z"/>
		<path class="st1" d="M92.5,469.1c-0.5-0.3-1-0.6-1.4-1.1c-0.4-0.5-0.7-0.9-0.9-1.4c-0.1-0.4-0.1-0.7,0.1-0.9
			c2.1-1.1,3.8-2.6,5.2-4.5c1.4-1.9,2.2-4,2.4-6.1c0.1-1.3,0-2.5-0.3-3.5c-0.3-1-0.7-1.7-1.1-2.1c-0.4-0.4-1.2-0.7-2.2-0.9
			c-1.1-0.2-2.2,0-3.5,0.5c-1.3,0.5-2.3,1.4-3.2,2.6c-0.8,1.2-1.6,2.6-2.2,4.4c0,0.1-0.2,0.7-0.6,1.9c-0.4,1.2-0.7,2-1,2.6
			c-1.8,4.1-4.4,6.4-7.8,7c-2.3,0.4-4.6-0.2-6.8-1.7c-1.3-0.8-2.4-1.9-3.3-3.1c-2.3-3-3.2-6.4-2.5-9.9c0.4-2.4,1.4-4.6,3-6.6
			s3.4-3.5,5.7-4.6c0.3-0.1,0.6-0.1,1.1,0.2c0.5,0.3,0.9,0.6,1.4,1.1c0.4,0.5,0.7,0.9,0.9,1.4c0.1,0.4,0.1,0.7-0.2,0.8
			c-2.1,1.1-3.9,2.5-5.4,4.4c-1.5,1.9-2.4,3.8-2.7,5.9c-0.4,2-0.3,3.7,0.2,5c0.5,1.3,1,2.2,1.7,2.6c1.2,0.8,2.6,1,4.3,0.8
			c3-0.4,5.4-2.6,7.1-6.4c0.3-0.6,0.6-1.4,0.9-2.6c1-3,2-5.1,3-6.4s2.2-2.3,3.6-2.9c1.5-0.6,3.1-0.8,4.8-0.5
			c1.8,0.3,3.5,1.3,5.1,2.9c2.9,2.8,4.2,6.2,3.8,10c-0.3,2.4-1.1,4.6-2.6,6.6c-1.5,2-3.3,3.6-5.4,4.8
			C93.3,469.4,93,469.4,92.5,469.1z"/>
		<path class="st1" d="M16.6,9.9C16,8.1,15.7,6.4,15.7,5s0-2.5,0.1-3.2L5.4,1c-0.4,0-0.8-0.2-1.3-0.6C3.6,0,3.2-0.4,2.9-0.9
			c-0.3-0.4-0.5-0.8-0.5-1c-0.2-0.6,0-0.8,0.5-0.8l34.6,2.9c0.4,0,0.8,0.2,1.3,0.6c1.1,0.8,1.6,1.6,1.7,2.4c0.8,1.9,1.2,3.8,1.2,5.8
			c0,2-0.4,3.9-1.2,5.6c-1.1,2.3-2.5,4-4.4,5.2c-1.9,1.1-3.8,1.7-5.8,1.7c-3.8,0-7.2-1.8-10.3-5.3c-0.6-0.7-1.1-1.4-1.6-2.2
			L5.8,19.4c-0.3,0.1-0.6,0-1.1-0.3c-0.5-0.3-1-0.6-1.4-1.1c-0.4-0.5-0.7-0.9-0.8-1.4c-0.1-0.4-0.1-0.7,0.2-0.8L16.6,9.9z
			 M20.5,12.9c1.3,3.4,3.7,5,7.2,5c1.8,0,3.5-0.5,5.2-1.6c1.7-1,3-2.5,3.9-4.4c0.8-1.9,1.3-3.8,1.3-5.6c0-0.9-0.1-1.8-0.3-2.7
			L19.9,2.2c-0.8,3.3-0.7,6.5,0.2,9.6C20.4,12.2,20.5,12.6,20.5,12.9z"/>
		<path class="st1" d="M40.6,51.2c0,0.3-0.2,0.5-0.5,0.5c-0.4,0-0.8-0.2-1.3-0.6c-0.5-0.4-1-0.8-1.3-1.3c-0.4-0.5-0.6-0.9-0.6-1.3
			V32.3l-13.4-1.2c0,5.4,0,10.9,0,16.4c0,0.5-0.3,0.6-0.9,0.4c-0.8-0.3-1.5-0.7-2-1.5c-0.5-0.7-0.8-1.3-0.8-1.6c0-4.7,0-9.3,0-14
			L6,29.7C6,35.8,6,42,6,48.2c0,0.5-0.3,0.6-0.9,0.4c-0.8-0.3-1.5-0.7-2-1.5c-0.5-0.7-0.8-1.3-0.8-1.6V26.6c0-0.2,0-0.4,0.1-0.5
			C2.6,26,2.8,25.9,3,26l34.5,2.9c0.4,0,0.8,0.2,1.3,0.6c0.9,0.7,1.5,1.4,1.7,2.2c0,0.2,0,0.3,0,0.3c0,0.1,0,0.1,0,0.2V51.2z"/>
		<path class="st1" d="M37.5,56.6c0.4,0,0.9,0.3,1.6,0.9c0.7,0.5,1.2,1.2,1.4,2c0,0.2,0,0.3,0,0.3c0,0.1,0,0.1,0,0.2v18.9
			c0,0.5-0.3,0.6-0.9,0.4c-0.8-0.3-1.5-0.7-2-1.5c-0.5-0.7-0.8-1.3-0.8-1.6V60l-13.4-1.2c0,5.4,0,10.9,0,16.4c0,0.5-0.3,0.6-0.9,0.4
			c-0.8-0.3-1.5-0.7-2-1.5c-0.5-0.7-0.8-1.3-0.8-1.6c0-4.7,0-9.3,0-14L5.5,57.3c-0.7,0-1.4-0.4-2.3-1.4c-0.3-0.4-0.6-0.7-0.7-1.2
			c-0.2-0.4-0.2-0.7,0-0.9c0.1-0.1,0.3-0.2,0.6-0.2L37.5,56.6z"/>
		<path class="st1" d="M40.6,106.7c0,0.3-0.2,0.5-0.5,0.5c-0.4,0-0.8-0.2-1.3-0.6c-0.5-0.4-1-0.8-1.3-1.3c-0.4-0.5-0.6-0.9-0.6-1.3
			V87.8l-13.4-1.2c0,5.4,0,10.9,0,16.4c0,0.5-0.3,0.6-0.9,0.4c-0.8-0.3-1.5-0.7-2-1.5c-0.5-0.7-0.8-1.3-0.8-1.6c0-4.7,0-9.3,0-14
			L6,85.2c0,6.1,0,12.3,0,18.5c0,0.5-0.3,0.6-0.9,0.4c-0.8-0.3-1.5-0.7-2-1.5c-0.5-0.7-0.8-1.3-0.8-1.6V82.1c0-0.2,0-0.4,0.1-0.5
			c0.1-0.1,0.3-0.2,0.6-0.1l34.5,2.9c0.4,0,0.8,0.2,1.3,0.6c0.9,0.7,1.5,1.4,1.7,2.2c0,0.2,0,0.3,0,0.3c0,0.1,0,0.1,0,0.2V106.7z"/>
		<path class="st1" d="M16.6,121.8c-0.6-1.9-0.9-3.5-0.9-4.9s0-2.5,0.1-3.2l-10.4-0.9c-0.4,0-0.8-0.2-1.3-0.6
			c-0.5-0.4-0.9-0.8-1.2-1.2c-0.3-0.4-0.5-0.8-0.5-1c-0.2-0.6,0-0.8,0.5-0.8l34.6,2.9c0.4,0,0.8,0.2,1.3,0.6
			c1.1,0.8,1.6,1.6,1.7,2.4c0.8,1.9,1.2,3.8,1.2,5.8c0,2-0.4,3.9-1.2,5.6c-1.1,2.3-2.5,4-4.4,5.2c-1.9,1.1-3.8,1.7-5.8,1.7
			c-3.8,0-7.2-1.8-10.3-5.3c-0.6-0.7-1.1-1.4-1.6-2.2l-12.7,5.4c-0.3,0.1-0.6,0-1.1-0.3c-0.5-0.3-1-0.6-1.4-1.1
			c-0.4-0.5-0.7-0.9-0.8-1.4c-0.1-0.4-0.1-0.7,0.2-0.8L16.6,121.8z M20.5,124.8c1.3,3.4,3.7,5,7.2,5c1.8,0,3.5-0.5,5.2-1.6
			c1.7-1,3-2.5,3.9-4.4c0.8-1.9,1.3-3.8,1.3-5.6c0-0.9-0.1-1.8-0.3-2.7l-17.9-1.5c-0.8,3.3-0.7,6.5,0.2,9.6
			C20.4,124.1,20.5,124.4,20.5,124.8z"/>
		<path class="st1" d="M40.6,163c0,0.3-0.2,0.5-0.5,0.5c-0.4,0-0.8-0.2-1.3-0.6c-0.5-0.4-1-0.8-1.3-1.3c-0.4-0.5-0.6-0.9-0.6-1.3
			v-16.2L23.5,143c0,5.4,0,10.9,0,16.4c0,0.5-0.3,0.6-0.9,0.4c-0.8-0.3-1.5-0.7-2-1.5c-0.5-0.7-0.8-1.3-0.8-1.6c0-4.7,0-9.3,0-14
			L6,141.5c0,6.1,0,12.3,0,18.5c0,0.5-0.3,0.6-0.9,0.4c-0.8-0.3-1.5-0.7-2-1.5c-0.5-0.7-0.8-1.3-0.8-1.6v-18.9c0-0.2,0-0.4,0.1-0.5
			c0.1-0.1,0.3-0.2,0.6-0.1l34.5,2.9c0.4,0,0.8,0.2,1.3,0.6c0.9,0.7,1.5,1.4,1.7,2.2c0,0.2,0,0.3,0,0.3c0,0.1,0,0.1,0,0.2V163z"/>
		<path class="st1" d="M4.1,168.4c-0.5-0.4-0.9-0.8-1.2-1.2c-0.3-0.4-0.4-0.8-0.5-1c-0.2-0.6,0-0.8,0.5-0.8l34.6,3.4
			c1.5,1.2,2.4,2.1,2.7,2.6c0.3,0.5,0.3,0.9,0.1,1l-28.8,14.2l26,2.3c0.4,0,0.8,0.2,1.3,0.6c0.5,0.4,0.9,0.8,1.2,1.2
			c0.3,0.4,0.4,0.8,0.5,1c0.2,0.6,0,0.8-0.5,0.8l-34.6-3c-0.4,0-0.8-0.4-1.3-1c-0.5-0.6-0.8-1.2-1.1-1.8l-0.4-0.9l28.9-14.3L5.4,169
			C5,169,4.6,168.8,4.1,168.4z"/>
		<path class="st1" d="M28.9,222.1c-0.5-0.4-0.9-0.8-1.2-1.2c-0.3-0.4-0.4-0.8-0.5-1c-0.2-0.6,0-0.8,0.5-0.8c1.3,0.1,2.7-0.1,4-0.6
			c1.3-0.6,2.4-1.4,3.2-2.5s1.4-2.4,1.7-3.7c0.3-1.4,0.2-2.7-0.1-4c-1.1-4-5-6.8-11.8-8.4c-5.1-1.2-9.3-0.9-12.7,1
			c-1.9,1-3.4,2.4-4.5,4.3C6.4,207,5.9,208.9,6,211c0.1,2.1,0.5,3.7,1.4,5c0.9,1.3,2.1,2.2,3.6,2.7c0.4,0.2,0.9,0.5,1.4,1
			c0.5,0.5,0.8,0.9,1,1.4c0.2,0.5,0.2,0.8,0,1c-0.2,0.2-0.5,0.2-0.9,0.1c-1.3-0.5-2.7-1.3-4-2.4c-1.3-1-2.5-2.2-3.4-3.6
			c-1.7-2.4-2.6-4.9-2.7-7.5c-0.1-2.5,0.5-4.8,1.6-6.8c1.2-2,2.7-3.5,4.8-4.6c3.7-2,8.3-2.3,13.9-1c6.4,1.5,11.2,4.3,14.6,8.5
			c2.7,3.4,3.7,6.8,3.1,10.2c-0.3,1.6-0.9,3-1.9,4.2c-1,1.2-2.2,2.1-3.6,2.8c-1.4,0.6-3,0.9-4.6,0.7
			C29.9,222.7,29.4,222.5,28.9,222.1z"/>
		<path class="st1" d="M40.6,252.1c0,0.3-0.2,0.5-0.5,0.5c-0.4,0-0.8-0.2-1.3-0.6c-0.5-0.4-1-0.8-1.3-1.3c-0.4-0.5-0.6-0.9-0.6-1.3
			v-16.2l-13.4-1.2c0,5.4,0,10.9,0,16.4c0,0.5-0.3,0.6-0.9,0.4c-0.8-0.3-1.5-0.7-2-1.5c-0.5-0.7-0.8-1.3-0.8-1.6c0-4.7,0-9.3,0-14
			L6,230.6c0,6.1,0,12.3,0,18.5c0,0.5-0.3,0.6-0.9,0.4c-0.8-0.3-1.5-0.7-2-1.5c-0.5-0.7-0.8-1.3-0.8-1.6v-18.9c0-0.2,0-0.4,0.1-0.5
			c0.1-0.1,0.3-0.2,0.6-0.1l34.5,2.9c0.4,0,0.8,0.2,1.3,0.6c0.9,0.7,1.5,1.4,1.7,2.2c0,0.2,0,0.3,0,0.3c0,0.1,0,0.1,0,0.2V252.1z"/>
		<path class="st1" d="M31.5,281.5c-0.5-0.3-1-0.6-1.4-1.1c-0.4-0.5-0.7-0.9-0.9-1.4c-0.1-0.4-0.1-0.7,0.1-0.9
			c2.1-1.1,3.8-2.6,5.2-4.5c1.4-1.9,2.2-4,2.4-6.1c0.1-1.3,0-2.5-0.3-3.5c-0.3-1-0.7-1.7-1.1-2.1c-0.4-0.4-1.2-0.7-2.2-0.9
			c-1.1-0.2-2.2,0-3.5,0.5c-1.3,0.5-2.3,1.4-3.2,2.6c-0.8,1.2-1.6,2.6-2.2,4.4c0,0.1-0.2,0.7-0.6,1.9c-0.4,1.2-0.7,2-1,2.6
			c-1.8,4.1-4.4,6.4-7.8,7c-2.3,0.4-4.6-0.2-6.8-1.7c-1.3-0.8-2.4-1.9-3.3-3.1c-2.3-3-3.2-6.4-2.5-9.9c0.4-2.4,1.4-4.6,3-6.6
			c1.6-2,3.4-3.5,5.7-4.6c0.3-0.1,0.6-0.1,1.1,0.2c0.5,0.3,0.9,0.6,1.4,1.1c0.4,0.5,0.7,0.9,0.9,1.4c0.1,0.4,0.1,0.7-0.2,0.8
			c-2.1,1.1-3.9,2.5-5.4,4.4s-2.4,3.8-2.7,5.9c-0.4,2-0.3,3.7,0.2,5c0.5,1.3,1,2.2,1.7,2.6c1.2,0.8,2.6,1,4.3,0.8
			c3-0.4,5.4-2.6,7.1-6.4c0.3-0.6,0.6-1.4,0.9-2.6c1-3,2-5.1,3-6.4c1-1.3,2.2-2.3,3.6-2.9c1.5-0.6,3.1-0.8,4.8-0.5
			c1.8,0.3,3.5,1.3,5.1,2.9c2.9,2.8,4.2,6.2,3.8,10c-0.3,2.4-1.1,4.6-2.6,6.6c-1.5,2-3.3,3.6-5.4,4.8
			C32.3,281.8,32,281.8,31.5,281.5z"/>
	</g>
</g>
</svg>
