<?xml version="1.0" encoding="utf-8"?>
<!-- Generator: Adobe Illustrator 19.2.0, SVG Export Plug-In . SVG Version: 6.00 Build 0)  -->
<svg version="1.1" id="Laag_1" xmlns="http://www.w3.org/2000/svg" xmlns:xlink="http://www.w3.org/1999/xlink" x="0px" y="0px"
	 viewBox="0 0 100.6 630" style="enable-background:new 0 0 100.6 630;" xml:space="preserve">
<style type="text/css">
	.st0{fill:#FFFFFF;}
	.st1{fill:#1D1D1B;}
</style>
<title>chap1</title>
<g>
	<g>
		
			<rect x="-265.2" y="266.1" transform="matrix(4.489724e-011 1 -1 4.489724e-011 366.1413 266.6192)" class="st0" width="630" height="100.6"/>
	</g>
	<g>
		<path class="st1" d="M88.2,27.1c-0.5-0.4-0.9-0.8-1.2-1.2c-0.3-0.4-0.4-0.8-0.5-1c-0.2-0.6,0-0.8,0.5-0.8c1.3,0.1,2.7-0.1,4-0.6
			c1.3-0.6,2.4-1.4,3.2-2.5c0.9-1.1,1.4-2.4,1.7-3.7c0.3-1.4,0.2-2.7-0.1-4c-1.1-4-5-6.8-11.8-8.4C79,3.7,74.7,4,71.4,5.8
			c-1.9,1-3.4,2.4-4.5,4.3c-1.1,1.8-1.6,3.8-1.5,5.8c0.1,2.1,0.5,3.7,1.4,5c0.9,1.3,2.1,2.2,3.6,2.7c0.4,0.2,0.9,0.5,1.4,1
			c0.5,0.5,0.8,0.9,1,1.4c0.2,0.5,0.2,0.8,0,1c-0.2,0.2-0.5,0.2-0.9,0.1c-1.3-0.5-2.7-1.3-4-2.4c-1.3-1-2.5-2.2-3.4-3.6
			c-1.7-2.4-2.6-4.9-2.7-7.5c-0.1-2.5,0.5-4.8,1.6-6.8c1.2-2,2.7-3.5,4.8-4.6c3.7-2,8.3-2.3,13.9-1c6.4,1.5,11.2,4.3,14.6,8.5
			c2.7,3.4,3.7,6.8,3.1,10.2c-0.3,1.6-0.9,3-1.9,4.2c-1,1.2-2.2,2.1-3.6,2.8c-1.4,0.6-3,0.9-4.6,0.7C89.2,27.7,88.8,27.4,88.2,27.1z
			"/>
		<path class="st1" d="M98.2,35.3c0.5,0.4,0.9,0.8,1.2,1.2c0.3,0.4,0.5,0.8,0.5,1c0.2,0.6,0,0.8-0.5,0.8l-16.6-1.4v15.3l14.1,1.2
			c0.4,0,0.8,0.2,1.3,0.6c0.5,0.4,0.9,0.8,1.2,1.2c0.3,0.4,0.5,0.8,0.5,1c0.2,0.6,0,0.8-0.5,0.8l-34.6-2.9c-0.4,0-0.8-0.2-1.3-0.6
			c-0.5-0.4-0.9-0.8-1.2-1.2c-0.3-0.4-0.5-0.8-0.5-1c-0.2-0.6,0-0.8,0.5-0.8l16.8,1.4V36.6l-14.3-1.2c-0.4,0-0.8-0.2-1.3-0.6
			c-0.5-0.4-0.9-0.8-1.2-1.2c-0.3-0.4-0.5-0.8-0.5-1c-0.2-0.6,0-0.8,0.5-0.8l34.6,2.9C97.2,34.7,97.7,34.9,98.2,35.3z"/>
		<path class="st1" d="M62.8,61.6c-0.5-0.5-0.8-0.9-1-1.4c-0.2-0.4-0.2-0.8,0-0.9c0.2-0.2,0.5-0.2,1,0.1l34.6,15.8l1.7,1.4
			c1.1,1.2,1.3,1.9,0.5,2L65,85.9c-0.3,0.1-0.7-0.1-1.2-0.4c-0.5-0.3-1-0.7-1.4-1.2c-0.4-0.5-0.6-0.9-0.7-1.3
			c-0.1-0.4,0-0.6,0.3-0.7L73,80c0,0,0-0.1,0-0.1V66.8l-8.8-4.1C63.7,62.5,63.2,62.1,62.8,61.6z M76.7,79.2l16.2-3.4l-16.2-7.4V79.2
			z"/>
		<path class="st1" d="M96.8,93.7c0.4,0,0.9,0.3,1.6,0.9c0.9,0.7,1.4,1.4,1.4,2.2c1.4,3.7,1.4,7.3,0,10.8c-1,2.4-2.5,4.4-4.6,5.8
			c-2.1,1.4-4.5,2-7.1,1.6c-1.5-0.2-3-0.7-4.5-1.6c-1.6-0.9-3-2.1-4.2-3.6c-2-2.4-3.3-5.2-4-8.4c-0.4-2-0.5-4-0.2-6.1l-10.3-0.9
			c-0.7,0-1.4-0.4-2.3-1.4c-0.3-0.4-0.6-0.7-0.7-1.2c-0.2-0.4-0.2-0.7,0-0.9s0.3-0.2,0.6-0.2L96.8,93.7z M97,97.2l-17.8-1.5
			c-0.6,2.7-0.7,5.3-0.3,7.8c0.5,2.4,1.2,4.3,2.3,5.6c1.1,1.3,2.7,2.1,4.7,2.4c2,0.3,4-0.2,6-1.5c1.9-1.3,3.3-2.9,4.1-4.9
			c0.8-2,1.2-3.6,1.2-4.8S97.2,98,97,97.2z"/>
		<path class="st1" d="M97.2,117.1c0.3,0.1,0.6,0.3,1.1,0.6c0.4,0.3,0.8,0.7,1.2,1.2c0.4,0.5,0.5,0.9,0.5,1.3v21.7
			c0,0.5-0.3,0.6-0.9,0.4c-0.8-0.3-1.5-0.7-2-1.5c-0.5-0.7-0.8-1.3-0.8-1.6v-7.4l-31.5-2.7c-0.4,0-0.8-0.2-1.3-0.6
			c-0.5-0.4-0.9-0.8-1.2-1.2c-0.3-0.4-0.5-0.8-0.5-1c-0.2-0.6,0-0.8,0.5-0.8l34,2.9v-10.8C96.3,117,96.6,116.9,97.2,117.1z"/>
		<path class="st1" d="M99.9,168.6c0,0.3-0.2,0.5-0.5,0.5c-0.4,0-0.8-0.2-1.3-0.6c-0.5-0.4-1-0.8-1.3-1.3c-0.4-0.5-0.6-0.9-0.6-1.3
			v-16.2l-13.4-1.2c0,5.4,0,10.9,0,16.4c0,0.5-0.3,0.6-0.9,0.4c-0.8-0.3-1.5-0.7-2-1.5c-0.5-0.7-0.8-1.3-0.8-1.6c0-4.7,0-9.3,0-14
			l-13.8-1.2c0,6.1,0,12.3,0,18.5c0,0.5-0.3,0.6-0.9,0.4c-0.8-0.3-1.5-0.7-2-1.5c-0.5-0.7-0.8-1.3-0.8-1.6V144c0-0.2,0-0.4,0.1-0.5
			c0.1-0.1,0.3-0.2,0.6-0.1l34.5,2.9c0.4,0,0.8,0.2,1.3,0.6c0.9,0.7,1.5,1.4,1.7,2.2c0,0.2,0,0.3,0,0.3c0,0.1,0,0.1,0,0.2V168.6z"/>
		<path class="st1" d="M76,183.7c-0.6-1.9-0.9-3.5-0.9-4.9s0-2.5,0.1-3.2l-10.4-0.9c-0.4,0-0.8-0.2-1.3-0.6
			c-0.5-0.4-0.9-0.8-1.2-1.2c-0.3-0.4-0.5-0.8-0.5-1c-0.2-0.6,0-0.8,0.5-0.8l34.6,2.9c0.4,0,0.8,0.2,1.3,0.6
			c1.1,0.8,1.6,1.6,1.7,2.4c0.8,1.9,1.2,3.8,1.2,5.8c0,2-0.4,3.9-1.2,5.6c-1.1,2.3-2.5,4-4.4,5.2c-1.9,1.1-3.8,1.7-5.8,1.7
			c-3.8,0-7.2-1.8-10.3-5.3c-0.6-0.7-1.1-1.4-1.6-2.2l-12.7,5.4c-0.3,0.1-0.6,0-1.1-0.3s-1-0.6-1.4-1.1s-0.7-0.9-0.8-1.4
			c-0.1-0.4-0.1-0.7,0.2-0.8L76,183.7z M79.8,186.7c1.3,3.4,3.7,5,7.2,5c1.8,0,3.5-0.5,5.2-1.6c1.7-1,3-2.5,3.9-4.4
			c0.8-1.9,1.3-3.8,1.3-5.6c0-0.9-0.1-1.8-0.3-2.7L79.3,176c-0.8,3.3-0.7,6.5,0.2,9.6C79.8,186,79.9,186.3,79.8,186.7z"/>
		<path class="st1" d="M64.2,209.5l15.4,15.8c6.5,5.6,11,7.4,13.6,5.5c1.7-1.2,2.7-3.8,3-7.7c0.2-2.4-0.4-4.1-1.8-5.1
			c-1.4-1-3.3-1.9-5.8-2.6c-0.4-0.1-0.9-0.4-1.4-0.8c-0.5-0.4-0.9-0.9-1.2-1.4c-0.3-0.5-0.3-0.9-0.2-1.1c0.1-0.3,0.4-0.3,0.8-0.2
			c3.2,0.9,5.8,2.2,7.8,3.7s3.5,3.2,4.3,5c0.8,1.8,1.2,3.6,1,5.5c-0.7,8.4-4.6,11-11.7,7.6c-2.8-1.3-5.9-3.5-9.5-6.6
			c-0.1-0.1-0.2-0.2-0.3-0.3l-13-13.3c0,3,0,9.3,0,19c0,0.5-0.3,0.6-0.9,0.4c-0.8-0.3-1.5-0.7-2-1.5c-0.5-0.7-0.8-1.3-0.8-1.6
			c0-13.1,0-20.1,0-20.8c0,0,0.6,0.1,1.9,0.5L64.2,209.5z"/>
		<path class="st1" d="M97.2,247.2c0.3,0.1,0.6,0.3,1.1,0.6c0.4,0.3,0.8,0.7,1.2,1.2c0.4,0.5,0.5,0.9,0.5,1.3V272
			c0,0.5-0.3,0.6-0.9,0.4c-0.8-0.3-1.5-0.7-2-1.5c-0.5-0.7-0.8-1.3-0.8-1.6v-7.4l-31.5-2.7c-0.4,0-0.8-0.2-1.3-0.6
			c-0.5-0.4-0.9-0.8-1.2-1.2c-0.3-0.4-0.5-0.8-0.5-1c-0.2-0.6,0-0.8,0.5-0.8l34,2.9v-10.8C96.3,247.1,96.6,247,97.2,247.2z"/>
		<path class="st1" d="M98.2,277c0.5,0.4,0.9,0.8,1.2,1.2c0.3,0.4,0.5,0.8,0.5,1c0.2,0.6,0,0.8-0.5,0.8l-16.6-1.4v15.3l14.1,1.2
			c0.4,0,0.8,0.2,1.3,0.6c0.5,0.4,0.9,0.8,1.2,1.2c0.3,0.4,0.5,0.8,0.5,1c0.2,0.6,0,0.8-0.5,0.8l-34.6-2.9c-0.4,0-0.8-0.2-1.3-0.6
			c-0.5-0.4-0.9-0.8-1.2-1.2c-0.3-0.4-0.5-0.8-0.5-1c-0.2-0.6,0-0.8,0.5-0.8l16.8,1.4v-15.3l-14.3-1.2c-0.4,0-0.8-0.2-1.3-0.6
			c-0.5-0.4-0.9-0.8-1.2-1.2c-0.3-0.4-0.5-0.8-0.5-1c-0.2-0.6,0-0.8,0.5-0.8l34.6,2.9C97.2,276.4,97.7,276.6,98.2,277z"/>
		<path class="st1" d="M99.9,326.5c0,0.3-0.2,0.5-0.5,0.5c-0.4,0-0.8-0.2-1.3-0.6c-0.5-0.4-1-0.8-1.3-1.3c-0.4-0.5-0.6-0.9-0.6-1.3
			v-16.2l-13.4-1.2c0,5.4,0,10.9,0,16.4c0,0.5-0.3,0.6-0.9,0.4c-0.8-0.3-1.5-0.7-2-1.5c-0.5-0.7-0.8-1.3-0.8-1.6c0-4.7,0-9.3,0-14
			L65.4,305c0,6.1,0,12.3,0,18.5c0,0.5-0.3,0.6-0.9,0.4c-0.8-0.3-1.5-0.7-2-1.5c-0.5-0.7-0.8-1.3-0.8-1.6v-18.9c0-0.2,0-0.4,0.1-0.5
			c0.1-0.1,0.3-0.2,0.6-0.1l34.5,2.9c0.4,0,0.8,0.2,1.3,0.6c0.9,0.7,1.5,1.4,1.7,2.2c0,0.2,0,0.3,0,0.3c0,0.1,0,0.1,0,0.2V326.5z"/>
		<path class="st1" d="M97.8,340.3c0.5,0.3,1,0.7,1.4,1.2c0.4,0.5,0.7,0.9,0.7,1.3c0.1,0.4,0,0.6-0.3,0.7l-30.7,7.9l28.5,11.7
			c0.4,0.2,0.9,0.5,1.4,1c0.5,0.5,0.8,0.9,1,1.4c0.2,0.5,0.2,0.8,0,1c-0.2,0.2-0.5,0.2-0.9,0l-34.6-14.2c-0.8-0.3-1.4-0.8-1.8-1.3
			c-0.4-0.6-0.6-1.1-0.6-1.5l0-0.7l34.6-8.9C96.9,339.9,97.3,340,97.8,340.3z"/>
		<path class="st1" d="M98.2,372.7c0.5,0.4,0.9,0.8,1.2,1.2c0.3,0.4,0.5,0.8,0.5,1c0.2,0.6,0,0.8-0.5,0.8l-34.6-2.9
			c-0.4,0-0.8-0.2-1.3-0.6c-0.5-0.4-0.9-0.8-1.2-1.2c-0.3-0.4-0.5-0.8-0.5-1c-0.2-0.6,0-0.8,0.5-0.8l34.6,2.9
			C97.2,372.1,97.7,372.3,98.2,372.7z"/>
		<path class="st1" d="M90.8,407.2c-0.5-0.3-1-0.6-1.4-1.1c-0.4-0.5-0.7-0.9-0.9-1.4c-0.1-0.4-0.1-0.7,0.1-0.9
			c2.1-1.1,3.8-2.6,5.2-4.5c1.4-1.9,2.2-4,2.4-6.1c0.1-1.3,0-2.5-0.3-3.5c-0.3-1-0.7-1.7-1.1-2.1c-0.4-0.4-1.2-0.7-2.2-0.9
			c-1.1-0.2-2.2,0-3.5,0.5c-1.3,0.5-2.3,1.4-3.2,2.6c-0.8,1.2-1.6,2.6-2.2,4.4c0,0.1-0.2,0.7-0.6,1.9c-0.4,1.2-0.7,2-1,2.6
			c-1.8,4.1-4.4,6.4-7.8,7c-2.3,0.4-4.6-0.2-6.8-1.7c-1.3-0.8-2.4-1.9-3.3-3.1c-2.3-3-3.2-6.4-2.5-9.9c0.4-2.4,1.4-4.6,3-6.6
			c1.6-2,3.4-3.5,5.7-4.6c0.3-0.1,0.6-0.1,1.1,0.2c0.5,0.3,0.9,0.6,1.4,1.1s0.7,0.9,0.9,1.4s0.1,0.7-0.2,0.8
			c-2.1,1.1-3.9,2.5-5.4,4.4c-1.5,1.9-2.4,3.8-2.7,5.9c-0.4,2-0.3,3.7,0.2,5c0.5,1.3,1,2.2,1.7,2.6c1.2,0.8,2.6,1,4.3,0.8
			c3-0.4,5.4-2.6,7.1-6.4c0.3-0.6,0.6-1.4,0.9-2.6c1-3,2-5.1,3-6.4c1-1.3,2.2-2.3,3.6-2.9c1.5-0.6,3.1-0.8,4.8-0.5
			c1.8,0.3,3.5,1.3,5.1,2.9c2.9,2.8,4.2,6.2,3.8,10c-0.3,2.4-1.1,4.6-2.6,6.6c-1.5,2-3.3,3.6-5.4,4.8
			C91.7,407.5,91.3,407.4,90.8,407.2z"/>
		<path class="st1" d="M98.2,414.5c0.5,0.4,0.9,0.8,1.2,1.2c0.3,0.4,0.5,0.8,0.5,1c0.2,0.6,0,0.8-0.5,0.8l-34.6-2.9
			c-0.4,0-0.8-0.2-1.3-0.6c-0.5-0.4-0.9-0.8-1.2-1.2c-0.3-0.4-0.5-0.8-0.5-1c-0.2-0.6,0-0.8,0.5-0.8l34.6,2.9
			C97.2,413.9,97.7,414.1,98.2,414.5z"/>
		<path class="st1" d="M81.6,442.4c-0.4,0.7-1.2,1.5-2.3,2.5c-1.1,0.9-2.4,1.6-4,1.9c-1.6,0.3-3.1,0.2-4.6-0.5
			c-1.5-0.6-2.8-1.5-4-2.6c-2.7-2.5-4.4-6-5-10.3c-0.4-3-0.4-6.6,0-10.6c0-0.3,0.2-0.5,0.6-0.4l34.6,3c1.4,0.4,2.3,1.1,2.8,2
			c0.2,0.4,0.3,0.8,0.2,1.2c-0.3,3-0.7,5.8-1.2,8.4c-0.5,2.5-1.3,4.5-2.3,5.8c-1.9,2.6-4.1,3.9-6.7,3.9
			C86.9,446.7,84.2,445.2,81.6,442.4z M67.7,442c0.2,0.2,0.8,0.5,1.6,0.9c0.8,0.3,1.9,0.4,3.2,0.1c1.3-0.2,2.6-0.9,3.9-2.1
			c1.3-1.1,2-2,2.1-2.7c0.1-1,0.1-2.3,0.1-3.8s0.1-4,0.2-7.3L65.3,426c-0.6,6.8-0.1,11.7,1.5,14.8C67.2,441.4,67.5,441.8,67.7,442z
			 M82.8,427.5l-0.4,8.3c-0.1,1.2-0.1,2.3-0.2,3.2c0.1,0.9,0.5,1.8,1.4,2.7c0.9,0.9,1.9,1.3,3.2,1.2c2.4-0.1,4.4-1.1,5.9-3.2
			c1.1-1.5,2-3.7,2.5-6.5c0.3-1.3,0.5-2.9,0.7-4.7L82.8,427.5z"/>
		<path class="st1" d="M61.7,451.3c0-0.4,0.2-0.5,0.6-0.5l34.6,2.9c0.4,0,0.8,0.2,1.3,0.6c0.5,0.4,0.9,0.8,1.2,1.2
			c0.3,0.4,0.5,0.8,0.5,1c0.2,0.6,0,0.8-0.5,0.8l-34-2.9v16.9c0,0.5-0.3,0.6-0.9,0.4c-0.8-0.3-1.5-0.7-2-1.5
			c-0.5-0.7-0.8-1.3-0.8-1.6V451.3z"/>
		<path class="st1" d="M99.9,502c0,0.3-0.2,0.5-0.5,0.5c-0.4,0-0.8-0.2-1.3-0.6c-0.5-0.4-1-0.8-1.3-1.3c-0.4-0.5-0.6-0.9-0.6-1.3
			v-16.2L82.8,482c0,5.4,0,10.9,0,16.4c0,0.5-0.3,0.6-0.9,0.4c-0.8-0.3-1.5-0.7-2-1.5c-0.5-0.7-0.8-1.3-0.8-1.6c0-4.7,0-9.3,0-14
			l-13.8-1.2c0,6.1,0,12.3,0,18.5c0,0.5-0.3,0.6-0.9,0.4c-0.8-0.3-1.5-0.7-2-1.5c-0.5-0.7-0.8-1.3-0.8-1.6v-18.9
			c0-0.2,0-0.4,0.1-0.5c0.1-0.1,0.3-0.2,0.6-0.1l34.5,2.9c0.4,0,0.8,0.2,1.3,0.6c0.9,0.7,1.5,1.4,1.7,2.2c0,0.2,0,0.3,0,0.3
			c0,0.1,0,0.1,0,0.2V502z"/>
		<path class="st1" d="M61.7,515c0-0.4,0.2-0.5,0.6-0.5l34.6,2.9c0.4,0,0.8,0.2,1.3,0.6c0.5,0.4,0.9,0.8,1.2,1.2
			c0.3,0.4,0.5,0.8,0.5,1c0.2,0.6,0,0.8-0.5,0.8l-34-2.9v16.9c0,0.5-0.3,0.6-0.9,0.4c-0.8-0.3-1.5-0.7-2-1.5
			c-0.5-0.7-0.8-1.3-0.8-1.6V515z"/>
		<path class="st1" d="M99.9,558.5c-0.3,8.4-6.6,12-19,10.8c-5.4-0.5-9.7-2-12.9-4.3c-4.4-3.2-6.5-7.4-6.3-12.6
			c0.3-8.4,6.1-12.1,17.5-10.9c3.1,0.3,5.8,0.8,8.1,1.5c2.3,0.7,4.4,1.8,6.2,3.2C97.9,549.4,100.1,553.5,99.9,558.5z M96.3,555.8
			c0.1-3.4-0.8-5.8-2.8-7.2c-1.1-0.8-2.6-1.5-4.7-2.1c-2-0.7-4.4-1.1-7.1-1.4c-10.7-1.1-16.1,2.3-16.4,10c-0.1,3.5,0.8,6,2.7,7.4
			c1,0.7,2.3,1.3,4.2,1.9c1.8,0.6,3.9,1,6.2,1.2C90.1,566.8,96,563.5,96.3,555.8z"/>
		<path class="st1" d="M99.9,590.8c-0.3,8.4-6.6,12-19,10.8c-5.4-0.5-9.7-2-12.9-4.3c-4.4-3.2-6.5-7.4-6.3-12.6
			c0.3-8.4,6.1-12.1,17.5-10.9c3.1,0.3,5.8,0.8,8.1,1.5c2.3,0.7,4.4,1.8,6.2,3.2C97.9,581.7,100.1,585.8,99.9,590.8z M96.3,588.1
			c0.1-3.4-0.8-5.8-2.8-7.2c-1.1-0.8-2.6-1.5-4.7-2.1c-2-0.7-4.4-1.1-7.1-1.4c-10.7-1.1-16.1,2.3-16.4,10c-0.1,3.5,0.8,6,2.7,7.4
			c1,0.7,2.3,1.3,4.2,1.9c1.8,0.6,3.9,1,6.2,1.2C90.1,599.1,96,595.8,96.3,588.1z"/>
		<path class="st1" d="M96.8,608c0.4,0,0.9,0.3,1.6,0.9c0.9,0.7,1.4,1.4,1.4,2.2c1.4,3.7,1.4,7.3,0,10.8c-1,2.4-2.5,4.4-4.6,5.8
			c-2.1,1.4-4.5,2-7.1,1.6c-1.5-0.2-3-0.7-4.5-1.6c-1.6-0.9-3-2.1-4.2-3.6c-2-2.4-3.3-5.2-4-8.4c-0.4-2-0.5-4-0.2-6.1l-10.3-0.9
			c-0.7,0-1.4-0.4-2.3-1.4c-0.3-0.4-0.6-0.7-0.7-1.2c-0.2-0.4-0.2-0.7,0-0.9c0.1-0.1,0.3-0.2,0.6-0.2L96.8,608z M97,611.5L79.3,610
			c-0.6,2.7-0.7,5.3-0.3,7.8c0.5,2.4,1.2,4.3,2.3,5.6c1.1,1.3,2.7,2.1,4.7,2.4c2,0.3,4-0.2,6-1.5c1.9-1.3,3.3-2.9,4.1-4.9
			s1.2-3.6,1.2-4.8C97.2,613.2,97.2,612.2,97,611.5z"/>
		<path class="st1" d="M3.2-0.8L18.7,15c6.5,5.6,11,7.4,13.6,5.5c1.7-1.2,2.7-3.8,3-7.7c0.2-2.4-0.4-4.1-1.8-5.1
			c-1.4-1-3.3-1.9-5.8-2.6c-0.4-0.1-0.9-0.4-1.4-0.8c-0.5-0.4-0.9-0.9-1.2-1.4c-0.3-0.5-0.3-0.9-0.2-1.1c0.1-0.3,0.4-0.3,0.8-0.2
			c3.2,0.9,5.8,2.2,7.8,3.7s3.5,3.2,4.3,5c0.8,1.8,1.2,3.6,1,5.5c-0.7,8.4-4.6,11-11.7,7.6c-2.8-1.3-5.9-3.5-9.5-6.6
			c-0.1-0.1-0.2-0.2-0.3-0.3L4.4,3.1c0,3,0,9.3,0,19c0,0.5-0.3,0.6-0.9,0.4c-0.8-0.3-1.5-0.7-2-1.5c-0.5-0.7-0.8-1.3-0.8-1.6
			c0-13.1,0-20.1,0-20.8c0,0,0.6,0.1,1.9,0.5L3.2-0.8z"/>
		<path class="st1" d="M6.9,28.8c1.4,1.2,1.4,2.4-0.1,3.5c-1.2,0.9-2.5,0.8-3.6-0.2c-1.4-1.2-1.4-2.3,0-3.2
			C4.6,27.9,5.8,27.9,6.9,28.8z"/>
		<path class="st1" d="M3.2,37.3l15.4,15.8c6.5,5.6,11,7.4,13.6,5.5c1.7-1.2,2.7-3.8,3-7.7c0.2-2.4-0.4-4.1-1.8-5.1
			c-1.4-1-3.3-1.9-5.8-2.6c-0.4-0.1-0.9-0.4-1.4-0.8c-0.5-0.4-0.9-0.9-1.2-1.4c-0.3-0.5-0.3-0.9-0.2-1.1c0.1-0.3,0.4-0.3,0.8-0.2
			c3.2,0.9,5.8,2.2,7.8,3.7s3.5,3.2,4.3,5c0.8,1.8,1.2,3.6,1,5.5c-0.7,8.4-4.6,11-11.7,7.6c-2.8-1.3-5.9-3.5-9.5-6.6
			c-0.1-0.1-0.2-0.2-0.3-0.3l-13-13.3c0,3,0,9.3,0,19c0,0.5-0.3,0.6-0.9,0.4c-0.8-0.3-1.5-0.7-2-1.5c-0.5-0.7-0.8-1.3-0.8-1.6
			c0-13.1,0-20.1,0-20.8c0,0,0.6,0.1,1.9,0.5L3.2,37.3z"/>
		<path class="st1" d="M36.2,75.1c0.3,0.1,0.6,0.3,1.1,0.6c0.4,0.3,0.8,0.7,1.2,1.2c0.4,0.5,0.5,0.9,0.5,1.3v21.7
			c0,0.5-0.3,0.6-0.9,0.4c-0.8-0.3-1.5-0.7-2-1.5c-0.5-0.7-0.8-1.3-0.8-1.6v-7.4L3.8,87.1c-0.4,0-0.8-0.2-1.3-0.6
			c-0.5-0.4-0.9-0.8-1.2-1.2c-0.3-0.4-0.5-0.8-0.5-1c-0.2-0.6,0-0.8,0.5-0.8l34,2.9V75.4C35.3,75,35.6,74.9,36.2,75.1z"/>
		<path class="st1" d="M38.9,119.5c-0.3,8.4-6.6,12-19,10.8c-5.4-0.5-9.7-2-12.9-4.3c-4.4-3.2-6.5-7.4-6.3-12.6
			c0.3-8.4,6.1-12.1,17.5-10.9c3.1,0.3,5.8,0.8,8.1,1.5c2.3,0.7,4.4,1.8,6.2,3.2C36.9,110.3,39.1,114.4,38.9,119.5z M35.3,116.8
			c0.1-3.4-0.8-5.8-2.8-7.2c-1.1-0.8-2.6-1.5-4.7-2.1c-2-0.7-4.4-1.1-7.1-1.4c-10.7-1.1-16.1,2.3-16.4,10c-0.1,3.5,0.8,6,2.7,7.4
			c1,0.7,2.3,1.3,4.2,1.9c1.8,0.6,3.9,1,6.2,1.2C29.1,127.7,35,124.5,35.3,116.8z"/>
		<path class="st1" d="M27.2,171.3c-0.5-0.4-0.9-0.8-1.2-1.2c-0.3-0.4-0.4-0.8-0.5-1c-0.2-0.6,0-0.8,0.5-0.8c1.3,0.1,2.7-0.1,4-0.6
			c1.3-0.6,2.4-1.4,3.2-2.5c0.9-1.1,1.4-2.4,1.7-3.7c0.3-1.4,0.2-2.7-0.1-4c-1.1-4-5-6.8-11.8-8.4c-5.1-1.2-9.3-0.9-12.7,1
			c-1.9,1-3.4,2.4-4.5,4.3c-1.1,1.8-1.6,3.8-1.5,5.8c0.1,2.1,0.5,3.7,1.4,5c0.9,1.3,2.1,2.2,3.6,2.7c0.4,0.2,0.9,0.5,1.4,1
			c0.5,0.5,0.8,0.9,1,1.4c0.2,0.5,0.2,0.8,0,1c-0.2,0.2-0.5,0.2-0.9,0.1c-1.3-0.5-2.7-1.3-4-2.4c-1.3-1-2.5-2.2-3.4-3.6
			c-1.7-2.4-2.6-4.9-2.7-7.5c-0.1-2.5,0.5-4.8,1.6-6.8c1.2-2,2.7-3.5,4.8-4.6c3.7-2,8.3-2.3,13.9-1c6.4,1.5,11.2,4.3,14.6,8.5
			c2.7,3.4,3.7,6.8,3.1,10.2c-0.3,1.6-0.9,3-1.9,4.2c-1,1.2-2.2,2.1-3.6,2.8c-1.4,0.6-3,0.9-4.6,0.7
			C28.2,171.9,27.8,171.7,27.2,171.3z"/>
		<path class="st1" d="M1.8,178.1c-0.5-0.5-0.8-0.9-1-1.4c-0.2-0.4-0.2-0.8,0-0.9c0.2-0.2,0.5-0.2,1,0.1l34.6,15.8l1.7,1.4
			c1.1,1.2,1.3,1.9,0.5,2L4,202.4c-0.3,0.1-0.7-0.1-1.2-0.4c-0.5-0.3-1-0.7-1.4-1.2c-0.4-0.5-0.6-0.9-0.7-1.3
			c-0.1-0.4,0-0.6,0.3-0.7l11-2.3c0,0,0-0.1,0-0.1v-13.1l-8.8-4.1C2.7,178.9,2.2,178.6,1.8,178.1z M15.7,195.7l16.2-3.4l-16.2-7.4
			V195.7z"/>
		<path class="st1" d="M35.8,210.2c0.4,0,0.9,0.3,1.6,0.9c0.9,0.7,1.4,1.4,1.4,2.2c1.4,3.7,1.4,7.3,0,10.8c-1,2.4-2.5,4.4-4.6,5.8
			c-2.1,1.4-4.5,2-7.1,1.6c-1.5-0.2-3-0.7-4.5-1.6c-1.6-0.9-3-2.1-4.2-3.6c-2-2.4-3.3-5.2-4-8.4c-0.4-2-0.5-4-0.2-6.1l-10.3-0.9
			c-0.7,0-1.4-0.4-2.3-1.4c-0.3-0.4-0.6-0.7-0.7-1.2c-0.2-0.4-0.2-0.7,0-0.9s0.3-0.2,0.6-0.2L35.8,210.2z M36,213.7l-17.8-1.5
			c-0.6,2.7-0.7,5.3-0.3,7.8c0.5,2.4,1.2,4.3,2.3,5.6c1.1,1.3,2.7,2.1,4.7,2.4c2,0.3,4-0.2,6-1.5c1.9-1.3,3.3-2.9,4.1-4.9
			c0.8-2,1.2-3.6,1.2-4.8S36.2,214.5,36,213.7z"/>
		<path class="st1" d="M36.2,233.6c0.3,0.1,0.6,0.3,1.1,0.6c0.4,0.3,0.8,0.7,1.2,1.2c0.4,0.5,0.5,0.9,0.5,1.3v21.7
			c0,0.5-0.3,0.6-0.9,0.4c-0.8-0.3-1.5-0.7-2-1.5c-0.5-0.7-0.8-1.3-0.8-1.6v-7.4l-31.5-2.7c-0.4,0-0.8-0.2-1.3-0.6
			c-0.5-0.4-0.9-0.8-1.2-1.2c-0.3-0.4-0.5-0.8-0.5-1c-0.2-0.6,0-0.8,0.5-0.8l34,2.9v-10.8C35.3,233.5,35.6,233.4,36.2,233.6z"/>
		<path class="st1" d="M37.2,284.5c0.5,0.4,0.9,0.8,1.2,1.2c0.3,0.4,0.4,0.8,0.5,1c0.2,0.6,0,0.8-0.5,0.8l-27.2-2.4
			c-0.1,0-0.2,0-0.3,0c-1.6-0.5-3.1-1.3-4.5-2.3c-2.3-1.7-3.9-3.7-4.7-5.9s-1.2-4.7-1-7.4c0.4-6.6,3.8-9.4,10.2-8.6l24.9,2
			c0.4,0,0.8,0.2,1.3,0.6c0.5,0.4,0.9,0.8,1.2,1.2c0.3,0.4,0.5,0.7,0.5,1c0.2,0.6,0,0.8-0.5,0.8l-25-2c-5.7-0.7-8.7,1.8-9,7.7
			c-0.1,2.3,0.1,4.1,0.6,5.5c0.5,1.3,1,2.2,1.6,2.7c0.6,0.4,1.3,0.8,2.3,1.1l27,2.4C36.2,283.9,36.7,284.1,37.2,284.5z"/>
		<path class="st1" d="M15,302.3c-0.6-1.9-0.9-3.5-0.9-4.9s0-2.5,0.1-3.2l-10.4-0.9c-0.4,0-0.8-0.2-1.3-0.6
			c-0.5-0.4-0.9-0.8-1.2-1.2c-0.3-0.4-0.5-0.8-0.5-1c-0.2-0.6,0-0.8,0.5-0.8l34.6,2.9c0.4,0,0.8,0.2,1.3,0.6
			c1.1,0.8,1.6,1.6,1.7,2.4c0.8,1.9,1.2,3.8,1.2,5.8c0,2-0.4,3.9-1.2,5.6c-1.1,2.3-2.5,4-4.4,5.2c-1.9,1.1-3.8,1.7-5.8,1.7
			c-3.8,0-7.2-1.8-10.3-5.3c-0.6-0.7-1.1-1.4-1.6-2.2l-12.7,5.4c-0.3,0.1-0.6,0-1.1-0.3s-1-0.6-1.4-1.1s-0.7-0.9-0.8-1.4
			c-0.1-0.4-0.1-0.7,0.2-0.8L15,302.3z M18.8,305.3c1.3,3.4,3.7,5,7.2,5c1.8,0,3.5-0.5,5.2-1.6c1.7-1,3-2.5,3.9-4.4
			c0.8-1.9,1.3-3.8,1.3-5.6c0-0.9-0.1-1.8-0.3-2.7l-17.9-1.5c-0.8,3.3-0.7,6.5,0.2,9.6C18.8,304.6,18.9,304.9,18.8,305.3z"/>
		<path class="st1" d="M38.9,343.5c0,0.3-0.2,0.5-0.5,0.5c-0.4,0-0.8-0.2-1.3-0.6c-0.5-0.4-1-0.8-1.3-1.3c-0.4-0.5-0.6-0.9-0.6-1.3
			v-16.2l-13.4-1.2c0,5.4,0,10.9,0,16.4c0,0.5-0.3,0.6-0.9,0.4c-0.8-0.3-1.5-0.7-2-1.5c-0.5-0.7-0.8-1.3-0.8-1.6c0-4.7,0-9.3,0-14
			L4.4,322c0,6.1,0,12.3,0,18.5c0,0.5-0.3,0.6-0.9,0.4c-0.8-0.3-1.5-0.7-2-1.5c-0.5-0.7-0.8-1.3-0.8-1.6v-18.9c0-0.2,0-0.4,0.1-0.5
			c0.1-0.1,0.3-0.2,0.6-0.1l34.5,2.9c0.4,0,0.8,0.2,1.3,0.6c0.9,0.7,1.5,1.4,1.7,2.2c0,0.2,0,0.3,0,0.3c0,0.1,0,0.1,0,0.2V343.5z"/>
		<path class="st1" d="M2.5,385.7c-0.5-0.4-0.9-0.8-1.2-1.2c-0.3-0.4-0.5-0.8-0.5-1c-0.2-0.6,0-0.8,0.5-0.8l29.6,2.5L10,373.3
			c-1-0.7-1.7-1.3-2-1.8c-0.4-0.5-0.5-0.8-0.5-1.1c0-0.2,0.2-0.4,0.6-0.5l20.9-8.4l-25.2-2.6c-0.4,0-0.8-0.2-1.3-0.6
			c-0.5-0.4-0.9-0.8-1.2-1.2c-0.3-0.4-0.4-0.8-0.5-1c-0.1-0.6,0.1-0.8,0.6-0.8l34.6,3.6c0.4,0,0.8,0.4,1.2,1
			c0.4,0.6,0.8,1.2,1.1,1.8l0.4,0.9l-25.2,10.2l23.3,13.2c1.3,0.8,1.9,1.6,1.9,2.6c0,0.2-0.1,0.5-0.2,0.7l-34.6-3
			C3.4,386.3,3,386,2.5,385.7z"/>
		<path class="st1" d="M38.9,409.3c-0.3,8.4-6.6,12-19,10.8c-5.4-0.5-9.7-2-12.9-4.3c-4.4-3.2-6.5-7.4-6.3-12.6
			c0.3-8.4,6.1-12.1,17.5-10.9c3.1,0.3,5.8,0.8,8.1,1.5c2.3,0.7,4.4,1.8,6.2,3.2C36.9,400.2,39.1,404.3,38.9,409.3z M35.3,406.6
			c0.1-3.4-0.8-5.8-2.8-7.2c-1.1-0.8-2.6-1.5-4.7-2.1c-2-0.7-4.4-1.1-7.1-1.4c-10.7-1.1-16.1,2.3-16.4,10c-0.1,3.5,0.8,6,2.7,7.4
			c1,0.7,2.3,1.3,4.2,1.9c1.8,0.6,3.9,1,6.2,1.2C29.1,417.6,35,414.3,35.3,406.6z"/>
		<path class="st1" d="M36.2,422.5c0.3,0.1,0.6,0.3,1.1,0.6c0.4,0.3,0.8,0.7,1.2,1.2c0.4,0.5,0.5,0.9,0.5,1.3v21.7
			c0,0.5-0.3,0.6-0.9,0.4c-0.8-0.3-1.5-0.7-2-1.5c-0.5-0.7-0.8-1.3-0.8-1.6v-7.4l-31.5-2.7c-0.4,0-0.8-0.2-1.3-0.6
			c-0.5-0.4-0.9-0.8-1.2-1.2s-0.5-0.8-0.5-1c-0.2-0.6,0-0.8,0.5-0.8l34,2.9v-10.8C35.3,422.5,35.6,422.3,36.2,422.5z"/>
		<path class="st1" d="M37.2,453.2c0.5,0.4,0.9,0.8,1.2,1.2c0.3,0.4,0.5,0.8,0.5,1c0.2,0.6,0,0.8-0.5,0.8l-34.6-2.9
			c-0.4,0-0.8-0.2-1.3-0.6c-0.5-0.4-0.9-0.8-1.2-1.2c-0.3-0.4-0.5-0.8-0.5-1c-0.2-0.6,0-0.8,0.5-0.8l34.6,2.9
			C36.2,452.6,36.7,452.8,37.2,453.2z"/>
		<path class="st1" d="M38.9,478.8c-0.3,8.4-6.6,12-19,10.8c-5.4-0.5-9.7-2-12.9-4.3c-4.4-3.2-6.5-7.4-6.3-12.6
			c0.3-8.4,6.1-12.1,17.5-10.9c3.1,0.3,5.8,0.8,8.1,1.5c2.3,0.7,4.4,1.8,6.2,3.2C36.9,469.6,39.1,473.8,38.9,478.8z M35.3,476.1
			c0.1-3.4-0.8-5.8-2.8-7.2c-1.1-0.8-2.6-1.5-4.7-2.1c-2-0.7-4.4-1.1-7.1-1.4c-10.7-1.1-16.1,2.3-16.4,10c-0.1,3.5,0.8,6,2.7,7.4
			c1,0.7,2.3,1.3,4.2,1.9c1.8,0.6,3.9,1,6.2,1.2C29.1,487,35,483.8,35.3,476.1z"/>
		<path class="st1" d="M2.4,496c-0.5-0.4-0.9-0.8-1.2-1.2c-0.3-0.4-0.4-0.8-0.5-1c-0.2-0.6,0-0.8,0.5-0.8l34.6,3.4
			c1.5,1.2,2.4,2.1,2.7,2.6c0.3,0.5,0.3,0.9,0.1,1L9.9,514.1l26,2.3c0.4,0,0.8,0.2,1.3,0.6c0.5,0.4,0.9,0.8,1.2,1.2
			c0.3,0.4,0.4,0.8,0.5,1c0.2,0.6,0,0.8-0.5,0.8l-34.6-3c-0.4,0-0.8-0.4-1.3-1c-0.5-0.6-0.8-1.2-1.1-1.8l-0.4-0.9l28.9-14.3
			l-26.1-2.5C3.4,496.6,2.9,496.4,2.4,496z"/>
	</g>
</g>
</svg>
