<?xml version="1.0" encoding="utf-8"?>
<!-- Generator: Adobe Illustrator 19.2.0, SVG Export Plug-In . SVG Version: 6.00 Build 0)  -->
<svg version="1.1" id="Laag_1" xmlns="http://www.w3.org/2000/svg" xmlns:xlink="http://www.w3.org/1999/xlink" x="0px" y="0px"
	 viewBox="0 0 100.6 630" style="enable-background:new 0 0 100.6 630;" xml:space="preserve">
<style type="text/css">
	.st0{fill:#FFFFFF;}
	.st1{fill:#1D1D1B;}
</style>
<title>chap1</title>
<g>
	<g>
		
			<rect x="-264.7" y="265.4" transform="matrix(4.489901e-011 1 -1 4.489901e-011 365.9411 265.3906)" class="st0" width="630" height="100.6"/>
	</g>
	<g>
		<path class="st1" d="M89.1,27.1c-0.5-0.4-0.9-0.8-1.2-1.2c-0.3-0.4-0.4-0.8-0.5-1c-0.2-0.6,0-0.8,0.5-0.8c1.3,0.1,2.7-0.1,4-0.6
			c1.3-0.6,2.4-1.4,3.2-2.5c0.9-1.1,1.4-2.4,1.7-3.7c0.3-1.4,0.2-2.7-0.1-4c-1.1-4-5-6.8-11.8-8.4c-5.1-1.2-9.3-0.9-12.7,1
			c-1.9,1-3.4,2.4-4.5,4.3c-1.1,1.8-1.6,3.8-1.5,5.8c0.1,2.1,0.5,3.7,1.4,5c0.9,1.3,2.1,2.2,3.6,2.7c0.4,0.2,0.9,0.5,1.4,1
			c0.5,0.5,0.8,0.9,1,1.4c0.2,0.5,0.2,0.8,0,1c-0.2,0.2-0.5,0.2-0.9,0.1c-1.3-0.5-2.7-1.3-4-2.4c-1.3-1-2.5-2.2-3.4-3.6
			c-1.7-2.4-2.6-4.9-2.7-7.5c-0.1-2.5,0.5-4.8,1.6-6.8c1.2-2,2.7-3.5,4.8-4.6c3.7-2,8.3-2.3,13.9-1C89.1,2.8,94,5.7,97.4,9.9
			c2.7,3.4,3.7,6.8,3.1,10.2c-0.3,1.6-0.9,3-1.9,4.2c-1,1.2-2.2,2.1-3.6,2.8c-1.4,0.6-3,0.9-4.6,0.7C90,27.7,89.6,27.5,89.1,27.1z"
			/>
		<path class="st1" d="M99,35.4c0.5,0.4,0.9,0.8,1.2,1.2c0.3,0.4,0.5,0.8,0.5,1c0.2,0.6,0,0.8-0.5,0.8L83.5,37v15.3l14.1,1.2
			c0.4,0,0.8,0.2,1.3,0.6c0.5,0.4,0.9,0.8,1.2,1.2c0.3,0.4,0.5,0.8,0.5,1c0.2,0.6,0,0.8-0.5,0.8l-34.6-2.9c-0.4,0-0.8-0.2-1.3-0.6
			c-0.5-0.4-0.9-0.8-1.2-1.2c-0.3-0.4-0.5-0.8-0.5-1c-0.2-0.6,0-0.8,0.5-0.8L79.9,52V36.7l-14.3-1.2c-0.4,0-0.8-0.2-1.3-0.6
			c-0.5-0.4-0.9-0.8-1.2-1.2c-0.3-0.4-0.5-0.8-0.5-1c-0.2-0.6,0-0.8,0.5-0.8l34.6,2.9C98,34.8,98.5,35,99,35.4z"/>
		<path class="st1" d="M63.6,61.7c-0.5-0.5-0.8-0.9-1-1.4c-0.2-0.4-0.2-0.8,0-0.9c0.2-0.2,0.5-0.2,1,0.1l34.6,15.8l1.7,1.4
			c1.1,1.2,1.3,1.9,0.5,2L65.8,86c-0.3,0.1-0.7-0.1-1.2-0.4c-0.5-0.3-1-0.7-1.4-1.2c-0.4-0.5-0.6-0.9-0.7-1.3
			c-0.1-0.4,0-0.6,0.3-0.7l11-2.3c0,0,0-0.1,0-0.1V66.8L65,62.7C64.5,62.5,64.1,62.2,63.6,61.7z M77.5,79.3l16.2-3.4l-16.2-7.4V79.3
			z"/>
		<path class="st1" d="M97.6,93.8c0.4,0,0.9,0.3,1.6,0.9c0.9,0.7,1.4,1.4,1.4,2.2c1.4,3.7,1.4,7.3,0,10.8c-1,2.4-2.5,4.4-4.6,5.8
			c-2.1,1.4-4.5,2-7.1,1.6c-1.5-0.2-3-0.7-4.5-1.6c-1.6-0.9-3-2.1-4.2-3.6c-2-2.4-3.3-5.2-4-8.4c-0.4-2-0.5-4-0.2-6.1l-10.3-0.9
			c-0.7,0-1.4-0.4-2.3-1.4c-0.3-0.4-0.6-0.7-0.7-1.2c-0.2-0.4-0.2-0.7,0-0.9s0.3-0.2,0.6-0.2L97.6,93.8z M97.8,97.2l-17.8-1.5
			c-0.6,2.7-0.7,5.3-0.3,7.8c0.5,2.4,1.2,4.3,2.3,5.6c1.1,1.3,2.7,2.1,4.7,2.4c2,0.3,4-0.2,6-1.5c1.9-1.3,3.3-2.9,4.1-4.9
			c0.8-2,1.2-3.6,1.2-4.8S98,98,97.8,97.2z"/>
		<path class="st1" d="M98,117.1c0.3,0.1,0.6,0.3,1.1,0.6c0.4,0.3,0.8,0.7,1.2,1.2c0.4,0.5,0.5,0.9,0.5,1.3v21.7
			c0,0.5-0.3,0.6-0.9,0.4c-0.8-0.3-1.5-0.7-2-1.5c-0.5-0.7-0.8-1.3-0.8-1.6v-7.4l-31.5-2.7c-0.4,0-0.8-0.2-1.3-0.6
			c-0.5-0.4-0.9-0.8-1.2-1.2c-0.3-0.4-0.5-0.8-0.5-1c-0.2-0.6,0-0.8,0.5-0.8l34,2.9v-10.8C97.1,117,97.4,116.9,98,117.1z"/>
		<path class="st1" d="M100.7,168.7c0,0.3-0.2,0.5-0.5,0.5c-0.4,0-0.8-0.2-1.3-0.6c-0.5-0.4-1-0.8-1.3-1.3c-0.4-0.5-0.6-0.9-0.6-1.3
			v-16.2l-13.4-1.2c0,5.4,0,10.9,0,16.4c0,0.5-0.3,0.6-0.9,0.4c-0.8-0.3-1.5-0.7-2-1.5c-0.5-0.7-0.8-1.3-0.8-1.6c0-4.7,0-9.3,0-14
			l-13.8-1.2c0,6.1,0,12.3,0,18.5c0,0.5-0.3,0.6-0.9,0.4c-0.8-0.3-1.5-0.7-2-1.5c-0.5-0.7-0.8-1.3-0.8-1.6v-18.9
			c0-0.2,0-0.4,0.1-0.5c0.1-0.1,0.3-0.2,0.6-0.1l34.5,2.9c0.4,0,0.8,0.2,1.3,0.6c0.9,0.7,1.5,1.4,1.7,2.2c0,0.2,0,0.3,0,0.3
			c0,0.1,0,0.1,0,0.2V168.7z"/>
		<path class="st1" d="M76.8,183.7c-0.6-1.9-0.9-3.5-0.9-4.9s0-2.5,0.1-3.2l-10.4-0.9c-0.4,0-0.8-0.2-1.3-0.6
			c-0.5-0.4-0.9-0.8-1.2-1.2c-0.3-0.4-0.5-0.8-0.5-1c-0.2-0.6,0-0.8,0.5-0.8l34.6,2.9c0.4,0,0.8,0.2,1.3,0.6
			c1.1,0.8,1.6,1.6,1.7,2.4c0.8,1.9,1.2,3.8,1.2,5.8c0,2-0.4,3.9-1.2,5.6c-1.1,2.3-2.5,4-4.4,5.2c-1.9,1.1-3.8,1.7-5.8,1.7
			c-3.8,0-7.2-1.8-10.3-5.3c-0.6-0.7-1.1-1.4-1.6-2.2l-12.7,5.4c-0.3,0.1-0.6,0-1.1-0.3s-1-0.6-1.4-1.1s-0.7-0.9-0.8-1.4
			c-0.1-0.4-0.1-0.7,0.2-0.8L76.8,183.7z M80.7,186.7c1.3,3.4,3.7,5,7.2,5c1.8,0,3.5-0.5,5.2-1.6c1.7-1,3-2.5,3.9-4.4
			c0.8-1.9,1.3-3.8,1.3-5.6c0-0.9-0.1-1.8-0.3-2.7L80.1,176c-0.8,3.3-0.7,6.5,0.2,9.6C80.6,186,80.7,186.4,80.7,186.7z"/>
		<path class="st1" d="M92.4,211.7c-0.2-0.4-0.2-0.8,0-0.9c0.2-0.2,0.5-0.2,1,0c0.5,0.2,0.9,0.6,1.4,1l4.8,4.9l1,1.1
			c0.7,1,0.5,1.4-0.5,1.3l-34.6-2.9c-0.4,0-0.8-0.2-1.3-0.6c-0.5-0.4-0.9-0.8-1.2-1.2c-0.3-0.4-0.5-0.7-0.5-1
			c-0.2-0.6,0-0.8,0.5-0.8l32.5,2.7l-2.2-2.3C92.9,212.6,92.6,212.1,92.4,211.7z"/>
		<path class="st1" d="M98,240.5c0.3,0.1,0.6,0.3,1.1,0.6c0.4,0.3,0.8,0.7,1.2,1.2c0.4,0.5,0.5,0.9,0.5,1.3v21.7
			c0,0.5-0.3,0.6-0.9,0.4c-0.8-0.3-1.5-0.7-2-1.5c-0.5-0.7-0.8-1.3-0.8-1.6v-7.4l-31.5-2.7c-0.4,0-0.8-0.2-1.3-0.6
			c-0.5-0.4-0.9-0.8-1.2-1.2c-0.3-0.4-0.5-0.8-0.5-1c-0.2-0.6,0-0.8,0.5-0.8l34,2.9v-10.8C97.1,240.4,97.4,240.3,98,240.5z"/>
		<path class="st1" d="M100.7,284.9c-0.3,8.4-6.6,12-19,10.8c-5.4-0.5-9.7-2-12.9-4.3c-4.4-3.2-6.5-7.4-6.3-12.6
			c0.3-8.4,6.1-12.1,17.5-10.9c3.1,0.3,5.8,0.8,8.1,1.5c2.3,0.7,4.4,1.8,6.2,3.2C98.8,275.7,100.9,279.8,100.7,284.9z M97.1,282.2
			c0.1-3.4-0.8-5.8-2.8-7.2c-1.1-0.8-2.6-1.5-4.7-2.1c-2-0.7-4.4-1.1-7.1-1.4c-10.7-1.1-16.1,2.3-16.4,10c-0.1,3.5,0.8,6,2.7,7.4
			c1,0.7,2.3,1.3,4.2,1.9c1.8,0.6,3.9,1,6.2,1.2C90.9,293.1,96.8,289.9,97.1,282.2z"/>
		<path class="st1" d="M63.1,308.9l34.6,3.4c1.2,0.2,2.1,0.8,2.7,1.8c0.2,0.4,0.4,0.8,0.4,1.3c0.9,14.5-5.1,21.6-17.8,21.2
			c-4.8-0.2-8.9-1.5-12.2-4c-3.3-2.5-5.6-5.7-6.8-9.5c-1.2-3.8-1.7-8.4-1.3-13.7C62.5,309,62.7,308.9,63.1,308.9z M66.1,312.6
			c-0.3,4.7,0.1,8.5,1.1,11.5c1,3,2.2,5,3.8,6.1c2.2,1.6,5.3,2.5,9.4,2.7c5.6,0.2,9.8-1.2,12.6-4c2.8-2.8,4.2-7.3,4.3-13.2
			L66.1,312.6z"/>
		<path class="st1" d="M100.7,365.2c0,0.3-0.2,0.5-0.5,0.5c-0.4,0-0.8-0.2-1.3-0.6c-0.5-0.4-1-0.8-1.3-1.3c-0.4-0.5-0.6-0.9-0.6-1.3
			v-16.2l-13.4-1.2c0,5.4,0,10.9,0,16.4c0,0.5-0.3,0.6-0.9,0.4c-0.8-0.3-1.5-0.7-2-1.5c-0.5-0.7-0.8-1.3-0.8-1.6c0-4.7,0-9.3,0-14
			l-13.8-1.2c0,6.1,0,12.3,0,18.5c0,0.5-0.3,0.6-0.9,0.4c-0.8-0.3-1.5-0.7-2-1.5c-0.5-0.7-0.8-1.3-0.8-1.6v-18.9
			c0-0.2,0-0.4,0.1-0.5c0.1-0.1,0.3-0.2,0.6-0.1l34.5,2.9c0.4,0,0.8,0.2,1.3,0.6c0.9,0.7,1.5,1.4,1.7,2.2c0,0.2,0,0.3,0,0.3
			c0,0.1,0,0.1,0,0.2V365.2z"/>
		<path class="st1" d="M97.6,370.6c0.4,0,0.9,0.3,1.6,0.9c0.7,0.5,1.2,1.2,1.4,2c0,0.2,0,0.3,0,0.3c0,0.1,0,0.1,0,0.2v18.9
			c0,0.5-0.3,0.6-0.9,0.4c-0.8-0.3-1.5-0.7-2-1.5c-0.5-0.7-0.8-1.3-0.8-1.6V374l-13.4-1.2c0,5.4,0,10.9,0,16.4
			c0,0.5-0.3,0.6-0.9,0.4c-0.8-0.3-1.5-0.7-2-1.5c-0.5-0.7-0.8-1.3-0.8-1.6c0-4.7,0-9.3,0-14l-14.3-1.2c-0.7,0-1.4-0.4-2.3-1.4
			c-0.3-0.4-0.6-0.7-0.7-1.2c-0.2-0.4-0.2-0.7,0-0.9s0.3-0.2,0.6-0.2L97.6,370.6z"/>
		<path class="st1" d="M99,399.9c0.5,0.4,0.9,0.8,1.2,1.2c0.3,0.4,0.5,0.8,0.5,1c0.2,0.6,0,0.8-0.5,0.8L65.6,400
			c-0.4,0-0.8-0.2-1.3-0.6c-0.5-0.4-0.9-0.8-1.2-1.2c-0.3-0.4-0.5-0.8-0.5-1c-0.2-0.6,0-0.8,0.5-0.8l34.6,2.9
			C98,399.3,98.5,399.5,99,399.9z"/>
		<path class="st1" d="M64.2,410.3c-0.5-0.4-0.9-0.8-1.2-1.2c-0.3-0.4-0.4-0.8-0.5-1c-0.2-0.6,0-0.8,0.5-0.8l34.6,3.4
			c1.5,1.2,2.4,2.1,2.7,2.6c0.3,0.5,0.3,0.9,0.1,1l-28.8,14.2l26,2.3c0.4,0,0.8,0.2,1.3,0.6c0.5,0.4,0.9,0.8,1.2,1.2
			c0.3,0.4,0.4,0.8,0.5,1c0.2,0.6,0,0.8-0.5,0.8l-34.6-3c-0.4,0-0.8-0.4-1.3-1c-0.5-0.6-0.8-1.2-1.1-1.8l-0.4-0.9l28.9-14.3
			L65.6,411C65.2,410.9,64.7,410.7,64.2,410.3z"/>
		<path class="st1" d="M100.7,461.7c0,0.3-0.2,0.5-0.5,0.5c-0.4,0-0.8-0.2-1.3-0.6c-0.5-0.4-1-0.8-1.3-1.3c-0.4-0.5-0.6-0.9-0.6-1.3
			v-16.2l-13.4-1.2c0,5.4,0,10.9,0,16.4c0,0.5-0.3,0.6-0.9,0.4c-0.8-0.3-1.5-0.7-2-1.5c-0.5-0.7-0.8-1.3-0.8-1.6c0-4.7,0-9.3,0-14
			l-13.8-1.2c0,6.1,0,12.3,0,18.5c0,0.5-0.3,0.6-0.9,0.4c-0.8-0.3-1.5-0.7-2-1.5c-0.5-0.7-0.8-1.3-0.8-1.6v-18.9
			c0-0.2,0-0.4,0.1-0.5c0.1-0.1,0.3-0.2,0.6-0.1l34.5,2.9c0.4,0,0.8,0.2,1.3,0.6c0.9,0.7,1.5,1.4,1.7,2.2c0,0.2,0,0.3,0,0.3
			c0,0.1,0,0.1,0,0.2V461.7z"/>
		<path class="st1" d="M63.6,476.3c-0.5-0.5-0.8-0.9-1-1.4c-0.2-0.4-0.2-0.8,0-0.9c0.2-0.2,0.5-0.2,1,0.1l34.6,15.8l1.7,1.4
			c1.1,1.2,1.3,1.9,0.5,2l-34.6,7.2c-0.3,0.1-0.7-0.1-1.2-0.4c-0.5-0.3-1-0.7-1.4-1.2c-0.4-0.5-0.6-0.9-0.7-1.3
			c-0.1-0.4,0-0.6,0.3-0.7l11-2.3c0,0,0-0.1,0-0.1v-13.1l-8.8-4.1C64.5,477.1,64.1,476.7,63.6,476.3z M77.5,493.9l16.2-3.4
			l-16.2-7.4V493.9z"/>
		<path class="st1" d="M62.5,515.9c0-0.4,0.2-0.5,0.6-0.5l34.6,2.9c0.4,0,0.8,0.2,1.3,0.6c0.5,0.4,0.9,0.8,1.2,1.2
			c0.3,0.4,0.5,0.8,0.5,1c0.2,0.6,0,0.8-0.5,0.8l-34-2.9v16.9c0,0.5-0.3,0.6-0.9,0.4c-0.8-0.3-1.5-0.7-2-1.5
			c-0.5-0.7-0.8-1.3-0.8-1.6V515.9z"/>
		<path class="st1" d="M100.7,559.5c-0.3,8.4-6.6,12-19,10.8c-5.4-0.5-9.7-2-12.9-4.3c-4.4-3.2-6.5-7.4-6.3-12.6
			c0.3-8.4,6.1-12.1,17.5-10.9c3.1,0.3,5.8,0.8,8.1,1.5c2.3,0.7,4.4,1.8,6.2,3.2C98.8,550.3,100.9,554.5,100.7,559.5z M97.1,556.8
			c0.1-3.4-0.8-5.8-2.8-7.2c-1.1-0.8-2.6-1.5-4.7-2.1c-2-0.7-4.4-1.1-7.1-1.4c-10.7-1.1-16.1,2.3-16.4,10c-0.1,3.5,0.8,6,2.7,7.4
			c1,0.7,2.3,1.3,4.2,1.9c1.8,0.6,3.9,1,6.2,1.2C90.9,567.7,96.8,564.5,97.1,556.8z"/>
		<path class="st1" d="M100.7,591.8c-0.3,8.4-6.6,12-19,10.8c-5.4-0.5-9.7-2-12.9-4.3c-4.4-3.2-6.5-7.4-6.3-12.6
			c0.3-8.4,6.1-12.1,17.5-10.9c3.1,0.3,5.8,0.8,8.1,1.5c2.3,0.7,4.4,1.8,6.2,3.2C98.8,582.6,100.9,586.8,100.7,591.8z M97.1,589.1
			c0.1-3.4-0.8-5.8-2.8-7.2c-1.1-0.8-2.6-1.5-4.7-2.1c-2-0.7-4.4-1.1-7.1-1.4c-10.7-1.1-16.1,2.3-16.4,10c-0.1,3.5,0.8,6,2.7,7.4
			c1,0.7,2.3,1.3,4.2,1.9c1.8,0.6,3.9,1,6.2,1.2C90.9,600,96.8,596.8,97.1,589.1z"/>
		<path class="st1" d="M97.6,609c0.4,0,0.9,0.3,1.6,0.9c0.9,0.7,1.4,1.4,1.4,2.2c1.4,3.7,1.4,7.3,0,10.8c-1,2.4-2.5,4.4-4.6,5.8
			c-2.1,1.4-4.5,2-7.1,1.6c-1.5-0.2-3-0.7-4.5-1.6c-1.6-0.9-3-2.1-4.2-3.6c-2-2.4-3.3-5.2-4-8.4c-0.4-2-0.5-4-0.2-6.1l-10.3-0.9
			c-0.7,0-1.4-0.4-2.3-1.4c-0.3-0.4-0.6-0.7-0.7-1.2c-0.2-0.4-0.2-0.7,0-0.9c0.1-0.1,0.3-0.2,0.6-0.2L97.6,609z M97.8,612.4
			l-17.8-1.5c-0.6,2.7-0.7,5.3-0.3,7.8c0.5,2.4,1.2,4.3,2.3,5.6c1.1,1.3,2.7,2.1,4.7,2.4c2,0.3,4-0.2,6-1.5c1.9-1.3,3.3-2.9,4.1-4.9
			s1.2-3.6,1.2-4.8C98,614.2,98,613.2,97.8,612.4z"/>
		<path class="st1" d="M31.4,1.4c-0.2-0.4-0.2-0.8,0-0.9c0.2-0.2,0.5-0.2,1,0c0.5,0.2,0.9,0.6,1.4,1l4.8,4.9l1,1.1
			c0.7,1,0.5,1.4-0.5,1.3L4.6,6C4.2,6,3.8,5.8,3.3,5.4C2.8,5,2.4,4.6,2.1,4.2c-0.3-0.4-0.5-0.7-0.5-1c-0.2-0.6,0-0.8,0.5-0.8
			l32.5,2.7l-2.2-2.3C31.9,2.3,31.6,1.9,31.4,1.4z"/>
		<path class="st1" d="M7.7,12.1c1.4,1.2,1.4,2.4-0.1,3.5c-1.2,0.9-2.5,0.8-3.6-0.2c-1.4-1.2-1.4-2.3,0-3.2
			C5.4,11.2,6.6,11.2,7.7,12.1z"/>
		<path class="st1" d="M31.1,25.9c-0.5-0.5-0.8-0.9-1-1.4c-0.2-0.4-0.2-0.8,0-0.9c0.2-0.2,0.6-0.1,1.3,0.2c0.7,0.3,1.4,0.8,2.3,1.4
			c4,2.9,6,6.9,6,12c0,6.7-3.3,9.1-9.9,7.2c-3.4-0.9-6.1-2.7-8.1-5.2c-1.4,4.1-4.4,5.7-9.2,4.7c-2.1-0.4-4-1.2-5.6-2.4
			c-3.6-2.6-5.4-6.1-5.4-10.7c0-6,2.6-9.1,7.7-9.5c0.3,0,0.7,0.1,1.2,0.5c0.5,0.4,0.9,0.7,1.2,1.1c0.3,0.4,0.5,0.7,0.6,1
			c0.2,0.6,0.1,1-0.3,1c-4.5,0.3-6.8,3.2-6.9,8.5c0,1.2,0.1,2.1,0.3,3c0.4,1.2,0.9,2.1,1.6,2.6c0.7,0.5,1.8,0.9,3.2,1.2
			c2.9,0.6,5,0.1,6.5-1.6c1.5-1.7,2.2-4.6,2.1-8.7c0-0.1,0-0.2,0-0.2c0,0,0-0.1,0-0.1c0-0.4,0.4-0.6,1-0.3c0.8,0.3,1.5,0.8,2,1.5
			c0.5,0.7,0.7,1.3,0.7,1.6c-0.1,2,0,3.6,0.5,4.8c0.5,1.2,1,2,1.7,2.5c0.7,0.5,1.7,0.9,3,1.3c2.7,0.7,4.8,0.6,6.1-0.4
			c1.4-1,2.1-3,2.1-6c0-2-0.2-3.5-0.7-4.5c-0.5-1.1-1-1.8-1.4-2.1c-0.5-0.3-0.9-0.6-1.4-0.8C32,26.7,31.6,26.3,31.1,25.9z"/>
		<path class="st1" d="M15.8,70.8c-0.6-1.9-0.9-3.5-0.9-4.9s0-2.5,0.1-3.2L4.6,61.8c-0.4,0-0.8-0.2-1.3-0.6
			c-0.5-0.4-0.9-0.8-1.2-1.2c-0.3-0.4-0.5-0.8-0.5-1c-0.2-0.6,0-0.8,0.5-0.8l34.6,2.9c0.4,0,0.8,0.2,1.3,0.6
			c1.1,0.8,1.6,1.6,1.7,2.4c0.8,1.9,1.2,3.8,1.2,5.8c0,2-0.4,3.9-1.2,5.6c-1.1,2.3-2.5,4-4.4,5.2c-1.9,1.1-3.8,1.7-5.8,1.7
			c-3.8,0-7.2-1.8-10.3-5.3c-0.6-0.7-1.1-1.4-1.6-2.2L4.9,80.3c-0.3,0.1-0.6,0-1.1-0.3s-1-0.6-1.4-1.1S1.7,78,1.6,77.5
			c-0.1-0.4-0.1-0.7,0.2-0.8L15.8,70.8z M19.7,73.8c1.3,3.4,3.7,5,7.2,5c1.8,0,3.5-0.5,5.2-1.6c1.7-1,3-2.5,3.9-4.4
			c0.8-1.9,1.3-3.8,1.3-5.6c0-0.9-0.1-1.8-0.3-2.7l-17.9-1.5c-0.8,3.3-0.7,6.5,0.2,9.6C19.6,73.1,19.7,73.4,19.7,73.8z"/>
		<path class="st1" d="M39.7,112c0,0.3-0.2,0.5-0.5,0.5c-0.4,0-0.8-0.2-1.3-0.6c-0.5-0.4-1-0.8-1.3-1.3c-0.4-0.5-0.6-0.9-0.6-1.3
			V93.2L22.6,92c0,5.4,0,10.9,0,16.4c0,0.5-0.3,0.6-0.9,0.4c-0.8-0.3-1.5-0.7-2-1.5c-0.5-0.7-0.8-1.3-0.8-1.6c0-4.7,0-9.3,0-14
			L5.2,90.5c0,6.1,0,12.3,0,18.5c0,0.5-0.3,0.6-0.9,0.4c-0.8-0.3-1.5-0.7-2-1.5c-0.5-0.7-0.8-1.3-0.8-1.6V87.4c0-0.2,0-0.4,0.1-0.5
			c0.1-0.1,0.3-0.2,0.6-0.1l34.5,2.9c0.4,0,0.8,0.2,1.3,0.6c0.9,0.7,1.5,1.4,1.7,2.2c0,0.2,0,0.3,0,0.3c0,0.1,0,0.1,0,0.2V112z"/>
		<path class="st1" d="M36.6,117.4c0.4,0,0.9,0.3,1.6,0.9c0.9,0.7,1.4,1.4,1.4,2.2c1.4,3.7,1.4,7.3,0,10.8c-1,2.4-2.5,4.4-4.6,5.8
			c-2.1,1.4-4.5,2-7.1,1.6c-1.5-0.2-3-0.7-4.5-1.6c-1.6-0.9-3-2.1-4.2-3.6c-2-2.4-3.3-5.2-4-8.4c-0.4-2-0.5-4-0.2-6.1l-10.3-0.9
			c-0.7,0-1.4-0.4-2.3-1.4c-0.3-0.4-0.6-0.7-0.7-1.2c-0.2-0.4-0.2-0.7,0-0.9s0.3-0.2,0.6-0.2L36.6,117.4z M36.8,120.9l-17.8-1.5
			c-0.6,2.7-0.7,5.3-0.3,7.8c0.5,2.4,1.2,4.3,2.3,5.6c1.1,1.3,2.7,2.1,4.7,2.4c2,0.3,4-0.2,6-1.5c1.9-1.3,3.3-2.9,4.1-4.9
			c0.8-2,1.2-3.6,1.2-4.8S37,121.6,36.8,120.9z"/>
		<path class="st1" d="M39.7,167c0,0.3-0.2,0.5-0.5,0.5c-0.4,0-0.8-0.2-1.3-0.6c-0.5-0.4-1-0.8-1.3-1.3c-0.4-0.5-0.6-0.9-0.6-1.3
			v-16.2L22.6,147c0,5.4,0,10.9,0,16.4c0,0.5-0.3,0.6-0.9,0.4c-0.8-0.3-1.5-0.7-2-1.5c-0.5-0.7-0.8-1.3-0.8-1.6c0-4.7,0-9.3,0-14
			l-13.8-1.2c0,6.1,0,12.3,0,18.5c0,0.5-0.3,0.6-0.9,0.4c-0.8-0.3-1.5-0.7-2-1.5c-0.5-0.7-0.8-1.3-0.8-1.6v-18.9
			c0-0.2,0-0.4,0.1-0.5c0.1-0.1,0.3-0.2,0.6-0.1l34.5,2.9c0.4,0,0.8,0.2,1.3,0.6c0.9,0.7,1.5,1.4,1.7,2.2c0,0.2,0,0.3,0,0.3
			c0,0.1,0,0.1,0,0.2V167z"/>
		<path class="st1" d="M37,168.4c0.3,0.1,0.6,0.3,1.1,0.6c0.4,0.3,0.8,0.7,1.2,1.2c0.4,0.5,0.5,0.9,0.5,1.3v21.7
			c0,0.5-0.3,0.6-0.9,0.4c-0.8-0.3-1.5-0.7-2-1.5c-0.5-0.7-0.8-1.3-0.8-1.6v-7.4l-31.5-2.7c-0.4,0-0.8-0.2-1.3-0.6
			c-0.5-0.4-0.9-0.8-1.2-1.2c-0.3-0.4-0.5-0.8-0.5-1c-0.2-0.6,0-0.8,0.5-0.8l34,2.9v-10.8C36.1,168.3,36.4,168.2,37,168.4z"/>
		<path class="st1" d="M38,199c0.5,0.4,0.9,0.8,1.2,1.2c0.3,0.4,0.5,0.8,0.5,1c0.2,0.6,0,0.8-0.5,0.8l-34.6-2.9
			c-0.4,0-0.8-0.2-1.3-0.6c-0.5-0.4-0.9-0.8-1.2-1.2c-0.3-0.4-0.5-0.8-0.5-1c-0.2-0.6,0-0.8,0.5-0.8l34.6,2.9
			C37,198.5,37.5,198.7,38,199z"/>
		<path class="st1" d="M37,205.5c0.3,0.1,0.6,0.3,1.1,0.6c0.4,0.3,0.8,0.7,1.2,1.2c0.4,0.5,0.5,0.9,0.5,1.3v21.7
			c0,0.5-0.3,0.6-0.9,0.4c-0.8-0.3-1.5-0.7-2-1.5c-0.5-0.7-0.8-1.3-0.8-1.6v-7.4l-31.5-2.7c-0.4,0-0.8-0.2-1.3-0.6
			c-0.5-0.4-0.9-0.8-1.2-1.2c-0.3-0.4-0.5-0.8-0.5-1c-0.2-0.6,0-0.8,0.5-0.8l34,2.9v-10.8C36.1,205.5,36.4,205.3,37,205.5z"/>
		<path class="st1" d="M38,236.2c0.5,0.4,0.9,0.8,1.2,1.2c0.3,0.4,0.5,0.8,0.5,1c0.2,0.6,0,0.8-0.5,0.8l-34.6-2.9
			c-0.4,0-0.8-0.2-1.3-0.6c-0.5-0.4-0.9-0.8-1.2-1.2c-0.3-0.4-0.5-0.8-0.5-1c-0.2-0.6,0-0.8,0.5-0.8l34.6,2.9
			C37,235.6,37.5,235.8,38,236.2z"/>
		<path class="st1" d="M39.7,261.8c-0.3,8.4-6.6,12-19,10.8c-5.4-0.5-9.7-2-12.9-4.3c-4.4-3.2-6.5-7.4-6.3-12.6
			c0.3-8.4,6.1-12.1,17.5-10.9c3.1,0.3,5.8,0.8,8.1,1.5c2.3,0.7,4.4,1.8,6.2,3.2C37.8,252.6,39.9,256.8,39.7,261.8z M36.1,259.1
			c0.1-3.4-0.8-5.8-2.8-7.2c-1.1-0.8-2.6-1.5-4.7-2.1c-2-0.7-4.4-1.1-7.1-1.4c-10.7-1.1-16.1,2.3-16.4,10c-0.1,3.5,0.8,6,2.7,7.4
			c1,0.7,2.3,1.3,4.2,1.9c1.8,0.6,3.9,1,6.2,1.2C29.9,270,35.8,266.8,36.1,259.1z"/>
		<path class="st1" d="M3.2,279c-0.5-0.4-0.9-0.8-1.2-1.2c-0.3-0.4-0.4-0.8-0.5-1c-0.2-0.6,0-0.8,0.5-0.8l34.6,3.4
			c1.5,1.2,2.4,2.1,2.7,2.6c0.3,0.5,0.3,0.9,0.1,1l-28.8,14.2l26,2.3c0.4,0,0.8,0.2,1.3,0.6c0.5,0.4,0.9,0.8,1.2,1.2
			c0.3,0.4,0.4,0.8,0.5,1c0.2,0.6,0,0.8-0.5,0.8l-34.6-3c-0.4,0-0.8-0.4-1.3-1c-0.5-0.6-0.8-1.2-1.1-1.8l-0.4-0.9l28.9-14.3
			l-26.1-2.5C4.2,279.6,3.7,279.3,3.2,279z"/>
		<path class="st1" d="M2.6,317.2c-0.5-0.5-0.8-0.9-1-1.4c-0.2-0.4-0.2-0.8,0-0.9c0.2-0.2,0.5-0.2,1,0.1l34.6,15.8l1.7,1.4
			c1.1,1.2,1.3,1.9,0.5,2l-34.6,7.2c-0.3,0.1-0.7-0.1-1.2-0.4c-0.5-0.3-1-0.7-1.4-1.2c-0.4-0.5-0.6-0.9-0.7-1.3
			c-0.1-0.4,0-0.6,0.3-0.7l11-2.3c0,0,0-0.1,0-0.1v-13.1L4,318.3C3.5,318.1,3.1,317.7,2.6,317.2z M16.5,334.8l16.2-3.4L16.5,324
			V334.8z"/>
		<path class="st1" d="M30.6,373.3c-0.5-0.3-1-0.6-1.4-1.1s-0.7-0.9-0.9-1.4c-0.1-0.4-0.1-0.7,0.1-0.9c2.1-1.1,3.8-2.6,5.2-4.5
			c1.4-1.9,2.2-4,2.4-6.1c0.1-1.3,0-2.5-0.3-3.5c-0.3-1-0.7-1.7-1.1-2.1c-0.4-0.4-1.2-0.7-2.2-0.9c-1.1-0.2-2.2,0-3.5,0.5
			c-1.3,0.5-2.3,1.4-3.2,2.6c-0.8,1.2-1.6,2.6-2.2,4.4c0,0.1-0.2,0.7-0.6,1.9c-0.4,1.2-0.7,2-1,2.6c-1.8,4.1-4.4,6.4-7.8,7
			c-2.3,0.4-4.6-0.2-6.8-1.7c-1.3-0.8-2.4-1.9-3.3-3.1c-2.3-3-3.2-6.4-2.5-9.9c0.4-2.4,1.4-4.6,3-6.6c1.6-2,3.4-3.5,5.7-4.6
			c0.3-0.1,0.6-0.1,1.1,0.2c0.5,0.3,0.9,0.6,1.4,1.1s0.7,0.9,0.9,1.4s0.1,0.7-0.2,0.8c-2.1,1.1-3.9,2.5-5.4,4.4
			c-1.5,1.9-2.4,3.8-2.7,5.9c-0.4,2-0.3,3.7,0.2,5c0.5,1.3,1,2.2,1.7,2.6c1.2,0.8,2.6,1,4.3,0.8c3-0.4,5.4-2.6,7.1-6.4
			c0.3-0.6,0.6-1.4,0.9-2.6c1-3,2-5.1,3-6.4c1-1.3,2.2-2.3,3.6-2.9c1.5-0.6,3.1-0.8,4.8-0.5c1.8,0.3,3.5,1.3,5.1,2.9
			c2.9,2.8,4.2,6.2,3.8,10c-0.3,2.4-1.1,4.6-2.6,6.6c-1.5,2-3.3,3.6-5.4,4.8C31.5,373.7,31.1,373.6,30.6,373.3z"/>
		<path class="st1" d="M36.6,389.3c0.4,0,0.9,0.3,1.6,0.9c0.9,0.7,1.4,1.4,1.4,2.2c1.4,3.7,1.4,7.3,0,10.8c-1,2.4-2.5,4.4-4.6,5.8
			c-2.1,1.4-4.5,2-7.1,1.6c-1.5-0.2-3-0.7-4.5-1.6c-1.6-0.9-3-2.1-4.2-3.6c-2-2.4-3.3-5.2-4-8.4c-0.4-2-0.5-4-0.2-6.1L4.7,390
			c-0.7,0-1.4-0.4-2.3-1.4c-0.3-0.4-0.6-0.7-0.7-1.2c-0.2-0.4-0.2-0.7,0-0.9s0.3-0.2,0.6-0.2L36.6,389.3z M36.8,392.8l-17.8-1.5
			c-0.6,2.7-0.7,5.3-0.3,7.8c0.5,2.4,1.2,4.3,2.3,5.6c1.1,1.3,2.7,2.1,4.7,2.4c2,0.3,4-0.2,6-1.5c1.9-1.3,3.3-2.9,4.1-4.9
			s1.2-3.6,1.2-4.8C37,394.5,37,393.5,36.8,392.8z"/>
		<path class="st1" d="M38,438.3c0.5,0.4,0.9,0.8,1.2,1.2c0.3,0.4,0.4,0.8,0.5,1c0.2,0.6,0,0.8-0.5,0.8L12,438.9c-0.1,0-0.2,0-0.3,0
			c-1.6-0.5-3.1-1.3-4.5-2.3c-2.3-1.7-3.9-3.7-4.7-5.9c-0.8-2.2-1.2-4.7-1-7.4c0.4-6.6,3.8-9.4,10.2-8.6l24.9,2
			c0.4,0,0.8,0.2,1.3,0.6c0.5,0.4,0.9,0.8,1.2,1.2c0.3,0.4,0.5,0.7,0.5,1c0.2,0.6,0,0.8-0.5,0.8l-25-2c-5.7-0.7-8.7,1.8-9,7.7
			c-0.1,2.3,0.1,4.1,0.6,5.5c0.5,1.3,1,2.2,1.6,2.7c0.6,0.4,1.3,0.8,2.3,1.1l27,2.4C37,437.7,37.5,437.9,38,438.3z"/>
		<path class="st1" d="M3.2,446.4c-0.5-0.4-0.9-0.8-1.2-1.2c-0.3-0.4-0.4-0.8-0.5-1c-0.2-0.6,0-0.8,0.5-0.8l34.6,3.4
			c1.5,1.2,2.4,2.1,2.7,2.6c0.3,0.5,0.3,0.9,0.1,1l-28.8,14.2l26,2.3c0.4,0,0.8,0.2,1.3,0.6c0.5,0.4,0.9,0.8,1.2,1.2
			c0.3,0.4,0.4,0.8,0.5,1c0.2,0.6,0,0.8-0.5,0.8l-34.6-3c-0.4,0-0.8-0.4-1.3-1c-0.5-0.6-0.8-1.2-1.1-1.8l-0.4-0.9l28.9-14.3L4.6,447
			C4.2,447,3.7,446.8,3.2,446.4z"/>
		<path class="st1" d="M38,476.9c0.5,0.4,0.9,0.8,1.2,1.2c0.3,0.4,0.5,0.8,0.5,1c0.2,0.6,0,0.8-0.5,0.8L4.6,477
			c-0.4,0-0.8-0.2-1.3-0.6c-0.5-0.4-0.9-0.8-1.2-1.2c-0.3-0.4-0.5-0.8-0.5-1c-0.2-0.6,0-0.8,0.5-0.8l34.6,2.9
			C37,476.3,37.5,476.5,38,476.9z"/>
		<path class="st1" d="M30.6,511.4c-0.5-0.3-1-0.6-1.4-1.1c-0.4-0.5-0.7-0.9-0.9-1.4c-0.1-0.4-0.1-0.7,0.1-0.9
			c2.1-1.1,3.8-2.6,5.2-4.5c1.4-1.9,2.2-4,2.4-6.1c0.1-1.3,0-2.5-0.3-3.5c-0.3-1-0.7-1.7-1.1-2.1c-0.4-0.4-1.2-0.7-2.2-0.9
			c-1.1-0.2-2.2,0-3.5,0.5c-1.3,0.5-2.3,1.4-3.2,2.6c-0.8,1.2-1.6,2.6-2.2,4.4c0,0.1-0.2,0.7-0.6,1.9c-0.4,1.2-0.7,2-1,2.6
			c-1.8,4.1-4.4,6.4-7.8,7c-2.3,0.4-4.6-0.2-6.8-1.7c-1.3-0.8-2.4-1.9-3.3-3.1c-2.3-3-3.2-6.4-2.5-9.9c0.4-2.4,1.4-4.6,3-6.6
			s3.4-3.5,5.7-4.6c0.3-0.1,0.6-0.1,1.1,0.2c0.5,0.3,0.9,0.6,1.4,1.1c0.4,0.5,0.7,0.9,0.9,1.4s0.1,0.7-0.2,0.8
			c-2.1,1.1-3.9,2.5-5.4,4.4c-1.5,1.9-2.4,3.8-2.7,5.9c-0.4,2-0.3,3.7,0.2,5c0.5,1.3,1,2.2,1.7,2.6c1.2,0.8,2.6,1,4.3,0.8
			c3-0.4,5.4-2.6,7.1-6.4c0.3-0.6,0.6-1.4,0.9-2.6c1-3,2-5.1,3-6.4s2.2-2.3,3.6-2.9c1.5-0.6,3.1-0.8,4.8-0.5
			c1.8,0.3,3.5,1.3,5.1,2.9c2.9,2.8,4.2,6.2,3.8,10c-0.3,2.4-1.1,4.6-2.6,6.6c-1.5,2-3.3,3.6-5.4,4.8
			C31.5,511.7,31.1,511.6,30.6,511.4z"/>
		<path class="st1" d="M38,517.9c0.5,0.4,0.9,0.8,1.2,1.2s0.5,0.8,0.5,1c0.2,0.6,0,0.8-0.5,0.8l-16.6-1.4v15.3l14.1,1.2
			c0.4,0,0.8,0.2,1.3,0.6c0.5,0.4,0.9,0.8,1.2,1.2c0.3,0.4,0.5,0.8,0.5,1c0.2,0.6,0,0.8-0.5,0.8l-34.6-2.9c-0.4,0-0.8-0.2-1.3-0.6
			c-0.5-0.4-0.9-0.8-1.2-1.2s-0.5-0.8-0.5-1c-0.2-0.6,0-0.8,0.5-0.8l16.8,1.4v-15.3L4.6,518c-0.4,0-0.8-0.2-1.3-0.6
			c-0.5-0.4-0.9-0.8-1.2-1.2c-0.3-0.4-0.5-0.8-0.5-1c-0.2-0.6,0-0.8,0.5-0.8l34.6,2.9C37,517.3,37.5,517.5,38,517.9z"/>
		<path class="st1" d="M3.3,571.8c-0.5-0.4-0.9-0.8-1.2-1.2c-0.3-0.4-0.5-0.8-0.5-1c-0.2-0.6,0-0.8,0.5-0.8l29.6,2.5l-20.9-11.9
			c-1-0.7-1.7-1.3-2-1.8c-0.4-0.5-0.5-0.8-0.5-1.1c0-0.2,0.2-0.4,0.6-0.5l20.9-8.4l-25.2-2.6c-0.4,0-0.8-0.2-1.3-0.6
			c-0.5-0.4-0.9-0.8-1.2-1.2c-0.3-0.4-0.4-0.8-0.5-1c-0.1-0.6,0.1-0.8,0.6-0.8l34.6,3.6c0.4,0,0.8,0.4,1.2,1
			c0.4,0.6,0.8,1.2,1.1,1.8l0.4,0.9l-25.2,10.2l23.3,13.2c1.3,0.8,1.9,1.6,1.9,2.6c0,0.2-0.1,0.5-0.2,0.7l-34.6-3
			C4.2,572.4,3.8,572.2,3.3,571.8z"/>
		<path class="st1" d="M39.7,602.6c0,0.3-0.2,0.5-0.5,0.5c-0.4,0-0.8-0.2-1.3-0.6c-0.5-0.4-1-0.8-1.3-1.3c-0.4-0.5-0.6-0.9-0.6-1.3
			v-16.2l-13.4-1.2c0,5.4,0,10.9,0,16.4c0,0.5-0.3,0.6-0.9,0.4c-0.8-0.3-1.5-0.7-2-1.5c-0.5-0.7-0.8-1.3-0.8-1.6c0-4.7,0-9.3,0-14
			l-13.8-1.2c0,6.1,0,12.3,0,18.5c0,0.5-0.3,0.6-0.9,0.4c-0.8-0.3-1.5-0.7-2-1.5c-0.5-0.7-0.8-1.3-0.8-1.6V578c0-0.2,0-0.4,0.1-0.5
			c0.1-0.1,0.3-0.2,0.6-0.1l34.5,2.9c0.4,0,0.8,0.2,1.3,0.6c0.9,0.7,1.5,1.4,1.7,2.2c0,0.2,0,0.3,0,0.3c0,0.1,0,0.1,0,0.2V602.6z"/>
		<path class="st1" d="M3.2,608c-0.5-0.4-0.9-0.8-1.2-1.2c-0.3-0.4-0.4-0.8-0.5-1c-0.2-0.6,0-0.8,0.5-0.8l34.6,3.4
			c1.5,1.2,2.4,2.1,2.7,2.6c0.3,0.5,0.3,0.9,0.1,1l-28.8,14.2l26,2.3c0.4,0,0.8,0.2,1.3,0.6c0.5,0.4,0.9,0.8,1.2,1.2
			c0.3,0.4,0.4,0.8,0.5,1c0.2,0.6,0,0.8-0.5,0.8l-34.6-3c-0.4,0-0.8-0.4-1.3-1c-0.5-0.6-0.8-1.2-1.1-1.8l-0.4-0.9l28.9-14.3
			l-26.1-2.5C4.2,608.6,3.7,608.4,3.2,608z"/>
		<path class="st1" d="M37,633.2c0.3,0.1,0.6,0.3,1.1,0.6c0.4,0.3,0.8,0.7,1.2,1.2c0.4,0.5,0.5,0.9,0.5,1.3V658
			c0,0.5-0.3,0.6-0.9,0.4c-0.8-0.3-1.5-0.7-2-1.5c-0.5-0.7-0.8-1.3-0.8-1.6v-7.4l-31.5-2.7c-0.4,0-0.8-0.2-1.3-0.6
			c-0.5-0.4-0.9-0.8-1.2-1.2s-0.5-0.8-0.5-1c-0.2-0.6,0-0.8,0.5-0.8l34,2.9v-10.8C36.1,633.1,36.4,633,37,633.2z"/>
	</g>
</g>
</svg>
