<?xml version="1.0" encoding="utf-8"?>
<!-- Generator: Adobe Illustrator 19.2.0, SVG Export Plug-In . SVG Version: 6.00 Build 0)  -->
<svg version="1.1" id="Laag_1" xmlns="http://www.w3.org/2000/svg" xmlns:xlink="http://www.w3.org/1999/xlink" x="0px" y="0px"
	 viewBox="0 0 100.6 630" style="enable-background:new 0 0 100.6 630;" xml:space="preserve">
<style type="text/css">
	.st0{fill:#FFFFFF;}
	.st1{fill:#1D1D1B;}
</style>
<title>chap1</title>
<g>
	
		<rect x="-264.9" y="264.5" transform="matrix(4.489724e-011 1 -1 4.489724e-011 364.7959 264.6959)" class="st0" width="630" height="100.6"/>
	<g>
		<path class="st1" d="M87.5,26.5c-0.5-0.4-0.9-0.8-1.2-1.2c-0.3-0.4-0.4-0.8-0.5-1c-0.2-0.6,0-0.8,0.5-0.8c1.3,0.1,2.7-0.1,4-0.6
			c1.3-0.6,2.4-1.4,3.2-2.5c0.9-1.1,1.4-2.4,1.7-3.7c0.3-1.4,0.2-2.7-0.1-4c-1.1-4-5-6.8-11.8-8.4c-5.1-1.2-9.3-0.9-12.7,1
			c-1.9,1-3.4,2.4-4.5,4.3c-1.1,1.8-1.6,3.8-1.5,5.8c0.1,2.1,0.5,3.7,1.4,5c0.9,1.3,2.1,2.2,3.6,2.7c0.4,0.2,0.9,0.5,1.4,1
			c0.5,0.5,0.8,0.9,1,1.4c0.2,0.5,0.2,0.8,0,1c-0.2,0.2-0.5,0.2-0.9,0.1c-1.3-0.5-2.7-1.3-4-2.4c-1.3-1-2.5-2.2-3.4-3.6
			c-1.7-2.4-2.6-4.9-2.7-7.5c-0.1-2.5,0.5-4.8,1.6-6.8c1.2-2,2.7-3.5,4.8-4.6c3.7-2,8.3-2.3,13.9-1c6.4,1.5,11.2,4.3,14.6,8.5
			c2.7,3.4,3.7,6.8,3.1,10.2c-0.3,1.6-0.9,3-1.9,4.2c-1,1.2-2.2,2.1-3.6,2.8c-1.4,0.6-3,0.9-4.6,0.7C88.5,27.1,88,26.9,87.5,26.5z"
			/>
		<path class="st1" d="M97.4,34.8c0.5,0.4,0.9,0.8,1.2,1.2c0.3,0.4,0.5,0.8,0.5,1c0.2,0.6,0,0.8-0.5,0.8L82,36.4v15.3l14.1,1.2
			c0.4,0,0.8,0.2,1.3,0.6c0.5,0.4,0.9,0.8,1.2,1.2c0.3,0.4,0.5,0.8,0.5,1c0.2,0.6,0,0.8-0.5,0.8L64,53.6c-0.4,0-0.8-0.2-1.3-0.6
			c-0.5-0.4-0.9-0.8-1.2-1.2c-0.3-0.4-0.5-0.8-0.5-1c-0.2-0.6,0-0.8,0.5-0.8l16.8,1.4V36.1L64,34.9c-0.4,0-0.8-0.2-1.3-0.6
			c-0.5-0.4-0.9-0.8-1.2-1.2c-0.3-0.4-0.5-0.8-0.5-1c-0.2-0.6,0-0.8,0.5-0.8l34.6,2.9C96.5,34.2,96.9,34.4,97.4,34.8z"/>
		<path class="st1" d="M62,61.1c-0.5-0.5-0.8-0.9-1-1.4c-0.2-0.4-0.2-0.8,0-0.9c0.2-0.2,0.5-0.2,1,0.1l34.6,15.8l1.7,1.4
			c1.1,1.2,1.3,1.9,0.5,2l-34.6,7.2c-0.3,0.1-0.7-0.1-1.2-0.4c-0.5-0.3-1-0.7-1.4-1.2c-0.4-0.5-0.6-0.9-0.7-1.3
			c-0.1-0.4,0-0.6,0.3-0.7l11-2.3c0,0,0-0.1,0-0.1V66.2l-8.8-4.1C63,61.9,62.5,61.6,62,61.1z M75.9,78.7l16.2-3.4l-16.2-7.4V78.7z"
			/>
		<path class="st1" d="M96.1,93.2c0.4,0,0.9,0.3,1.6,0.9c0.9,0.7,1.4,1.4,1.4,2.2c1.4,3.7,1.4,7.3,0,10.8c-1,2.4-2.5,4.4-4.6,5.8
			c-2.1,1.4-4.5,2-7.1,1.6c-1.5-0.2-3-0.7-4.5-1.6c-1.6-0.9-3-2.1-4.2-3.6c-2-2.4-3.3-5.2-4-8.4c-0.4-2-0.5-4-0.2-6.1l-10.3-0.9
			c-0.7,0-1.4-0.4-2.3-1.4c-0.3-0.4-0.6-0.7-0.7-1.2c-0.2-0.4-0.2-0.7,0-0.9s0.3-0.2,0.6-0.2L96.1,93.2z M96.3,96.6l-17.8-1.5
			c-0.6,2.7-0.7,5.3-0.3,7.8c0.5,2.4,1.2,4.3,2.3,5.6c1.1,1.3,2.7,2.1,4.7,2.4c2,0.3,4-0.2,6-1.5c1.9-1.3,3.3-2.9,4.1-4.9
			c0.8-2,1.2-3.6,1.2-4.8S96.4,97.4,96.3,96.6z"/>
		<path class="st1" d="M96.4,116.5c0.3,0.1,0.6,0.3,1.1,0.6c0.4,0.3,0.8,0.7,1.2,1.2c0.4,0.5,0.5,0.9,0.5,1.3v21.7
			c0,0.5-0.3,0.6-0.9,0.4c-0.8-0.3-1.5-0.7-2-1.5c-0.5-0.7-0.8-1.3-0.8-1.6v-7.4L64,128.5c-0.4,0-0.8-0.2-1.3-0.6
			c-0.5-0.4-0.9-0.8-1.2-1.2c-0.3-0.4-0.5-0.8-0.5-1c-0.2-0.6,0-0.8,0.5-0.8l34,2.9v-10.8C95.5,116.4,95.8,116.3,96.4,116.5z"/>
		<path class="st1" d="M99.2,168.1c0,0.3-0.2,0.5-0.5,0.5c-0.4,0-0.8-0.2-1.3-0.6c-0.5-0.4-1-0.8-1.3-1.3c-0.4-0.5-0.6-0.9-0.6-1.3
			v-16.2L82.1,148c0,5.4,0,10.9,0,16.4c0,0.5-0.3,0.6-0.9,0.4c-0.8-0.3-1.5-0.7-2-1.5c-0.5-0.7-0.8-1.3-0.8-1.6c0-4.7,0-9.3,0-14
			l-13.8-1.2c0,6.1,0,12.3,0,18.5c0,0.5-0.3,0.6-0.9,0.4c-0.8-0.3-1.5-0.7-2-1.5c-0.5-0.7-0.8-1.3-0.8-1.6v-18.9
			c0-0.2,0-0.4,0.1-0.5c0.1-0.1,0.3-0.2,0.6-0.1l34.5,2.9c0.4,0,0.8,0.2,1.3,0.6c0.9,0.7,1.5,1.4,1.7,2.2c0,0.2,0,0.3,0,0.3
			c0,0.1,0,0.1,0,0.2V168.1z"/>
		<path class="st1" d="M75.2,183.1c-0.6-1.9-0.9-3.5-0.9-4.9s0-2.5,0.1-3.2L64,174.2c-0.4,0-0.8-0.2-1.3-0.6
			c-0.5-0.4-0.9-0.8-1.2-1.2c-0.3-0.4-0.5-0.8-0.5-1c-0.2-0.6,0-0.8,0.5-0.8l34.6,2.9c0.4,0,0.8,0.2,1.3,0.6
			c1.1,0.8,1.6,1.6,1.7,2.4c0.8,1.9,1.2,3.8,1.2,5.8c0,2-0.4,3.9-1.2,5.6c-1.1,2.3-2.5,4-4.4,5.2c-1.9,1.1-3.8,1.7-5.8,1.7
			c-3.8,0-7.2-1.8-10.3-5.3c-0.6-0.7-1.1-1.4-1.6-2.2l-12.7,5.4c-0.3,0.1-0.6,0-1.1-0.3s-1-0.6-1.4-1.1s-0.7-0.9-0.8-1.4
			c-0.1-0.4-0.1-0.7,0.2-0.8L75.2,183.1z M79.1,186.1c1.3,3.4,3.7,5,7.2,5c1.8,0,3.5-0.5,5.2-1.6c1.7-1,3-2.5,3.9-4.4
			c0.8-1.9,1.3-3.8,1.3-5.6c0-0.9-0.1-1.8-0.3-2.7l-17.9-1.5c-0.8,3.3-0.7,6.5,0.2,9.6C79,185.4,79.1,185.8,79.1,186.1z"/>
		<path class="st1" d="M90.9,211.1c-0.2-0.4-0.2-0.8,0-0.9c0.2-0.2,0.5-0.2,1,0c0.5,0.2,0.9,0.6,1.4,1l4.8,4.9l1,1.1
			c0.7,1,0.5,1.4-0.5,1.3L64,215.7c-0.4,0-0.8-0.2-1.3-0.6c-0.5-0.4-0.9-0.8-1.2-1.2c-0.3-0.4-0.5-0.7-0.5-1c-0.2-0.6,0-0.8,0.5-0.8
			l32.5,2.7l-2.2-2.3C91.4,212,91.1,211.5,90.9,211.1z"/>
		<path class="st1" d="M96.4,239.9c0.3,0.1,0.6,0.3,1.1,0.6c0.4,0.3,0.8,0.7,1.2,1.2c0.4,0.5,0.5,0.9,0.5,1.3v21.7
			c0,0.5-0.3,0.6-0.9,0.4c-0.8-0.3-1.5-0.7-2-1.5c-0.5-0.7-0.8-1.3-0.8-1.6v-7.4L64,251.9c-0.4,0-0.8-0.2-1.3-0.6
			c-0.5-0.4-0.9-0.8-1.2-1.2c-0.3-0.4-0.5-0.8-0.5-1c-0.2-0.6,0-0.8,0.5-0.8l34,2.9v-10.8C95.5,239.8,95.8,239.7,96.4,239.9z"/>
		<path class="st1" d="M99.2,284.3c-0.3,8.4-6.6,12-19,10.8c-5.4-0.5-9.7-2-12.9-4.3c-4.4-3.2-6.5-7.4-6.3-12.6
			c0.3-8.4,6.1-12.1,17.5-10.9c3.1,0.3,5.8,0.8,8.1,1.5c2.3,0.7,4.4,1.8,6.2,3.2C97.2,275.1,99.3,279.2,99.2,284.3z M95.5,281.6
			c0.1-3.4-0.8-5.8-2.8-7.2c-1.1-0.8-2.6-1.5-4.7-2.1c-2-0.7-4.4-1.1-7.1-1.4c-10.7-1.1-16.1,2.3-16.4,10c-0.1,3.5,0.8,6,2.7,7.4
			c1,0.7,2.3,1.3,4.2,1.9c1.8,0.6,3.9,1,6.2,1.2C89.3,292.5,95.3,289.3,95.5,281.6z"/>
		<path class="st1" d="M61.5,308.3l34.6,3.4c1.2,0.2,2.1,0.8,2.7,1.8c0.2,0.4,0.4,0.8,0.4,1.3c0.9,14.5-5.1,21.6-17.8,21.2
			c-4.8-0.2-8.9-1.5-12.2-4c-3.3-2.5-5.6-5.7-6.8-9.5s-1.7-8.4-1.3-13.7C61,308.4,61.2,308.3,61.5,308.3z M64.6,312
			c-0.3,4.7,0.1,8.5,1.1,11.5c1,3,2.2,5,3.8,6.1c2.2,1.6,5.3,2.5,9.4,2.7c5.6,0.2,9.8-1.2,12.6-4c2.8-2.8,4.2-7.3,4.3-13.2L64.6,312
			z"/>
		<path class="st1" d="M99.2,364.6c0,0.3-0.2,0.5-0.5,0.5c-0.4,0-0.8-0.2-1.3-0.6c-0.5-0.4-1-0.8-1.3-1.3c-0.4-0.5-0.6-0.9-0.6-1.3
			v-16.2l-13.4-1.2c0,5.4,0,10.9,0,16.4c0,0.5-0.3,0.6-0.9,0.4c-0.8-0.3-1.5-0.7-2-1.5c-0.5-0.7-0.8-1.3-0.8-1.6c0-4.7,0-9.3,0-14
			l-13.8-1.2c0,6.1,0,12.3,0,18.5c0,0.5-0.3,0.6-0.9,0.4c-0.8-0.3-1.5-0.7-2-1.5c-0.5-0.7-0.8-1.3-0.8-1.6V340c0-0.2,0-0.4,0.1-0.5
			c0.1-0.1,0.3-0.2,0.6-0.1l34.5,2.9c0.4,0,0.8,0.2,1.3,0.6c0.9,0.7,1.5,1.4,1.7,2.2c0,0.2,0,0.3,0,0.3c0,0.1,0,0.1,0,0.2V364.6z"/>
		<path class="st1" d="M96.1,370c0.4,0,0.9,0.3,1.6,0.9c0.7,0.5,1.2,1.2,1.4,2c0,0.2,0,0.3,0,0.3c0,0.1,0,0.1,0,0.2v18.9
			c0,0.5-0.3,0.6-0.9,0.4c-0.8-0.3-1.5-0.7-2-1.5c-0.5-0.7-0.8-1.3-0.8-1.6v-16.2l-13.4-1.2c0,5.4,0,10.9,0,16.4
			c0,0.5-0.3,0.6-0.9,0.4c-0.8-0.3-1.5-0.7-2-1.5c-0.5-0.7-0.8-1.3-0.8-1.6c0-4.7,0-9.3,0-14l-14.3-1.2c-0.7,0-1.4-0.4-2.3-1.4
			c-0.3-0.4-0.6-0.7-0.7-1.2c-0.2-0.4-0.2-0.7,0-0.9c0.1-0.1,0.3-0.2,0.6-0.2L96.1,370z"/>
		<path class="st1" d="M97.4,399.3c0.5,0.4,0.9,0.8,1.2,1.2c0.3,0.4,0.5,0.8,0.5,1c0.2,0.6,0,0.8-0.5,0.8L64,399.4
			c-0.4,0-0.8-0.2-1.3-0.6c-0.5-0.4-0.9-0.8-1.2-1.2c-0.3-0.4-0.5-0.8-0.5-1c-0.2-0.6,0-0.8,0.5-0.8l34.6,2.9
			C96.5,398.7,96.9,398.9,97.4,399.3z"/>
		<path class="st1" d="M62.7,409.7c-0.5-0.4-0.9-0.8-1.2-1.2c-0.3-0.4-0.4-0.8-0.5-1c-0.2-0.6,0-0.8,0.5-0.8l34.6,3.4
			c1.5,1.2,2.4,2.1,2.7,2.6c0.3,0.5,0.3,0.9,0.1,1l-28.8,14.2l26,2.3c0.4,0,0.8,0.2,1.3,0.6c0.5,0.4,0.9,0.8,1.2,1.2
			c0.3,0.4,0.4,0.8,0.5,1c0.2,0.6,0,0.8-0.5,0.8l-34.6-3c-0.4,0-0.8-0.4-1.3-1c-0.5-0.6-0.8-1.2-1.1-1.8l-0.4-0.9l28.9-14.3
			L64,410.4C63.7,410.3,63.2,410.1,62.7,409.7z"/>
		<path class="st1" d="M99.2,461.1c0,0.3-0.2,0.5-0.5,0.5c-0.4,0-0.8-0.2-1.3-0.6c-0.5-0.4-1-0.8-1.3-1.3c-0.4-0.5-0.6-0.9-0.6-1.3
			v-16.2l-13.4-1.2c0,5.4,0,10.9,0,16.4c0,0.5-0.3,0.6-0.9,0.4c-0.8-0.3-1.5-0.7-2-1.5c-0.5-0.7-0.8-1.3-0.8-1.6c0-4.7,0-9.3,0-14
			l-13.8-1.2c0,6.1,0,12.3,0,18.5c0,0.5-0.3,0.6-0.9,0.4c-0.8-0.3-1.5-0.7-2-1.5c-0.5-0.7-0.8-1.3-0.8-1.6v-18.9
			c0-0.2,0-0.4,0.1-0.5c0.1-0.1,0.3-0.2,0.6-0.1l34.5,2.9c0.4,0,0.8,0.2,1.3,0.6c0.9,0.7,1.5,1.4,1.7,2.2c0,0.2,0,0.3,0,0.3
			c0,0.1,0,0.1,0,0.2V461.1z"/>
		<path class="st1" d="M62,475.7c-0.5-0.5-0.8-0.9-1-1.4c-0.2-0.4-0.2-0.8,0-0.9c0.2-0.2,0.5-0.2,1,0.1l34.6,15.8l1.7,1.4
			c1.1,1.2,1.3,1.9,0.5,2l-34.6,7.2c-0.3,0.1-0.7-0.1-1.2-0.4c-0.5-0.3-1-0.7-1.4-1.2c-0.4-0.5-0.6-0.9-0.7-1.3
			c-0.1-0.4,0-0.6,0.3-0.7l11-2.3c0,0,0-0.1,0-0.1v-13.1l-8.8-4.1C63,476.5,62.5,476.1,62,475.7z M75.9,493.3l16.2-3.4l-16.2-7.4
			V493.3z"/>
		<path class="st1" d="M61,515.3c0-0.4,0.2-0.5,0.6-0.5l34.6,2.9c0.4,0,0.8,0.2,1.3,0.6c0.5,0.4,0.9,0.8,1.2,1.2
			c0.3,0.4,0.5,0.8,0.5,1c0.2,0.6,0,0.8-0.5,0.8l-34-2.9v16.9c0,0.5-0.3,0.6-0.9,0.4c-0.8-0.3-1.5-0.7-2-1.5
			c-0.5-0.7-0.8-1.3-0.8-1.6V515.3z"/>
		<path class="st1" d="M99.2,558.9c-0.3,8.4-6.6,12-19,10.8c-5.4-0.5-9.7-2-12.9-4.3c-4.4-3.2-6.5-7.4-6.3-12.6
			c0.3-8.4,6.1-12.1,17.5-10.9c3.1,0.3,5.8,0.8,8.1,1.5c2.3,0.7,4.4,1.8,6.2,3.2C97.2,549.7,99.3,553.8,99.2,558.9z M95.5,556.2
			c0.1-3.4-0.8-5.8-2.8-7.2c-1.1-0.8-2.6-1.5-4.7-2.1c-2-0.7-4.4-1.1-7.1-1.4c-10.7-1.1-16.1,2.3-16.4,10c-0.1,3.5,0.8,6,2.7,7.4
			c1,0.7,2.3,1.3,4.2,1.9c1.8,0.6,3.9,1,6.2,1.2C89.3,567.1,95.3,563.9,95.5,556.2z"/>
		<path class="st1" d="M99.2,591.2c-0.3,8.4-6.6,12-19,10.8c-5.4-0.5-9.7-2-12.9-4.3c-4.4-3.2-6.5-7.4-6.3-12.6
			c0.3-8.4,6.1-12.1,17.5-10.9c3.1,0.3,5.8,0.8,8.1,1.5c2.3,0.7,4.4,1.8,6.2,3.2C97.2,582,99.3,586.1,99.2,591.2z M95.5,588.5
			c0.1-3.4-0.8-5.8-2.8-7.2c-1.1-0.8-2.6-1.5-4.7-2.1c-2-0.7-4.4-1.1-7.1-1.4c-10.7-1.1-16.1,2.3-16.4,10c-0.1,3.5,0.8,6,2.7,7.4
			c1,0.7,2.3,1.3,4.2,1.9c1.8,0.6,3.9,1,6.2,1.2C89.3,599.4,95.3,596.2,95.5,588.5z"/>
		<path class="st1" d="M96.1,608.4c0.4,0,0.9,0.3,1.6,0.9c0.9,0.7,1.4,1.4,1.4,2.2c1.4,3.7,1.4,7.3,0,10.8c-1,2.4-2.5,4.4-4.6,5.8
			c-2.1,1.4-4.5,2-7.1,1.6c-1.5-0.2-3-0.7-4.5-1.6c-1.6-0.9-3-2.1-4.2-3.6c-2-2.4-3.3-5.2-4-8.4c-0.4-2-0.5-4-0.2-6.1l-10.3-0.9
			c-0.7,0-1.4-0.4-2.3-1.4c-0.3-0.4-0.6-0.7-0.7-1.2c-0.2-0.4-0.2-0.7,0-0.9c0.1-0.1,0.3-0.2,0.6-0.2L96.1,608.4z M96.3,611.8
			l-17.8-1.5c-0.6,2.7-0.7,5.3-0.3,7.8c0.5,2.4,1.2,4.3,2.3,5.6c1.1,1.3,2.7,2.1,4.7,2.4c2,0.3,4-0.2,6-1.5c1.9-1.3,3.3-2.9,4.1-4.9
			s1.2-3.6,1.2-4.8C96.5,613.6,96.4,612.6,96.3,611.8z"/>
		<path class="st1" d="M29.9,0.8c-0.2-0.4-0.2-0.8,0-0.9c0.2-0.2,0.5-0.2,1,0c0.5,0.2,0.9,0.6,1.4,1l4.8,4.9l1,1.1
			c0.7,1,0.5,1.4-0.5,1.3L3,5.4c-0.4,0-0.8-0.2-1.3-0.6C1.2,4.4,0.8,4,0.5,3.6C0.3,3.2,0.1,2.9,0,2.6C-0.1,2,0,1.8,0.5,1.8L33,4.5
			l-2.2-2.3C30.4,1.7,30.1,1.3,29.9,0.8z"/>
		<path class="st1" d="M6.2,11.5c1.4,1.2,1.4,2.4-0.1,3.5c-1.2,0.9-2.5,0.8-3.6-0.2c-1.4-1.2-1.4-2.3,0-3.2
			C3.9,10.6,5.1,10.6,6.2,11.5z"/>
		<path class="st1" d="M29.9,22.1c-0.2-0.4-0.2-0.8,0-0.9c0.2-0.2,0.5-0.2,1,0c0.5,0.2,0.9,0.6,1.4,1l4.8,4.9l1,1.1
			c0.7,1,0.5,1.4-0.5,1.3L3,26.7c-0.4,0-0.8-0.2-1.3-0.6c-0.5-0.4-0.9-0.8-1.2-1.2c-0.3-0.4-0.5-0.7-0.5-1c-0.2-0.6,0-0.8,0.5-0.8
			L33,25.8l-2.2-2.3C30.4,23,30.1,22.6,29.9,22.1z"/>
		<path class="st1" d="M6.2,32.8c1.4,1.2,1.4,2.4-0.1,3.5c-1.2,0.9-2.5,0.8-3.6-0.2c-1.4-1.2-1.4-2.3,0-3.2
			C3.9,31.9,5.1,31.9,6.2,32.8z"/>
		<path class="st1" d="M1.7,81.3c-0.5-0.4-0.9-0.8-1.2-1.2c-0.3-0.4-0.5-0.8-0.5-1c-0.2-0.6,0-0.8,0.5-0.8l29.6,2.5L9.3,68.9
			c-1-0.7-1.7-1.3-2-1.8c-0.4-0.5-0.5-0.8-0.5-1.1c0-0.2,0.2-0.4,0.6-0.5l20.9-8.4L3,54.5c-0.4,0-0.8-0.2-1.3-0.6
			c-0.5-0.4-0.9-0.8-1.2-1.2c-0.3-0.4-0.4-0.8-0.5-1c-0.1-0.6,0.1-0.8,0.6-0.8l34.6,3.6c0.4,0,0.8,0.4,1.2,1
			c0.4,0.6,0.8,1.2,1.1,1.8l0.4,0.9L12.7,68.3L36,81.5c1.3,0.8,1.9,1.6,1.9,2.6c0,0.2-0.1,0.5-0.2,0.7L3,81.9
			C2.7,81.9,2.2,81.7,1.7,81.3z"/>
		<path class="st1" d="M38.2,112.1c0,0.3-0.2,0.5-0.5,0.5c-0.4,0-0.8-0.2-1.3-0.6c-0.5-0.4-1-0.8-1.3-1.3c-0.4-0.5-0.6-0.9-0.6-1.3
			V93.2l-13.4-1.2c0,5.4,0,10.9,0,16.4c0,0.5-0.3,0.6-0.9,0.4c-0.8-0.3-1.5-0.7-2-1.5c-0.5-0.7-0.8-1.3-0.8-1.6c0-4.7,0-9.3,0-14
			L3.6,90.6c0,6.1,0,12.3,0,18.5c0,0.5-0.3,0.6-0.9,0.4c-0.8-0.3-1.5-0.7-2-1.5c-0.5-0.7-0.8-1.3-0.8-1.6V87.5c0-0.2,0-0.4,0.1-0.5
			c0.1-0.1,0.3-0.2,0.6-0.1l34.5,2.9c0.4,0,0.8,0.2,1.3,0.6c0.9,0.7,1.5,1.4,1.7,2.2c0,0.2,0,0.3,0,0.3c0,0.1,0,0.1,0,0.2V112.1z"/>
		<path class="st1" d="M29.1,141.5c-0.5-0.3-1-0.6-1.4-1.1s-0.7-0.9-0.9-1.4c-0.1-0.4-0.1-0.7,0.1-0.9c2.1-1.1,3.8-2.6,5.2-4.5
			c1.4-1.9,2.2-4,2.4-6.1c0.1-1.3,0-2.5-0.3-3.5c-0.3-1-0.7-1.7-1.1-2.1c-0.4-0.4-1.2-0.7-2.2-0.9c-1.1-0.2-2.2,0-3.5,0.5
			c-1.3,0.5-2.3,1.4-3.2,2.6c-0.8,1.2-1.6,2.6-2.2,4.4c0,0.1-0.2,0.7-0.6,1.9c-0.4,1.2-0.7,2-1,2.6c-1.8,4.1-4.4,6.4-7.8,7
			c-2.3,0.4-4.6-0.2-6.8-1.7c-1.3-0.8-2.4-1.9-3.3-3.1c-2.3-3-3.2-6.4-2.5-9.9c0.4-2.4,1.4-4.6,3-6.6c1.6-2,3.4-3.5,5.7-4.6
			c0.3-0.1,0.6-0.1,1.1,0.2c0.5,0.3,0.9,0.6,1.4,1.1s0.7,0.9,0.9,1.4s0.1,0.7-0.2,0.8c-2.1,1.1-3.9,2.5-5.4,4.4
			c-1.5,1.9-2.4,3.8-2.7,5.9c-0.4,2-0.3,3.7,0.2,5c0.5,1.3,1,2.2,1.7,2.6c1.2,0.8,2.6,1,4.3,0.8c3-0.4,5.4-2.6,7.1-6.4
			c0.3-0.6,0.6-1.4,0.9-2.6c1-3,2-5.1,3-6.4c1-1.3,2.2-2.3,3.6-2.9c1.5-0.6,3.1-0.8,4.8-0.5c1.8,0.3,3.5,1.3,5.1,2.9
			c2.9,2.8,4.2,6.2,3.8,10c-0.3,2.4-1.1,4.6-2.6,6.6c-1.5,2-3.3,3.6-5.4,4.8C29.9,141.8,29.6,141.7,29.1,141.5z"/>
		<path class="st1" d="M1.7,174.2c-0.5-0.4-0.9-0.8-1.2-1.2c-0.3-0.4-0.5-0.8-0.5-1c-0.2-0.6,0-0.8,0.5-0.8l29.6,2.5L9.3,161.8
			c-1-0.7-1.7-1.3-2-1.8c-0.4-0.5-0.5-0.8-0.5-1.1c0-0.2,0.2-0.4,0.6-0.5l20.9-8.4L3,147.4c-0.4,0-0.8-0.2-1.3-0.6
			c-0.5-0.4-0.9-0.8-1.2-1.2c-0.3-0.4-0.4-0.8-0.5-1c-0.1-0.6,0.1-0.8,0.6-0.8l34.6,3.6c0.4,0,0.8,0.4,1.2,1
			c0.4,0.6,0.8,1.2,1.1,1.8l0.4,0.9l-25.2,10.2L36,174.4c1.3,0.8,1.9,1.6,1.9,2.6c0,0.2-0.1,0.5-0.2,0.7l-34.6-3
			C2.7,174.7,2.2,174.5,1.7,174.2z"/>
		<path class="st1" d="M38.2,205c0,0.3-0.2,0.5-0.5,0.5c-0.4,0-0.8-0.2-1.3-0.6c-0.5-0.4-1-0.8-1.3-1.3c-0.4-0.5-0.6-0.9-0.6-1.3
			v-16.2L21.1,185c0,5.4,0,10.9,0,16.4c0,0.5-0.3,0.6-0.9,0.4c-0.8-0.3-1.5-0.7-2-1.5c-0.5-0.7-0.8-1.3-0.8-1.6c0-4.7,0-9.3,0-14
			l-13.8-1.2c0,6.1,0,12.3,0,18.5c0,0.5-0.3,0.6-0.9,0.4c-0.8-0.3-1.5-0.7-2-1.5c-0.5-0.7-0.8-1.3-0.8-1.6l0-18.9
			c0-0.2,0-0.4,0.1-0.5c0.1-0.1,0.3-0.2,0.6-0.1l34.5,2.9c0.4,0,0.8,0.2,1.3,0.6c0.9,0.7,1.5,1.4,1.7,2.2c0,0.2,0,0.3,0,0.3
			c0,0.1,0,0.1,0,0.2V205z"/>
		<path class="st1" d="M14.2,220c-0.6-1.9-0.9-3.5-0.9-4.9s0-2.5,0.1-3.2L3,211.1c-0.4,0-0.8-0.2-1.3-0.6c-0.5-0.4-0.9-0.8-1.2-1.2
			c-0.3-0.4-0.5-0.8-0.5-1c-0.2-0.6,0-0.8,0.5-0.8l34.6,2.9c0.4,0,0.8,0.2,1.3,0.6c1.1,0.8,1.6,1.6,1.7,2.4c0.8,1.9,1.2,3.8,1.2,5.8
			c0,2-0.4,3.9-1.2,5.6c-1.1,2.3-2.5,4-4.4,5.2c-1.9,1.1-3.8,1.7-5.8,1.7c-3.8,0-7.2-1.8-10.3-5.3c-0.6-0.7-1.1-1.4-1.6-2.2
			l-12.7,5.4c-0.3,0.1-0.6,0-1.1-0.3s-1-0.6-1.4-1.1s-0.7-0.9-0.8-1.4c-0.1-0.4-0.1-0.7,0.2-0.8L14.2,220z M18.1,223
			c1.3,3.4,3.7,5,7.2,5c1.8,0,3.5-0.5,5.2-1.6c1.7-1,3-2.5,3.9-4.4c0.8-1.9,1.3-3.8,1.3-5.6c0-0.9-0.1-1.8-0.3-2.7l-17.9-1.5
			c-0.8,3.3-0.7,6.5,0.2,9.6C18,222.3,18.1,222.7,18.1,223z"/>
		<path class="st1" d="M36.4,240.4c0.5,0.4,0.9,0.8,1.2,1.2c0.3,0.4,0.5,0.8,0.5,1c0.2,0.6,0,0.8-0.5,0.8L3,240.5
			c-0.4,0-0.8-0.2-1.3-0.6c-0.5-0.4-0.9-0.8-1.2-1.2c-0.3-0.4-0.5-0.8-0.5-1c-0.2-0.6,0-0.8,0.5-0.8l34.6,2.9
			C35.5,239.8,35.9,240,36.4,240.4z"/>
		<path class="st1" d="M35.4,251.7c0.3,0.1,0.6,0.3,1.1,0.6c0.4,0.3,0.8,0.7,1.2,1.2c0.4,0.5,0.5,0.9,0.5,1.3v21
			c0,0.5-0.3,0.6-0.9,0.4c-0.3-0.1-0.6-0.3-1-0.5L3.6,251.5v21.8c0,0.5-0.3,0.6-0.9,0.4c-0.8-0.3-1.5-0.7-2-1.5
			c-0.5-0.7-0.8-1.3-0.8-1.6v-23c0-0.6,0.4-0.7,1.2-0.3c0.2,0.1,0.4,0.2,0.7,0.4l32.7,24.2v-19.8C34.5,251.6,34.8,251.5,35.4,251.7z
			"/>
		<path class="st1" d="M38.2,303.2c0,0.3-0.2,0.5-0.5,0.5c-0.4,0-0.8-0.2-1.3-0.6c-0.5-0.4-1-0.8-1.3-1.3c-0.4-0.5-0.6-0.9-0.6-1.3
			v-16.2l-13.4-1.2c0,5.4,0,10.9,0,16.4c0,0.5-0.3,0.6-0.9,0.4c-0.8-0.3-1.5-0.7-2-1.5c-0.5-0.7-0.8-1.3-0.8-1.6c0-4.7,0-9.3,0-14
			l-13.8-1.2c0,6.1,0,12.3,0,18.5c0,0.5-0.3,0.6-0.9,0.4c-0.8-0.3-1.5-0.7-2-1.5c-0.5-0.7-0.8-1.3-0.8-1.6v-18.9
			c0-0.2,0-0.4,0.1-0.5c0.1-0.1,0.3-0.2,0.6-0.1l34.5,2.9c0.4,0,0.8,0.2,1.3,0.6c0.9,0.7,1.5,1.4,1.7,2.2c0,0.2,0,0.3,0,0.3
			c0,0.1,0,0.1,0,0.2V303.2z"/>
		<path class="st1" d="M1.7,345.4c-0.5-0.4-0.9-0.8-1.2-1.2c-0.3-0.4-0.5-0.8-0.5-1c-0.2-0.6,0-0.8,0.5-0.8l29.6,2.5L9.3,333
			c-1-0.7-1.7-1.3-2-1.8c-0.4-0.5-0.5-0.8-0.5-1.1c0-0.2,0.2-0.4,0.6-0.5l20.9-8.4L3,318.6c-0.4,0-0.8-0.2-1.3-0.6
			c-0.5-0.4-0.9-0.8-1.2-1.2c-0.3-0.4-0.4-0.8-0.5-1c-0.1-0.6,0.1-0.8,0.6-0.8l34.6,3.6c0.4,0,0.8,0.4,1.2,1
			c0.4,0.6,0.8,1.2,1.1,1.8l0.4,0.9l-25.2,10.2L36,345.6c1.3,0.8,1.9,1.6,1.9,2.6c0,0.2-0.1,0.5-0.2,0.7L3,346
			C2.7,346,2.2,345.7,1.7,345.4z"/>
		<path class="st1" d="M38.2,376.2c0,0.3-0.2,0.5-0.5,0.5c-0.4,0-0.8-0.2-1.3-0.6c-0.5-0.4-1-0.8-1.3-1.3c-0.4-0.5-0.6-0.9-0.6-1.3
			v-16.2l-13.4-1.2c0,5.4,0,10.9,0,16.4c0,0.5-0.3,0.6-0.9,0.4c-0.8-0.3-1.5-0.7-2-1.5c-0.5-0.7-0.8-1.3-0.8-1.6c0-4.7,0-9.3,0-14
			l-13.8-1.2c0,6.1,0,12.3,0,18.5c0,0.5-0.3,0.6-0.9,0.4c-0.8-0.3-1.5-0.7-2-1.5c-0.5-0.7-0.8-1.3-0.8-1.6l0-18.9
			c0-0.2,0-0.4,0.1-0.5c0.1-0.1,0.3-0.2,0.6-0.1l34.5,2.9c0.4,0,0.8,0.2,1.3,0.6c0.9,0.7,1.5,1.4,1.7,2.2c0,0.2,0,0.3,0,0.3
			c0,0.1,0,0.1,0,0.2V376.2z"/>
	</g>
</g>
</svg>
