<?xml version="1.0" encoding="utf-8"?>
<!-- Generator: Adobe Illustrator 19.2.0, SVG Export Plug-In . SVG Version: 6.00 Build 0)  -->
<svg version="1.1" id="Laag_1" xmlns="http://www.w3.org/2000/svg" xmlns:xlink="http://www.w3.org/1999/xlink" x="0px" y="0px"
	 viewBox="0 0 100.6 630" style="enable-background:new 0 0 100.6 630;" xml:space="preserve">
<style type="text/css">
	.st0{fill:#FFFFFF;}
</style>
<title>chap1</title>
<g>
	<g>
		<rect x="-0.1" y="0.2" class="st0" width="100.6" height="630"/>
	</g>
	<g>
		<path d="M87.9,26.6c-0.5-0.4-0.9-0.8-1.2-1.2c-0.3-0.4-0.4-0.8-0.5-1c-0.2-0.6,0-0.8,0.5-0.8c1.3,0.1,2.7-0.1,4-0.6
			c1.3-0.6,2.4-1.4,3.2-2.5c0.9-1.1,1.4-2.4,1.7-3.7c0.3-1.4,0.2-2.7-0.1-4c-1.1-4-5-6.8-11.8-8.4c-5.1-1.2-9.3-0.9-12.7,1
			c-1.9,1-3.4,2.4-4.5,4.3c-1.1,1.8-1.6,3.8-1.5,5.8c0.1,2.1,0.5,3.7,1.4,5s2.1,2.2,3.6,2.7c0.4,0.2,0.9,0.5,1.4,1s0.8,0.9,1,1.4
			s0.2,0.8,0,1s-0.5,0.2-0.9,0.1c-1.3-0.5-2.7-1.3-4-2.4c-1.3-1-2.5-2.2-3.4-3.6c-1.7-2.4-2.6-4.9-2.7-7.5c-0.1-2.5,0.5-4.8,1.6-6.8
			c1.2-2,2.7-3.5,4.8-4.6c3.7-2,8.3-2.3,13.9-1c6.4,1.5,11.2,4.3,14.6,8.5c2.7,3.4,3.7,6.8,3.1,10.2c-0.3,1.6-0.9,3-1.9,4.2
			s-2.2,2.1-3.6,2.8c-1.4,0.6-3,0.9-4.6,0.7C88.8,27.2,88.4,27,87.9,26.6z"/>
		<path d="M97.8,34.9c0.5,0.4,0.9,0.8,1.2,1.2c0.3,0.4,0.5,0.8,0.5,1c0.2,0.6,0,0.8-0.5,0.8l-16.6-1.4v15.3L96.5,53
			c0.4,0,0.8,0.2,1.3,0.6s0.9,0.8,1.2,1.2c0.3,0.4,0.5,0.8,0.5,1c0.2,0.6,0,0.8-0.5,0.8l-34.6-2.9c-0.4,0-0.8-0.2-1.3-0.6
			s-0.9-0.8-1.2-1.2s-0.5-0.8-0.5-1c-0.2-0.6,0-0.8,0.5-0.8l16.8,1.4V36.2L64.4,35c-0.4,0-0.8-0.2-1.3-0.6s-0.9-0.8-1.2-1.2
			c-0.3-0.4-0.5-0.8-0.5-1c-0.2-0.6,0-0.8,0.5-0.8l34.6,2.9C96.8,34.3,97.3,34.5,97.8,34.9z"/>
		<path d="M62.5,61.2c-0.5-0.5-0.8-0.9-1-1.4c-0.2-0.4-0.2-0.8,0-0.9c0.2-0.2,0.5-0.2,1,0.1l34.6,15.8l1.7,1.4
			c1.1,1.2,1.3,1.9,0.5,2l-34.6,7.2c-0.3,0.1-0.7-0.1-1.2-0.4s-1-0.7-1.4-1.2s-0.6-0.9-0.7-1.3c-0.1-0.4,0-0.6,0.3-0.7l11-2.3v-0.1
			V66.3l-8.8-4.1C63.4,62,63,61.7,62.5,61.2z M76.3,78.8l16.2-3.4L76.4,68C76.4,68,76.4,78.8,76.3,78.8z"/>
		<path d="M96.6,93.3c0.4,0,0.9,0.3,1.6,0.9c0.9,0.7,1.4,1.4,1.4,2.2c1.4,3.7,1.4,7.3,0,10.8c-1,2.4-2.5,4.4-4.6,5.8s-4.5,2-7.1,1.6
			c-1.5-0.2-3-0.7-4.5-1.6c-1.6-0.9-3-2.1-4.2-3.6c-2-2.4-3.3-5.2-4-8.4c-0.4-2-0.5-4-0.2-6.1L64.7,94c-0.7,0-1.4-0.4-2.3-1.4
			c-0.3-0.4-0.6-0.7-0.7-1.2c-0.2-0.4-0.2-0.7,0-0.9s0.3-0.2,0.6-0.2L96.6,93.3z M96.7,96.8l-17.8-1.5c-0.6,2.7-0.7,5.3-0.3,7.8
			c0.5,2.4,1.2,4.3,2.3,5.6s2.7,2.1,4.7,2.4s4-0.2,6-1.5c1.9-1.3,3.3-2.9,4.1-4.9s1.2-3.6,1.2-4.8S96.8,97.5,96.7,96.8z"/>
		<path d="M96.8,116.6c0.3,0.1,0.6,0.3,1.1,0.6c0.4,0.3,0.8,0.7,1.2,1.2s0.5,0.9,0.5,1.3v21.7c0,0.5-0.3,0.6-0.9,0.4
			c-0.8-0.3-1.5-0.7-2-1.5c-0.5-0.7-0.8-1.3-0.8-1.6v-7.4l-31.5-2.7c-0.4,0-0.8-0.2-1.3-0.6s-0.9-0.8-1.2-1.2s-0.5-0.8-0.5-1
			c-0.2-0.6,0-0.8,0.5-0.8l34,2.9v-10.8C95.9,116.6,96.3,116.4,96.8,116.6z"/>
		<path d="M99.6,168.2c0,0.3-0.2,0.5-0.5,0.5c-0.4,0-0.8-0.2-1.3-0.6c-0.5-0.4-1-0.8-1.3-1.3c-0.4-0.5-0.6-0.9-0.6-1.3v-16.2
			l-13.4-1.2c0,5.4,0,10.9,0,16.4c0,0.5-0.3,0.6-0.9,0.4c-0.8-0.3-1.5-0.7-2-1.5c-0.5-0.7-0.8-1.3-0.8-1.6c0-4.7,0-9.3,0-14
			l-13.8-1.2c0,6.1,0,12.3,0,18.5c0,0.5-0.3,0.6-0.9,0.4c-0.8-0.3-1.5-0.7-2-1.5c-0.5-0.7-0.8-1.3-0.8-1.6v-18.8
			c0-0.2,0-0.4,0.1-0.5s0.3-0.2,0.6-0.1l34.5,2.9c0.4,0,0.8,0.2,1.3,0.6c0.9,0.7,1.5,1.4,1.7,2.2c0,0.2,0,0.3,0,0.3
			c0,0.1,0,0.1,0,0.2L99.6,168.2L99.6,168.2z"/>
		<path d="M75.7,183.2c-0.6-1.9-0.9-3.5-0.9-4.9s0-2.5,0.1-3.2l-10.4-0.9c-0.4,0-0.8-0.2-1.3-0.6c-0.5-0.4-0.9-0.8-1.2-1.2
			s-0.5-0.8-0.5-1c-0.2-0.6,0-0.8,0.5-0.8l34.6,2.9c0.4,0,0.8,0.2,1.3,0.6c1.1,0.8,1.6,1.6,1.7,2.4c0.8,1.9,1.2,3.8,1.2,5.8
			s-0.4,3.9-1.2,5.6c-1.1,2.3-2.5,4-4.4,5.2c-1.9,1.1-3.8,1.7-5.8,1.7c-3.8,0-7.2-1.8-10.3-5.3c-0.6-0.7-1.1-1.4-1.6-2.2l-12.7,5.4
			c-0.3,0.1-0.6,0-1.1-0.3c-0.5-0.3-1-0.6-1.4-1.1s-0.7-0.9-0.8-1.4c-0.1-0.4-0.1-0.7,0.2-0.8L75.7,183.2z M79.6,186.2
			c1.3,3.4,3.7,5,7.2,5c1.8,0,3.5-0.5,5.2-1.6c1.7-1,3-2.5,3.9-4.4c0.8-1.9,1.3-3.8,1.3-5.6c0-0.9-0.1-1.8-0.3-2.7l-17.9-1.5
			c-0.8,3.3-0.7,6.5,0.2,9.6C79.4,185.5,79.6,185.9,79.6,186.2z"/>
		<path d="M91.3,211.2c-0.2-0.4-0.2-0.8,0-0.9c0.2-0.2,0.5-0.2,1,0s0.9,0.6,1.4,1l4.8,4.9l1,1.1c0.7,1,0.5,1.4-0.5,1.3l-34.6-2.9
			c-0.4,0-0.8-0.2-1.3-0.6s-0.9-0.8-1.2-1.2s-0.5-0.7-0.5-1c-0.2-0.6,0-0.8,0.5-0.8l32.5,2.7l-2.1-2.2
			C91.8,212.1,91.4,211.6,91.3,211.2z"/>
		<path d="M96.8,240c0.3,0.1,0.6,0.3,1.1,0.6c0.4,0.3,0.8,0.7,1.2,1.2s0.5,0.9,0.5,1.3v21.7c0,0.5-0.3,0.6-0.9,0.4
			c-0.8-0.3-1.5-0.7-2-1.5c-0.5-0.7-0.8-1.3-0.8-1.6v-7.4L64.4,252c-0.4,0-0.8-0.2-1.3-0.6s-0.9-0.8-1.2-1.2s-0.5-0.8-0.5-1
			c-0.2-0.6,0-0.8,0.5-0.8l34,2.9v-10.8C95.9,239.9,96.3,239.8,96.8,240z"/>
		<path d="M99.6,284.4c-0.3,8.4-6.6,12-19,10.8c-5.4-0.5-9.7-2-12.9-4.3c-4.4-3.2-6.5-7.4-6.3-12.6c0.3-8.4,6.1-12.1,17.5-10.9
			c3.1,0.3,5.8,0.8,8.1,1.5s4.4,1.8,6.2,3.2C97.7,275.2,99.8,279.4,99.6,284.4z M95.9,281.7c0.1-3.4-0.8-5.8-2.8-7.2
			c-1.1-0.8-2.6-1.5-4.7-2.1c-2-0.7-4.4-1.1-7.1-1.4c-10.7-1.1-16.1,2.3-16.4,10c-0.1,3.5,0.8,6,2.7,7.4c1,0.7,2.3,1.3,4.2,1.9
			c1.8,0.6,3.9,1,6.2,1.2C89.8,292.6,95.7,289.4,95.9,281.7z"/>
		<path d="M62,308.4l34.6,3.4c1.2,0.2,2.1,0.8,2.7,1.8c0.2,0.4,0.4,0.8,0.4,1.3c0.9,14.5-5.1,21.6-17.8,21.2
			c-4.8-0.2-8.9-1.5-12.2-4s-5.6-5.7-6.8-9.5c-1.2-3.8-1.7-8.4-1.3-13.7C61.4,308.5,61.6,308.4,62,308.4z M64.9,312.1
			c-0.3,4.7,0.1,8.5,1.1,11.5s2.2,5,3.8,6.1c2.2,1.6,5.3,2.5,9.4,2.7c5.6,0.2,9.8-1.2,12.6-4s4.2-7.3,4.3-13.2L64.9,312.1z"/>
		<path d="M99.6,364.7c0,0.3-0.2,0.5-0.5,0.5c-0.4,0-0.8-0.2-1.3-0.6s-1-0.8-1.3-1.3c-0.4-0.5-0.6-0.9-0.6-1.3v-16.2l-13.4-1.2
			c0,5.4,0,10.9,0,16.4c0,0.5-0.3,0.6-0.9,0.4c-0.8-0.3-1.5-0.7-2-1.5c-0.5-0.7-0.8-1.3-0.8-1.6c0-4.7,0-9.3,0-14l-13.8-1.2
			c0,6.1,0,12.3,0,18.5c0,0.5-0.3,0.6-0.9,0.4c-0.8-0.3-1.5-0.7-2-1.5c-0.5-0.7-0.8-1.3-0.8-1.6V340c0-0.2,0-0.4,0.1-0.5
			s0.3-0.2,0.6-0.1l34.5,2.9c0.4,0,0.8,0.2,1.3,0.6c0.9,0.7,1.5,1.4,1.7,2.2c0,0.2,0,0.3,0,0.3c0,0.1,0,0.1,0,0.2L99.6,364.7
			L99.6,364.7z"/>
		<path d="M96.6,370.1c0.4,0,0.9,0.3,1.6,0.9c0.7,0.5,1.2,1.2,1.4,2c0,0.2,0,0.3,0,0.3c0,0.1,0,0.1,0,0.2v18.9
			c0,0.5-0.3,0.6-0.9,0.4c-0.8-0.3-1.5-0.7-2-1.5c-0.5-0.7-0.8-1.3-0.8-1.6v-16.2l-13.4-1.2c0,5.4,0,10.9,0,16.4
			c0,0.5-0.3,0.6-0.9,0.4c-0.8-0.3-1.5-0.7-2-1.5c-0.5-0.7-0.8-1.3-0.8-1.6c0-4.7,0-9.3,0-14l-14.3-1.2c-0.7,0-1.4-0.4-2.3-1.4
			c-0.3-0.4-0.6-0.7-0.7-1.2c-0.2-0.4-0.2-0.7,0-0.9s0.3-0.2,0.6-0.2L96.6,370.1z"/>
		<path d="M97.8,399.4c0.5,0.4,0.9,0.8,1.2,1.2c0.3,0.4,0.5,0.8,0.5,1c0.2,0.6,0,0.8-0.5,0.8l-34.6-2.9c-0.4,0-0.8-0.2-1.3-0.6
			s-0.9-0.8-1.2-1.2c-0.3-0.4-0.5-0.8-0.5-1c-0.2-0.6,0-0.8,0.5-0.8l34.6,2.9C96.8,398.8,97.3,399,97.8,399.4z"/>
		<path d="M63.1,409.9c-0.5-0.4-0.9-0.8-1.2-1.2c-0.3-0.4-0.4-0.8-0.5-1c-0.2-0.6,0-0.8,0.5-0.8l34.6,3.4c1.5,1.2,2.4,2.1,2.7,2.6
			s0.3,0.9,0.1,1l-28.8,14.2l26,2.3c0.4,0,0.8,0.2,1.3,0.6s0.9,0.8,1.2,1.2c0.3,0.4,0.4,0.8,0.5,1c0.2,0.6,0,0.8-0.5,0.8l-34.6-3
			c-0.4,0-0.8-0.4-1.3-1s-0.8-1.2-1.1-1.8l-0.4-0.9L90.4,413l-26.1-2.5C64.1,410.4,63.7,410.2,63.1,409.9z"/>
		<path d="M99.6,461.3c0,0.3-0.2,0.5-0.5,0.5c-0.4,0-0.8-0.2-1.3-0.6s-1-0.8-1.3-1.3c-0.4-0.5-0.6-0.9-0.6-1.3v-16.2l-13.4-1.2
			c0,5.4,0,10.9,0,16.4c0,0.5-0.3,0.6-0.9,0.4c-0.8-0.3-1.5-0.7-2-1.5c-0.5-0.7-0.8-1.3-0.8-1.6c0-4.7,0-9.3,0-14l-13.8-1.2
			c0,6.1,0,12.3,0,18.5c0,0.5-0.3,0.6-0.9,0.4c-0.8-0.3-1.5-0.7-2-1.5c-0.5-0.7-0.8-1.3-0.8-1.6v-18.9c0-0.2,0-0.4,0.1-0.5
			s0.3-0.2,0.6-0.1l34.5,2.9c0.4,0,0.8,0.2,1.3,0.6c0.9,0.7,1.5,1.4,1.7,2.2c0,0.2,0,0.3,0,0.3c0,0.1,0,0.1,0,0.2L99.6,461.3
			L99.6,461.3z"/>
		<path d="M62.5,475.8c-0.5-0.5-0.8-0.9-1-1.4c-0.2-0.4-0.2-0.8,0-0.9c0.2-0.2,0.5-0.2,1,0.1l34.6,15.8l1.7,1.4
			c1.1,1.2,1.3,1.9,0.5,2L64.7,500c-0.3,0.1-0.7-0.1-1.2-0.4s-1-0.7-1.4-1.2s-0.6-0.9-0.7-1.3c-0.1-0.4,0-0.6,0.3-0.7l11-2.3V494
			v-13.1l-8.8-4.1C63.4,476.6,63,476.2,62.5,475.8z M76.3,493.4l16.2-3.4l-16.2-7.4V493.4z"/>
		<path d="M61.4,515.5c0-0.4,0.2-0.5,0.6-0.5l34.6,2.9c0.4,0,0.8,0.2,1.3,0.6c0.5,0.4,0.9,0.8,1.2,1.2s0.5,0.8,0.5,1
			c0.2,0.6,0,0.8-0.5,0.8l-34-2.9v17c0,0.5-0.3,0.6-0.9,0.4c-0.8-0.3-1.5-0.7-2-1.5c-0.5-0.7-0.8-1.3-0.8-1.6L61.4,515.5L61.4,515.5
			z"/>
		<path d="M99.6,559c-0.3,8.4-6.6,12-19,10.8c-5.4-0.5-9.7-2-12.9-4.3c-4.4-3.2-6.5-7.4-6.3-12.6c0.3-8.4,6.1-12.1,17.5-10.9
			c3.1,0.3,5.8,0.8,8.1,1.5s4.4,1.8,6.2,3.2C97.7,549.8,99.8,554,99.6,559z M95.9,556.3c0.1-3.4-0.8-5.8-2.8-7.2
			c-1.1-0.8-2.6-1.5-4.7-2.1c-2-0.7-4.4-1.1-7.1-1.4c-10.7-1.1-16.1,2.3-16.4,10c-0.1,3.5,0.8,6,2.7,7.4c1,0.7,2.3,1.3,4.2,1.9
			c1.8,0.6,3.9,1,6.2,1.2C89.8,567.2,95.7,564,95.9,556.3z"/>
		<path d="M99.6,591.3c-0.3,8.4-6.6,12-19,10.8c-5.4-0.5-9.7-2-12.9-4.3c-4.4-3.2-6.5-7.4-6.3-12.6c0.3-8.4,6.1-12.1,17.5-10.9
			c3.1,0.3,5.8,0.8,8.1,1.5s4.4,1.8,6.2,3.2C97.7,582.1,99.8,586.3,99.6,591.3z M95.9,588.6c0.1-3.4-0.8-5.8-2.8-7.2
			c-1.1-0.8-2.6-1.5-4.7-2.1c-2-0.7-4.4-1.1-7.1-1.4c-10.7-1.1-16.1,2.3-16.4,10c-0.1,3.5,0.8,6,2.7,7.4c1,0.7,2.3,1.3,4.2,1.9
			c1.8,0.6,3.9,1,6.2,1.2C89.8,599.5,95.7,596.3,95.9,588.6z"/>
		<path d="M96.6,608.5c0.4,0,0.9,0.3,1.6,0.9c0.9,0.7,1.4,1.4,1.4,2.2c1.4,3.7,1.4,7.3,0,10.8c-1,2.4-2.5,4.4-4.6,5.8
			c-2.1,1.4-4.5,2-7.1,1.6c-1.5-0.2-3-0.7-4.5-1.6c-1.6-0.9-3-2.1-4.2-3.6c-2-2.4-3.3-5.2-4-8.4c-0.4-2-0.5-4-0.2-6.1l-10.3-0.9
			c-0.7,0-1.4-0.4-2.3-1.4c-0.3-0.4-0.6-0.7-0.7-1.2c-0.2-0.4-0.2-0.7,0-0.9c0.1-0.1,0.3-0.2,0.6-0.2L96.6,608.5z M96.7,611.9
			l-17.8-1.5c-0.6,2.7-0.7,5.3-0.3,7.8c0.5,2.4,1.2,4.3,2.3,5.6s2.7,2.1,4.7,2.4c2,0.3,4-0.2,6-1.5c1.9-1.3,3.3-2.9,4.1-4.9
			s1.2-3.6,1.2-4.8C96.8,613.7,96.8,612.7,96.7,611.9z"/>
		<path d="M30.3,0.9c-0.2-0.4-0.2-0.8,0-0.9c0.2-0.2,0.5-0.2,1,0s0.9,0.6,1.4,1l4.8,4.9l1,1.1C39.2,8,39,8.4,38,8.3L3.5,5.6
			C3.1,5.6,2.7,5.4,2.2,5C1.7,4.6,1.3,4.2,1,3.8s-0.5-0.7-0.5-1C0.3,2.2,0.5,2,1,2l32.5,2.7l-2.2-2.3C30.8,1.9,30.5,1.4,30.3,0.9z"
			/>
		<path d="M6.6,11.6C8,12.8,8,14,6.5,15.1C5.3,16,4,15.9,2.9,14.9c-1.4-1.2-1.4-2.3,0-3.2C4.3,10.7,5.6,10.7,6.6,11.6z"/>
		<path d="M3,20.1l15.4,15.8c6.5,5.6,11,7.4,13.6,5.5c1.7-1.2,2.7-3.8,3-7.7c0.2-2.4-0.4-4.1-1.8-5.1c-1.4-1-3.3-1.9-5.8-2.6
			c-0.4-0.1-0.9-0.4-1.4-0.8s-0.9-0.9-1.2-1.4s-0.3-0.9-0.2-1.1c0.1-0.3,0.4-0.3,0.8-0.2c3.2,0.9,5.8,2.2,7.8,3.7s3.5,3.2,4.3,5
			s1.2,3.6,1,5.5c-0.7,8.4-4.6,11-11.7,7.6c-2.8-1.3-5.9-3.5-9.5-6.6c-0.1-0.1-0.2-0.2-0.3-0.3L4,24.1c0,3,0,9.3,0,19
			c0,0.5-0.3,0.6-0.9,0.4c-0.8-0.3-1.5-0.7-2-1.5c-0.5-0.7-0.8-1.3-0.8-1.6c0-13.1,0-20.1,0-20.8c0,0,0.6,0.1,1.9,0.5H3z"/>
		<path d="M35.9,57.8c0.3,0.1,0.6,0.3,1.1,0.6c0.4,0.3,0.8,0.7,1.2,1.2s0.5,0.9,0.5,1.3v21.7c0,0.5-0.3,0.6-0.9,0.4
			c-0.8-0.3-1.5-0.7-2-1.5c-0.5-0.7-0.8-1.3-0.8-1.6v-7.4L3.5,69.8c-0.4,0-0.8-0.2-1.3-0.6S1.3,68.4,1,68s-0.5-0.8-0.5-1
			c-0.2-0.6,0-0.8,0.5-0.8l34,2.9V58.3C35,57.8,35.3,57.6,35.9,57.8z"/>
		<path d="M36.9,87.6c0.5,0.4,0.9,0.8,1.2,1.2s0.5,0.8,0.5,1c0.2,0.6,0,0.8-0.5,0.8l-16.6-1.4v15.3l14.1,1.2c0.4,0,0.8,0.2,1.3,0.6
			s0.9,0.8,1.2,1.2s0.5,0.8,0.5,1c0.2,0.6,0,0.8-0.5,0.8l-34.6-2.9c-0.4,0-0.8-0.2-1.3-0.6S1.3,105,1,104.6s-0.5-0.8-0.5-1
			c-0.2-0.6,0-0.8,0.5-0.8l16.8,1.4V88.9L3.5,87.7c-0.4,0-0.8-0.2-1.3-0.6S1.3,86.3,1,85.9s-0.5-0.8-0.5-1c-0.2-0.6,0-0.8,0.5-0.8
			L35.6,87C35.9,87,36.4,87.2,36.9,87.6z"/>
		<path d="M38.6,137.1c0,0.3-0.2,0.5-0.5,0.5c-0.4,0-0.8-0.2-1.3-0.6c-0.5-0.4-1-0.8-1.3-1.3c-0.4-0.5-0.6-0.9-0.6-1.3v-16.2
			L21.5,117c0,5.4,0,10.9,0,16.4c0,0.5-0.3,0.6-0.9,0.4c-0.8-0.3-1.5-0.7-2-1.5c-0.5-0.7-0.8-1.3-0.8-1.6c0-4.7,0-9.3,0-14L4,115.5
			c0,6.1,0,12.3,0,18.5c0,0.5-0.3,0.6-0.9,0.4c-0.8-0.3-1.5-0.7-2-1.5c-0.5-0.7-0.8-1.3-0.8-1.6v-18.9c0-0.2,0-0.4,0.1-0.5
			s0.3-0.2,0.6-0.1l34.5,2.9c0.4,0,0.8,0.2,1.3,0.6c0.9,0.7,1.5,1.4,1.7,2.2c0,0.2,0,0.3,0,0.3c0,0.1,0,0.1,0,0.2L38.6,137.1
			L38.6,137.1z"/>
		<path d="M14.7,162.2c-0.6-1.9-0.9-3.5-0.9-4.9s0-2.5,0.1-3.2l-10.4-0.9c-0.4,0-0.8-0.2-1.3-0.6c-0.5-0.4-0.9-0.8-1.2-1.2
			s-0.5-0.8-0.5-1c-0.2-0.6,0-0.8,0.5-0.8l34.6,2.9c0.4,0,0.8,0.2,1.3,0.6c1.1,0.8,1.6,1.6,1.7,2.4c0.8,1.9,1.2,3.8,1.2,5.8
			s-0.4,3.9-1.2,5.6c-1.1,2.3-2.5,4-4.4,5.2c-1.9,1.1-3.8,1.7-5.8,1.7c-3.8,0-7.2-1.8-10.3-5.3c-0.6-0.7-1.1-1.4-1.6-2.2l-12.7,5.4
			c-0.3,0.1-0.6,0-1.1-0.3s-1-0.6-1.4-1.1s-0.7-0.9-0.8-1.4c-0.1-0.4-0.1-0.7,0.2-0.8L14.7,162.2z M18.6,165.2c1.3,3.4,3.7,5,7.2,5
			c1.8,0,3.5-0.5,5.2-1.6c1.7-1,3-2.5,3.9-4.4c0.8-1.9,1.3-3.8,1.3-5.6c0-0.9-0.1-1.8-0.3-2.7L18,154.4c-0.8,3.3-0.7,6.5,0.2,9.6
			C18.5,164.5,18.6,164.9,18.6,165.2z"/>
		<path d="M38.6,196.3c-0.3,8.4-6.6,12-19,10.8c-5.4-0.5-9.7-2-12.9-4.3c-4.4-3.2-6.5-7.4-6.3-12.6c0.3-8.4,6.1-12.1,17.5-10.9
			c3.1,0.3,5.8,0.8,8.1,1.5s4.4,1.8,6.2,3.2C36.7,187.2,38.8,191.3,38.6,196.3z M35,193.6c0.1-3.4-0.8-5.8-2.8-7.2
			c-1.1-0.8-2.6-1.5-4.7-2.1c-2-0.7-4.4-1.1-7.1-1.4c-10.7-1.1-16.1,2.3-16.4,10c-0.1,3.5,0.8,6,2.7,7.4c1,0.7,2.3,1.3,4.2,1.9
			c1.8,0.6,3.9,1,6.2,1.2C28.8,204.6,34.7,201.3,35,193.6z"/>
		<path d="M0.4,211c0-0.4,0.2-0.5,0.6-0.5l34.6,2.9c0.4,0,0.8,0.2,1.3,0.6s0.9,0.8,1.2,1.2s0.5,0.8,0.5,1c0.2,0.6,0,0.8-0.5,0.8
			l-34-2.9V231c0,0.5-0.3,0.6-0.9,0.4c-0.8-0.3-1.5-0.7-2-1.5c-0.5-0.7-0.8-1.3-0.8-1.6L0.4,211L0.4,211z"/>
		<path d="M38.6,261.7c0,0.3-0.2,0.5-0.5,0.5c-0.4,0-0.8-0.2-1.3-0.6s-1-0.8-1.3-1.3c-0.4-0.5-0.6-0.9-0.6-1.3v-16.2l-13.4-1.2
			c0,5.4,0,10.9,0,16.4c0,0.5-0.3,0.6-0.9,0.4c-0.8-0.3-1.5-0.7-2-1.5c-0.5-0.7-0.8-1.3-0.8-1.6c0-4.7,0-9.3,0-14L4,240.1
			c0,6.1,0,12.3,0,18.5c0,0.5-0.3,0.6-0.9,0.4c-0.8-0.3-1.5-0.7-2-1.5c-0.5-0.7-0.8-1.3-0.8-1.6V237c0-0.2,0-0.4,0.1-0.5
			s0.3-0.2,0.6-0.1l34.5,2.9c0.4,0,0.8,0.2,1.3,0.6c0.9,0.7,1.5,1.4,1.7,2.2c0,0.2,0,0.3,0,0.3c0,0.1,0,0.1,0,0.2L38.6,261.7
			L38.6,261.7z"/>
		<path d="M38.6,292.3c-0.3,8.4-6.6,12-19,10.8c-5.4-0.5-9.7-2-12.9-4.3c-4.4-3.2-6.5-7.4-6.3-12.6c0.3-8.4,6.1-12.1,17.5-10.9
			c3.1,0.3,5.8,0.8,8.1,1.5s4.4,1.8,6.2,3.2C36.7,283.1,38.8,287.2,38.6,292.3z M35,289.6c0.1-3.4-0.8-5.8-2.8-7.2
			c-1.1-0.8-2.6-1.5-4.7-2.1c-2-0.7-4.4-1.1-7.1-1.4c-10.7-1.1-16.1,2.3-16.4,10c-0.1,3.5,0.8,6,2.7,7.4c1,0.7,2.3,1.3,4.2,1.9
			c1.8,0.6,3.9,1,6.2,1.2C28.8,300.5,34.7,297.2,35,289.6z"/>
		<path d="M35.6,309.4c0.4,0,0.9,0.3,1.6,0.9c0.7,0.5,1.2,1.2,1.4,2c0,0.2,0,0.3,0,0.3c0,0.1,0,0.1,0,0.2v18.9
			c0,0.5-0.3,0.6-0.9,0.4c-0.8-0.3-1.5-0.7-2-1.5c-0.5-0.7-0.8-1.3-0.8-1.6v-16.2l-13.4-1.2c0,5.4,0,10.9,0,16.4
			c0,0.5-0.3,0.6-0.9,0.4c-0.8-0.3-1.5-0.7-2-1.5c-0.5-0.7-0.8-1.3-0.8-1.6c0-4.7,0-9.3,0-14l-14.3-1.2c-0.7,0-1.4-0.4-2.3-1.4
			c-0.3-0.4-0.6-0.7-0.7-1.2c-0.2-0.4-0.2-0.7,0-0.9s0.3-0.2,0.6-0.2L35.6,309.4z"/>
		<path d="M35.9,343.4c0.3,0.1,0.6,0.3,1.1,0.6c0.4,0.3,0.8,0.7,1.2,1.2s0.5,0.9,0.5,1.3v21.7c0,0.5-0.3,0.6-0.9,0.4
			c-0.8-0.3-1.5-0.7-2-1.5c-0.5-0.7-0.8-1.3-0.8-1.6v-7.4l-31.5-2.7c-0.4,0-0.8-0.2-1.3-0.6S1.3,354,1,353.6s-0.5-0.8-0.5-1
			c-0.2-0.6,0-0.8,0.5-0.8l34,2.9v-10.8C35,343.3,35.3,343.2,35.9,343.4z"/>
		<path d="M36.9,374c0.5,0.4,0.9,0.8,1.2,1.2c0.3,0.4,0.5,0.8,0.5,1c0.2,0.6,0,0.8-0.5,0.8l-34.6-2.9c-0.4,0-0.8-0.2-1.3-0.6
			s-0.9-0.8-1.2-1.2c-0.3-0.4-0.5-0.8-0.5-1c-0.2-0.6,0-0.8,0.5-0.8l34.6,2.9C35.9,373.5,36.4,373.7,36.9,374z"/>
		<path d="M2.2,411.2c-0.5-0.4-0.9-0.8-1.2-1.2c-0.3-0.4-0.5-0.8-0.5-1c-0.2-0.6,0-0.8,0.5-0.8l29.6,2.5L9.7,398.8
			c-1-0.7-1.7-1.3-2-1.8c-0.4-0.5-0.5-0.8-0.5-1.1c0-0.2,0.2-0.4,0.6-0.5l20.9-8.4l-25.2-2.6c-0.4,0-0.8-0.2-1.3-0.6
			S1.3,383,1,382.6s-0.4-0.8-0.5-1c-0.1-0.6,0.1-0.8,0.6-0.8l34.6,3.6c0.4,0,0.8,0.4,1.2,1s0.8,1.2,1.1,1.8l0.4,0.9l-25.2,10.2
			l23.3,13.2c1.3,0.8,1.9,1.6,1.9,2.6c0,0.2-0.1,0.5-0.2,0.7l-34.6-3C3.1,411.8,2.7,411.6,2.2,411.2z"/>
		<path d="M38.6,442.1c0,0.3-0.2,0.5-0.5,0.5c-0.4,0-0.8-0.2-1.3-0.6s-1-0.8-1.3-1.3c-0.4-0.5-0.6-0.9-0.6-1.3v-16.2L21.5,422
			c0,5.4,0,10.9,0,16.4c0,0.5-0.3,0.6-0.9,0.4c-0.8-0.3-1.5-0.7-2-1.5c-0.5-0.7-0.8-1.3-0.8-1.6c0-4.7,0-9.3,0-14L4,420.5
			c0,6.1,0,12.3,0,18.5c0,0.5-0.3,0.6-0.9,0.4c-0.8-0.3-1.5-0.7-2-1.5c-0.5-0.7-0.8-1.3-0.8-1.6v-18.9c0-0.2,0-0.4,0.1-0.5
			s0.3-0.2,0.6-0.1l34.5,2.9c0.4,0,0.8,0.2,1.3,0.6c0.9,0.7,1.5,1.4,1.7,2.2c0,0.2,0,0.3,0,0.3c0,0.1,0,0.1,0,0.2L38.6,442.1
			L38.6,442.1z"/>
	</g>
</g>
</svg>
