<?xml version="1.0" encoding="utf-8"?>
<!-- Generator: Adobe Illustrator 19.2.0, SVG Export Plug-In . SVG Version: 6.00 Build 0)  -->
<svg version="1.1" id="Laag_1" xmlns="http://www.w3.org/2000/svg" xmlns:xlink="http://www.w3.org/1999/xlink" x="0px" y="0px"
	 viewBox="0 0 100.6 630" style="enable-background:new 0 0 100.6 630;" xml:space="preserve">
<style type="text/css">
	.st0{fill:#FFFFFF;}
	.st1{fill:#1D1D1B;}
</style>
<title>chap1</title>
<g>
	<g>
		
			<rect x="-263.5" y="262.1" transform="matrix(4.489724e-011 1 -1 4.489724e-011 363.8695 260.899)" class="st0" width="630" height="100.6"/>
	</g>
	<g>
		<path class="st1" d="M88.5,27.6c-0.5-0.4-0.9-0.8-1.2-1.2c-0.3-0.4-0.4-0.8-0.5-1c-0.2-0.6,0-0.8,0.5-0.8c1.3,0.1,2.7-0.1,4-0.6
			c1.3-0.6,2.4-1.4,3.2-2.5c0.9-1.1,1.4-2.4,1.7-3.7c0.3-1.4,0.2-2.7-0.1-4c-1.1-4-5-6.8-11.8-8.4c-5.1-1.2-9.3-0.9-12.7,1
			c-1.9,1-3.4,2.4-4.5,4.3c-1.1,1.8-1.6,3.8-1.5,5.8c0.1,2.1,0.5,3.7,1.4,5c0.9,1.3,2.1,2.2,3.6,2.7c0.4,0.2,0.9,0.5,1.4,1
			c0.5,0.5,0.8,0.9,1,1.4c0.2,0.5,0.2,0.8,0,1c-0.2,0.2-0.5,0.2-0.9,0.1c-1.3-0.5-2.7-1.3-4-2.4c-1.3-1-2.5-2.2-3.4-3.6
			c-1.7-2.4-2.6-4.9-2.7-7.5c-0.1-2.5,0.5-4.8,1.6-6.8c1.2-2,2.7-3.5,4.8-4.6c3.7-2,8.3-2.3,13.9-1c6.4,1.5,11.2,4.3,14.6,8.5
			c2.7,3.4,3.7,6.8,3.1,10.2c-0.3,1.6-0.9,3-1.9,4.2c-1,1.2-2.2,2.1-3.6,2.8c-1.4,0.6-3,0.9-4.6,0.7C89.5,28.2,89,28,88.5,27.6z"/>
		<path class="st1" d="M98.4,35.9c0.5,0.4,0.9,0.8,1.2,1.2c0.3,0.4,0.5,0.8,0.5,1c0.2,0.6,0,0.8-0.5,0.8L83,37.5v15.3L97.1,54
			c0.4,0,0.8,0.2,1.3,0.6c0.5,0.4,0.9,0.8,1.2,1.2c0.3,0.4,0.5,0.8,0.5,1c0.2,0.6,0,0.8-0.5,0.8l-34.6-2.9c-0.4,0-0.8-0.2-1.3-0.6
			c-0.5-0.4-0.9-0.8-1.2-1.2c-0.3-0.4-0.5-0.8-0.5-1c-0.2-0.6,0-0.8,0.5-0.8l16.8,1.4V37.2L65.1,36c-0.4,0-0.8-0.2-1.3-0.6
			c-0.5-0.4-0.9-0.8-1.2-1.2c-0.3-0.4-0.5-0.8-0.5-1c-0.2-0.6,0-0.8,0.5-0.8l34.6,2.9C97.5,35.3,97.9,35.5,98.4,35.9z"/>
		<path class="st1" d="M63.1,62.2c-0.5-0.5-0.8-0.9-1-1.4c-0.2-0.4-0.2-0.8,0-0.9c0.2-0.2,0.5-0.2,1,0.1l34.6,15.8l1.7,1.4
			c1.1,1.2,1.3,1.9,0.5,2l-34.6,7.2c-0.3,0.1-0.7-0.1-1.2-0.4c-0.5-0.3-1-0.7-1.4-1.2c-0.4-0.5-0.6-0.9-0.7-1.3
			c-0.1-0.4,0-0.6,0.3-0.7l11-2.3c0,0,0-0.1,0-0.1V67.3l-8.8-4.1C64,63,63.5,62.7,63.1,62.2z M77,79.8l16.2-3.4L77,69V79.8z"/>
		<path class="st1" d="M97.1,94.3c0.4,0,0.9,0.3,1.6,0.9c0.9,0.7,1.4,1.4,1.4,2.2c1.4,3.7,1.4,7.3,0,10.8c-1,2.4-2.5,4.4-4.6,5.8
			c-2.1,1.4-4.5,2-7.1,1.6c-1.5-0.2-3-0.7-4.5-1.6c-1.6-0.9-3-2.1-4.2-3.6c-2-2.4-3.3-5.2-4-8.4c-0.4-2-0.5-4-0.2-6.1L65.1,95
			c-0.7,0-1.4-0.4-2.3-1.4c-0.3-0.4-0.6-0.7-0.7-1.2c-0.2-0.4-0.2-0.7,0-0.9s0.3-0.2,0.6-0.2L97.1,94.3z M97.3,97.8l-17.8-1.5
			c-0.6,2.7-0.7,5.3-0.3,7.8c0.5,2.4,1.2,4.3,2.3,5.6c1.1,1.3,2.7,2.1,4.7,2.4c2,0.3,4-0.2,6-1.5c1.9-1.3,3.3-2.9,4.1-4.9
			c0.8-2,1.2-3.6,1.2-4.8S97.4,98.5,97.3,97.8z"/>
		<path class="st1" d="M97.5,117.6c0.3,0.1,0.6,0.3,1.1,0.6c0.4,0.3,0.8,0.7,1.2,1.2c0.4,0.5,0.5,0.9,0.5,1.3v21.7
			c0,0.5-0.3,0.6-0.9,0.4c-0.8-0.3-1.5-0.7-2-1.5c-0.5-0.7-0.8-1.3-0.8-1.6v-7.4l-31.5-2.7c-0.4,0-0.8-0.2-1.3-0.6
			c-0.5-0.4-0.9-0.8-1.2-1.2c-0.3-0.4-0.5-0.8-0.5-1c-0.2-0.6,0-0.8,0.5-0.8l34,2.9V118C96.5,117.6,96.8,117.5,97.5,117.6z"/>
		<path class="st1" d="M100.2,169.2c0,0.3-0.2,0.5-0.5,0.5c-0.4,0-0.8-0.2-1.3-0.6c-0.5-0.4-1-0.8-1.3-1.3c-0.4-0.5-0.6-0.9-0.6-1.3
			v-16.2l-13.4-1.2c0,5.4,0,10.9,0,16.4c0,0.5-0.3,0.6-0.9,0.4c-0.8-0.3-1.5-0.7-2-1.5c-0.5-0.7-0.8-1.3-0.8-1.6c0-4.7,0-9.3,0-14
			l-13.8-1.2c0,6.1,0,12.3,0,18.5c0,0.5-0.3,0.6-0.9,0.4c-0.8-0.3-1.5-0.7-2-1.5c-0.5-0.7-0.8-1.3-0.8-1.6v-18.9
			c0-0.2,0-0.4,0.1-0.5c0.1-0.1,0.3-0.2,0.6-0.1l34.5,2.9c0.4,0,0.8,0.2,1.3,0.6c0.9,0.7,1.5,1.4,1.7,2.2c0,0.2,0,0.3,0,0.3
			c0,0.1,0,0.1,0,0.2V169.2z"/>
		<path class="st1" d="M76.2,184.3c-0.6-1.9-0.9-3.5-0.9-4.9s0-2.5,0.1-3.2l-10.4-0.9c-0.4,0-0.8-0.2-1.3-0.6
			c-0.5-0.4-0.9-0.8-1.2-1.2c-0.3-0.4-0.5-0.8-0.5-1c-0.2-0.6,0-0.8,0.5-0.8l34.6,2.9c0.4,0,0.8,0.2,1.3,0.6
			c1.1,0.8,1.6,1.6,1.7,2.4c0.8,1.9,1.2,3.8,1.2,5.8c0,2-0.4,3.9-1.2,5.6c-1.1,2.3-2.5,4-4.4,5.2c-1.9,1.1-3.8,1.7-5.8,1.7
			c-3.8,0-7.2-1.8-10.3-5.3c-0.6-0.7-1.1-1.4-1.6-2.2l-12.7,5.4c-0.3,0.1-0.6,0-1.1-0.3s-1-0.6-1.4-1.1s-0.7-0.9-0.8-1.4
			c-0.1-0.4-0.1-0.7,0.2-0.8L76.2,184.3z M80.1,187.2c1.3,3.4,3.7,5,7.2,5c1.8,0,3.5-0.5,5.2-1.6c1.7-1,3-2.5,3.9-4.4
			c0.8-1.9,1.3-3.8,1.3-5.6c0-0.9-0.1-1.8-0.3-2.7l-17.9-1.5c-0.8,3.3-0.7,6.5,0.2,9.6C80,186.5,80.2,186.9,80.1,187.2z"/>
		<path class="st1" d="M64.5,210l15.4,15.8c6.5,5.6,11,7.4,13.6,5.5c1.7-1.2,2.7-3.8,3-7.7c0.2-2.4-0.4-4.1-1.8-5.1
			c-1.4-1-3.3-1.9-5.8-2.6c-0.4-0.1-0.9-0.4-1.4-0.8c-0.5-0.4-0.9-0.9-1.2-1.4c-0.3-0.5-0.3-0.9-0.2-1.1c0.1-0.3,0.4-0.3,0.8-0.2
			c3.2,0.9,5.8,2.2,7.8,3.7s3.5,3.2,4.3,5c0.8,1.8,1.2,3.6,1,5.5c-0.7,8.4-4.6,11-11.7,7.6c-2.8-1.3-5.9-3.5-9.5-6.6
			c-0.1-0.1-0.2-0.2-0.3-0.3l-13-13.3c0,3,0,9.3,0,19c0,0.5-0.3,0.6-0.9,0.4c-0.8-0.3-1.5-0.7-2-1.5c-0.5-0.7-0.8-1.3-0.8-1.6
			c0-13.1,0-20.1,0-20.8c0,0,0.6,0.1,1.9,0.5L64.5,210z"/>
		<path class="st1" d="M97.5,247.8c0.3,0.1,0.6,0.3,1.1,0.6c0.4,0.3,0.8,0.7,1.2,1.2c0.4,0.5,0.5,0.9,0.5,1.3v21.7
			c0,0.5-0.3,0.6-0.9,0.4c-0.8-0.3-1.5-0.7-2-1.5c-0.5-0.7-0.8-1.3-0.8-1.6v-7.4l-31.5-2.7c-0.4,0-0.8-0.2-1.3-0.6
			c-0.5-0.4-0.9-0.8-1.2-1.2c-0.3-0.4-0.5-0.8-0.5-1c-0.2-0.6,0-0.8,0.5-0.8l34,2.9v-10.8C96.5,247.7,96.8,247.6,97.5,247.8z"/>
		<path class="st1" d="M98.4,277.6c0.5,0.4,0.9,0.8,1.2,1.2c0.3,0.4,0.5,0.8,0.5,1c0.2,0.6,0,0.8-0.5,0.8L83,279.2v15.3l14.1,1.2
			c0.4,0,0.8,0.2,1.3,0.6c0.5,0.4,0.9,0.8,1.2,1.2c0.3,0.4,0.5,0.8,0.5,1c0.2,0.6,0,0.8-0.5,0.8l-34.6-2.9c-0.4,0-0.8-0.2-1.3-0.6
			c-0.5-0.4-0.9-0.8-1.2-1.2c-0.3-0.4-0.5-0.8-0.5-1c-0.2-0.6,0-0.8,0.5-0.8l16.8,1.4v-15.3l-14.3-1.2c-0.4,0-0.8-0.2-1.3-0.6
			c-0.5-0.4-0.9-0.8-1.2-1.2c-0.3-0.4-0.5-0.8-0.5-1c-0.2-0.6,0-0.8,0.5-0.8l34.6,2.9C97.5,277,97.9,277.2,98.4,277.6z"/>
		<path class="st1" d="M100.2,327.1c0,0.3-0.2,0.5-0.5,0.5c-0.4,0-0.8-0.2-1.3-0.6c-0.5-0.4-1-0.8-1.3-1.3c-0.4-0.5-0.6-0.9-0.6-1.3
			v-16.2L83.1,307c0,5.4,0,10.9,0,16.4c0,0.5-0.3,0.6-0.9,0.4c-0.8-0.3-1.5-0.7-2-1.5c-0.5-0.7-0.8-1.3-0.8-1.6c0-4.7,0-9.3,0-14
			l-13.8-1.2c0,6.1,0,12.3,0,18.5c0,0.5-0.3,0.6-0.9,0.4c-0.8-0.3-1.5-0.7-2-1.5c-0.5-0.7-0.8-1.3-0.8-1.6v-18.9
			c0-0.2,0-0.4,0.1-0.5c0.1-0.1,0.3-0.2,0.6-0.1l34.5,2.9c0.4,0,0.8,0.2,1.3,0.6c0.9,0.7,1.5,1.4,1.7,2.2c0,0.2,0,0.3,0,0.3
			c0,0.1,0,0.1,0,0.2V327.1z"/>
		<path class="st1" d="M98.1,340.9c0.5,0.3,1,0.7,1.4,1.2c0.4,0.5,0.7,0.9,0.7,1.3c0.1,0.4,0,0.6-0.3,0.7l-30.7,7.9l28.5,11.7
			c0.4,0.2,0.9,0.5,1.4,1c0.5,0.5,0.8,0.9,1,1.4c0.2,0.5,0.2,0.8,0,1c-0.2,0.2-0.5,0.2-0.9,0l-34.6-14.2c-0.8-0.3-1.4-0.8-1.8-1.3
			c-0.4-0.6-0.6-1.1-0.6-1.5l0-0.7l34.6-8.9C97.2,340.4,97.6,340.6,98.1,340.9z"/>
		<path class="st1" d="M98.4,373.3c0.5,0.4,0.9,0.8,1.2,1.2c0.3,0.4,0.5,0.8,0.5,1c0.2,0.6,0,0.8-0.5,0.8l-34.6-2.9
			c-0.4,0-0.8-0.2-1.3-0.6c-0.5-0.4-0.9-0.8-1.2-1.2c-0.3-0.4-0.5-0.8-0.5-1c-0.2-0.6,0-0.8,0.5-0.8l34.6,2.9
			C97.5,372.7,97.9,372.9,98.4,373.3z"/>
		<path class="st1" d="M91.1,407.8c-0.5-0.3-1-0.6-1.4-1.1c-0.4-0.5-0.7-0.9-0.9-1.4c-0.1-0.4-0.1-0.7,0.1-0.9
			c2.1-1.1,3.8-2.6,5.2-4.5c1.4-1.9,2.2-4,2.4-6.1c0.1-1.3,0-2.5-0.3-3.5c-0.3-1-0.7-1.7-1.1-2.1c-0.4-0.4-1.2-0.7-2.2-0.9
			c-1.1-0.2-2.2,0-3.5,0.5c-1.3,0.5-2.3,1.4-3.2,2.6c-0.8,1.2-1.6,2.6-2.2,4.4c0,0.1-0.2,0.7-0.6,1.9c-0.4,1.2-0.7,2-1,2.6
			c-1.8,4.1-4.4,6.4-7.8,7c-2.3,0.4-4.6-0.2-6.8-1.7c-1.3-0.8-2.4-1.9-3.3-3.1c-2.3-3-3.2-6.4-2.5-9.9c0.4-2.4,1.4-4.6,3-6.6
			c1.6-2,3.4-3.5,5.7-4.6c0.3-0.1,0.6-0.1,1.1,0.2c0.5,0.3,0.9,0.6,1.4,1.1s0.7,0.9,0.9,1.4s0.1,0.7-0.2,0.8
			c-2.1,1.1-3.9,2.5-5.4,4.4c-1.5,1.9-2.4,3.8-2.7,5.9c-0.4,2-0.3,3.7,0.2,5c0.5,1.3,1,2.2,1.7,2.6c1.2,0.8,2.6,1,4.3,0.8
			c3-0.4,5.4-2.6,7.1-6.4c0.3-0.6,0.6-1.4,0.9-2.6c1-3,2-5.1,3-6.4c1-1.3,2.2-2.3,3.6-2.9c1.5-0.6,3.1-0.8,4.8-0.5
			c1.8,0.3,3.5,1.3,5.1,2.9c2.9,2.8,4.2,6.2,3.8,10c-0.3,2.4-1.1,4.6-2.6,6.6c-1.5,2-3.3,3.6-5.4,4.8
			C91.9,408.1,91.6,408,91.1,407.8z"/>
		<path class="st1" d="M98.4,415.1c0.5,0.4,0.9,0.8,1.2,1.2c0.3,0.4,0.5,0.8,0.5,1c0.2,0.6,0,0.8-0.5,0.8l-34.6-2.9
			c-0.4,0-0.8-0.2-1.3-0.6c-0.5-0.4-0.9-0.8-1.2-1.2c-0.3-0.4-0.5-0.8-0.5-1c-0.2-0.6,0-0.8,0.5-0.8l34.6,2.9
			C97.5,414.5,97.9,414.7,98.4,415.1z"/>
		<path class="st1" d="M81.9,442.9c-0.4,0.7-1.2,1.5-2.3,2.5c-1.1,0.9-2.4,1.6-4,1.9c-1.6,0.3-3.1,0.2-4.6-0.5
			c-1.5-0.6-2.8-1.5-4-2.6c-2.7-2.5-4.4-6-5-10.3c-0.4-3-0.4-6.6,0-10.6c0-0.3,0.2-0.5,0.6-0.4l34.6,3c1.4,0.4,2.3,1.1,2.8,2
			c0.2,0.4,0.3,0.8,0.2,1.2c-0.3,3-0.7,5.8-1.2,8.4c-0.5,2.5-1.3,4.5-2.3,5.8c-1.9,2.6-4.1,3.9-6.7,3.9
			C87.2,447.2,84.5,445.8,81.9,442.9z M68,442.6c0.2,0.2,0.8,0.5,1.6,0.9c0.8,0.3,1.9,0.4,3.2,0.1c1.3-0.2,2.6-0.9,3.9-2.1
			c1.3-1.1,2-2,2.1-2.7c0.1-1,0.1-2.3,0.1-3.8s0.1-4,0.2-7.3l-13.5-1.2c-0.6,6.8-0.1,11.7,1.5,14.8C67.5,442,67.8,442.4,68,442.6z
			 M83.1,428.1l-0.4,8.3c-0.1,1.2-0.1,2.3-0.2,3.2c0.1,0.9,0.5,1.8,1.4,2.7c0.9,0.9,1.9,1.3,3.2,1.2c2.4-0.1,4.4-1.1,5.9-3.2
			c1.1-1.5,2-3.7,2.5-6.5c0.3-1.3,0.5-2.9,0.7-4.7L83.1,428.1z"/>
		<path class="st1" d="M62,451.9c0-0.4,0.2-0.5,0.6-0.5l34.6,2.9c0.4,0,0.8,0.2,1.3,0.6c0.5,0.4,0.9,0.8,1.2,1.2
			c0.3,0.4,0.5,0.8,0.5,1c0.2,0.6,0,0.8-0.5,0.8l-34-2.9V472c0,0.5-0.3,0.6-0.9,0.4c-0.8-0.3-1.5-0.7-2-1.5
			c-0.5-0.7-0.8-1.3-0.8-1.6V451.9z"/>
		<path class="st1" d="M100.2,502.6c0,0.3-0.2,0.5-0.5,0.5c-0.4,0-0.8-0.2-1.3-0.6c-0.5-0.4-1-0.8-1.3-1.3c-0.4-0.5-0.6-0.9-0.6-1.3
			v-16.2l-13.4-1.2c0,5.4,0,10.9,0,16.4c0,0.5-0.3,0.6-0.9,0.4c-0.8-0.3-1.5-0.7-2-1.5c-0.5-0.7-0.8-1.3-0.8-1.6c0-4.7,0-9.3,0-14
			l-13.8-1.2c0,6.1,0,12.3,0,18.5c0,0.5-0.3,0.6-0.9,0.4c-0.8-0.3-1.5-0.7-2-1.5c-0.5-0.7-0.8-1.3-0.8-1.6V478c0-0.2,0-0.4,0.1-0.5
			c0.1-0.1,0.3-0.2,0.6-0.1l34.5,2.9c0.4,0,0.8,0.2,1.3,0.6c0.9,0.7,1.5,1.4,1.7,2.2c0,0.2,0,0.3,0,0.3c0,0.1,0,0.1,0,0.2V502.6z"/>
		<path class="st1" d="M62,515.6c0-0.4,0.2-0.5,0.6-0.5l34.6,2.9c0.4,0,0.8,0.2,1.3,0.6c0.5,0.4,0.9,0.8,1.2,1.2
			c0.3,0.4,0.5,0.8,0.5,1c0.2,0.6,0,0.8-0.5,0.8l-34-2.9v16.9c0,0.5-0.3,0.6-0.9,0.4c-0.8-0.3-1.5-0.7-2-1.5
			c-0.5-0.7-0.8-1.3-0.8-1.6V515.6z"/>
		<path class="st1" d="M100.2,559.1c-0.3,8.4-6.6,12-19,10.8c-5.4-0.5-9.7-2-12.9-4.3c-4.4-3.2-6.5-7.4-6.3-12.6
			c0.3-8.4,6.1-12.1,17.5-10.9c3.1,0.3,5.8,0.8,8.1,1.5c2.3,0.7,4.4,1.8,6.2,3.2C98.2,549.9,100.3,554.1,100.2,559.1z M96.5,556.4
			c0.1-3.4-0.8-5.8-2.8-7.2c-1.1-0.8-2.6-1.5-4.7-2.1c-2-0.7-4.4-1.1-7.1-1.4c-10.7-1.1-16.1,2.3-16.4,10c-0.1,3.5,0.8,6,2.7,7.4
			c1,0.7,2.3,1.3,4.2,1.9c1.8,0.6,3.9,1,6.2,1.2C90.3,567.4,96.3,564.1,96.5,556.4z"/>
		<path class="st1" d="M100.2,591.4c-0.3,8.4-6.6,12-19,10.8c-5.4-0.5-9.7-2-12.9-4.3c-4.4-3.2-6.5-7.4-6.3-12.6
			c0.3-8.4,6.1-12.1,17.5-10.9c3.1,0.3,5.8,0.8,8.1,1.5c2.3,0.7,4.4,1.8,6.2,3.2C98.2,582.2,100.3,586.4,100.2,591.4z M96.5,588.7
			c0.1-3.4-0.8-5.8-2.8-7.2c-1.1-0.8-2.6-1.5-4.7-2.1c-2-0.7-4.4-1.1-7.1-1.4c-10.7-1.1-16.1,2.3-16.4,10c-0.1,3.5,0.8,6,2.7,7.4
			c1,0.7,2.3,1.3,4.2,1.9c1.8,0.6,3.9,1,6.2,1.2C90.3,599.7,96.3,596.4,96.5,588.7z"/>
		<path class="st1" d="M97.1,608.6c0.4,0,0.9,0.3,1.6,0.9c0.9,0.7,1.4,1.4,1.4,2.2c1.4,3.7,1.4,7.3,0,10.8c-1,2.4-2.5,4.4-4.6,5.8
			c-2.1,1.4-4.5,2-7.1,1.6c-1.5-0.2-3-0.7-4.5-1.6c-1.6-0.9-3-2.1-4.2-3.6c-2-2.4-3.3-5.2-4-8.4c-0.4-2-0.5-4-0.2-6.1l-10.3-0.9
			c-0.7,0-1.4-0.4-2.3-1.4c-0.3-0.4-0.6-0.7-0.7-1.2c-0.2-0.4-0.2-0.7,0-0.9c0.1-0.1,0.3-0.2,0.6-0.2L97.1,608.6z M97.3,612
			l-17.8-1.5c-0.6,2.7-0.7,5.3-0.3,7.8c0.5,2.4,1.2,4.3,2.3,5.6c1.1,1.3,2.7,2.1,4.7,2.4c2,0.3,4-0.2,6-1.5c1.9-1.3,3.3-2.9,4.1-4.9
			s1.2-3.6,1.2-4.8C97.5,613.8,97.4,612.8,97.3,612z"/>
		<path class="st1" d="M3.5-0.2l15.4,15.8c6.5,5.6,11,7.4,13.6,5.5c1.7-1.2,2.7-3.8,3-7.7c0.2-2.4-0.4-4.1-1.8-5.1
			c-1.4-1-3.3-1.9-5.8-2.6c-0.4-0.1-0.9-0.4-1.4-0.8c-0.5-0.4-0.9-0.9-1.2-1.4c-0.3-0.5-0.3-0.9-0.2-1.1C25.3,2.1,25.6,2,26,2.1
			c3.2,0.9,5.8,2.2,7.8,3.7s3.5,3.2,4.3,5c0.8,1.8,1.2,3.6,1,5.5c-0.7,8.4-4.6,11-11.7,7.6c-2.8-1.3-5.9-3.5-9.5-6.6
			c-0.1-0.1-0.2-0.2-0.3-0.3L4.7,3.7c0,3,0,9.3,0,19c0,0.5-0.3,0.6-0.9,0.4c-0.8-0.3-1.5-0.7-2-1.5C1.2,20.9,1,20.4,1,20
			C1,6.9,1,0,1-0.8c0,0,0.6,0.1,1.9,0.5L3.5-0.2z"/>
		<path class="st1" d="M7.2,29.4c1.4,1.2,1.4,2.4-0.1,3.5c-1.2,0.9-2.5,0.8-3.6-0.2c-1.4-1.2-1.4-2.3,0-3.2
			C4.9,28.5,6.1,28.5,7.2,29.4z"/>
		<path class="st1" d="M30.6,43.2c-0.5-0.5-0.8-0.9-1-1.4c-0.2-0.4-0.2-0.8,0-0.9c0.2-0.2,0.6-0.1,1.3,0.2c0.7,0.3,1.4,0.8,2.3,1.4
			c4,2.9,6,6.9,6,12c0,6.7-3.3,9.1-9.9,7.2c-3.4-0.9-6.1-2.7-8.1-5.2c-1.4,4.1-4.4,5.7-9.2,4.7c-2.1-0.4-4-1.2-5.6-2.4
			C2.7,56.1,0.9,52.6,1,48c0-6,2.6-9.1,7.7-9.5c0.3,0,0.7,0.1,1.2,0.5c0.5,0.4,0.9,0.7,1.2,1.1c0.3,0.4,0.5,0.7,0.6,1
			c0.2,0.6,0.1,1-0.3,1c-4.5,0.3-6.8,3.2-6.9,8.5c0,1.2,0.1,2.1,0.3,3c0.4,1.2,0.9,2.1,1.6,2.6c0.7,0.5,1.8,0.9,3.2,1.2
			c2.9,0.6,5,0.1,6.5-1.6c1.5-1.7,2.2-4.6,2.1-8.7c0-0.1,0-0.2,0-0.2c0,0,0-0.1,0-0.1c0-0.4,0.4-0.6,1-0.3c0.8,0.3,1.5,0.8,2,1.5
			c0.5,0.7,0.7,1.3,0.7,1.6c-0.1,2,0,3.6,0.5,4.8c0.5,1.2,1,2,1.7,2.5c0.7,0.5,1.7,0.9,3,1.3c2.7,0.7,4.8,0.6,6.1-0.4
			c1.4-1,2.1-3,2.1-6c0-2-0.2-3.5-0.7-4.5c-0.5-1.1-1-1.8-1.4-2.1c-0.5-0.3-0.9-0.6-1.4-0.8C31.5,44,31,43.7,30.6,43.2z"/>
		<path class="st1" d="M2.1,77.5c-0.5-0.5-0.8-0.9-1-1.4c-0.2-0.4-0.2-0.8,0-0.9c0.2-0.2,0.5-0.2,1,0.1l34.6,15.8l1.7,1.4
			c1.1,1.2,1.3,1.9,0.5,2l-34.6,7.2c-0.3,0.1-0.7-0.1-1.2-0.4c-0.5-0.3-1-0.7-1.4-1.2c-0.4-0.5-0.6-0.9-0.7-1.3
			c-0.1-0.4,0-0.6,0.3-0.7l11-2.3c0,0,0-0.1,0-0.1V82.7l-8.8-4.1C3,78.3,2.5,78,2.1,77.5z M16,95.1l16.2-3.4L16,84.3V95.1z"/>
		<path class="st1" d="M2.7,109.6c-0.5-0.4-0.9-0.8-1.2-1.2c-0.3-0.4-0.4-0.8-0.5-1c-0.2-0.6,0-0.8,0.5-0.8l34.6,3.4
			c1.5,1.2,2.4,2.1,2.7,2.6c0.3,0.5,0.3,0.9,0.1,1l-28.8,14.2l26,2.3c0.4,0,0.8,0.2,1.3,0.6c0.5,0.4,0.9,0.8,1.2,1.2
			c0.3,0.4,0.4,0.8,0.5,1c0.2,0.6,0,0.8-0.5,0.8l-34.6-3c-0.4,0-0.8-0.4-1.3-1c-0.5-0.6-0.8-1.2-1.1-1.8l-0.4-0.9l28.9-14.3
			l-26.1-2.5C3.7,110.2,3.2,110,2.7,109.6z"/>
		<path class="st1" d="M2.1,137.9c-0.5-0.5-0.8-0.9-1-1.4c-0.2-0.4-0.2-0.8,0-0.9c0.2-0.2,0.5-0.2,1,0.1l34.6,15.8l1.7,1.4
			c1.1,1.2,1.3,1.9,0.5,2l-34.6,7.2c-0.3,0.1-0.7-0.1-1.2-0.4c-0.5-0.3-1-0.7-1.4-1.2c-0.4-0.5-0.6-0.9-0.7-1.3
			c-0.1-0.4,0-0.6,0.3-0.7l11-2.3c0,0,0-0.1,0-0.1V143l-8.8-4.1C3,138.7,2.5,138.3,2.1,137.9z M16,155.5l16.2-3.4L16,144.7V155.5z"
			/>
		<path class="st1" d="M1,167.5c0-0.4,0.2-0.5,0.6-0.5l34.6,2.9c0.4,0,0.8,0.2,1.3,0.6c0.5,0.4,0.9,0.8,1.2,1.2
			c0.3,0.4,0.5,0.8,0.5,1c0.2,0.6,0,0.8-0.5,0.8l-34-2.9v16.9c0,0.5-0.3,0.6-0.9,0.4c-0.8-0.3-1.5-0.7-2-1.5
			c-0.5-0.7-0.8-1.3-0.8-1.6V167.5z"/>
		<path class="st1" d="M39.2,211.1c-0.3,8.4-6.6,12-19,10.8c-5.4-0.5-9.7-2-12.9-4.3c-4.4-3.2-6.5-7.4-6.3-12.6
			c0.3-8.4,6.1-12.1,17.5-10.9c3.1,0.3,5.8,0.8,8.1,1.5c2.3,0.7,4.4,1.8,6.2,3.2C37.2,201.9,39.3,206,39.2,211.1z M35.5,208.4
			c0.1-3.4-0.8-5.8-2.8-7.2c-1.1-0.8-2.6-1.5-4.7-2.1c-2-0.7-4.4-1.1-7.1-1.4c-10.7-1.1-16.1,2.3-16.4,10c-0.1,3.5,0.8,6,2.7,7.4
			c1,0.7,2.3,1.3,4.2,1.9c1.8,0.6,3.9,1,6.2,1.2C29.3,219.3,35.3,216,35.5,208.4z"/>
		<path class="st1" d="M5.6,249.2c-3.1-3.1-4.6-6.6-4.7-10.4c0-2.2,0.6-4.3,1.7-6.2s2.7-3.4,4.7-4.5c2.2-1.2,4.8-1.8,7.7-1.8
			c1.9,0,3.9,0.3,6.1,0.8c6.2,1.4,11,4.1,14.3,8c2.4,2.8,3.6,5.8,3.6,8.8c0,2.1-0.5,4-1.6,5.5c-2,2.8-4.6,4.1-7.7,4.1
			c-0.3,0-0.6,0-1,0c-0.4,0-0.8-0.2-1.3-0.6c-0.5-0.4-0.9-0.8-1.2-1.2c-0.3-0.4-0.4-0.8-0.5-1c-0.1-0.3,0-0.5,0-0.6
			c0.1-0.1,0.3-0.2,0.5-0.2c0.2,0,0.5,0,0.7,0c1.2,0,2.4-0.3,3.6-0.8c1.2-0.6,2.3-1.4,3.1-2.7c1.1-1.5,1.6-3.2,1.6-5.1
			c0-2.2-0.6-4-1.9-5.5c-0.6-0.7-1.4-1.4-2.5-2.1c-2.1-1.3-4.4-2.3-6.9-2.9c-2.5-0.6-4.7-0.9-6.4-0.9c-2.7,0-5,0.5-7,1.6
			c-4.1,2.1-6.1,5.4-6.1,9.9c0,2.2,0.6,4,1.7,5.6c0.8,1.1,1.9,1.9,3.3,2.4c0.1,0,0.2,0.1,0.3,0.2l7.2,0.7l0.1-11.4
			c0-0.5,0.3-0.6,0.9-0.4c0.8,0.3,1.5,0.7,2,1.5c0.5,0.7,0.8,1.3,0.8,1.6l-0.1,11.9c0,0.4-0.2,0.5-0.6,0.5l-16.2-1.5
			c-0.4,0-0.8-0.2-1.3-0.6c-0.5-0.4-0.9-0.8-1.2-1.2c-0.3-0.4-0.4-0.8-0.5-1c-0.2-0.6,0-0.8,0.5-0.8L5.6,249.2z"/>
		<path class="st1" d="M37.5,280.5c0.5,0.4,0.9,0.8,1.2,1.2c0.3,0.4,0.4,0.8,0.5,1c0.2,0.6,0,0.8-0.5,0.8l-27.2-2.4
			c-0.1,0-0.2,0-0.3,0c-1.6-0.5-3.1-1.3-4.5-2.3c-2.3-1.7-3.9-3.7-4.7-5.9s-1.2-4.7-1-7.4c0.4-6.6,3.8-9.4,10.2-8.6l24.9,2
			c0.4,0,0.8,0.2,1.3,0.6c0.5,0.4,0.9,0.8,1.2,1.2c0.3,0.4,0.5,0.7,0.5,1c0.2,0.6,0,0.8-0.5,0.8l-25-2c-5.7-0.7-8.7,1.8-9,7.7
			c-0.1,2.3,0.1,4.1,0.6,5.5c0.5,1.3,1,2.2,1.6,2.7c0.6,0.4,1.3,0.8,2.3,1.1l27,2.4C36.5,279.9,36.9,280.1,37.5,280.5z"/>
		<path class="st1" d="M39.2,310.8c0,0.3-0.2,0.5-0.5,0.5c-0.4,0-0.8-0.2-1.3-0.6c-0.5-0.4-1-0.8-1.3-1.3c-0.4-0.5-0.6-0.9-0.6-1.3
			V292l-13.4-1.2c0,5.4,0,10.9,0,16.4c0,0.5-0.3,0.6-0.9,0.4c-0.8-0.3-1.5-0.7-2-1.5c-0.5-0.7-0.8-1.3-0.8-1.6c0-4.7,0-9.3,0-14
			l-13.8-1.2c0,6.1,0,12.3,0,18.5c0,0.5-0.3,0.6-0.9,0.4c-0.8-0.3-1.5-0.7-2-1.5C1.2,306,1,305.5,1,305.1v-18.9c0-0.2,0-0.4,0.1-0.5
			c0.1-0.1,0.3-0.2,0.6-0.1l34.5,2.9c0.4,0,0.8,0.2,1.3,0.6c0.9,0.7,1.5,1.4,1.7,2.2c0,0.2,0,0.3,0,0.3c0,0.1,0,0.1,0,0.2V310.8z"/>
		<path class="st1" d="M1,323.8c0-0.4,0.2-0.5,0.6-0.5l34.6,2.9c0.4,0,0.8,0.2,1.3,0.6c0.5,0.4,0.9,0.8,1.2,1.2
			c0.3,0.4,0.5,0.8,0.5,1c0.2,0.6,0,0.8-0.5,0.8l-34-2.9v16.9c0,0.5-0.3,0.6-0.9,0.4c-0.8-0.3-1.5-0.7-2-1.5
			c-0.5-0.7-0.8-1.3-0.8-1.6V323.8z"/>
		<path class="st1" d="M39.2,367.3c-0.3,8.4-6.6,12-19,10.8c-5.4-0.5-9.7-2-12.9-4.3c-4.4-3.2-6.5-7.4-6.3-12.6
			c0.3-8.4,6.1-12.1,17.5-10.9c3.1,0.3,5.8,0.8,8.1,1.5c2.3,0.7,4.4,1.8,6.2,3.2C37.2,358.2,39.3,362.3,39.2,367.3z M35.5,364.6
			c0.1-3.4-0.8-5.8-2.8-7.2c-1.1-0.8-2.6-1.5-4.7-2.1c-2-0.7-4.4-1.1-7.1-1.4c-10.7-1.1-16.1,2.3-16.4,10c-0.1,3.5,0.8,6,2.7,7.4
			c1,0.7,2.3,1.3,4.2,1.9c1.8,0.6,3.9,1,6.2,1.2C29.3,375.6,35.3,372.3,35.5,364.6z"/>
		<path class="st1" d="M39.2,399.6c-0.3,8.4-6.6,12-19,10.8c-5.4-0.5-9.7-2-12.9-4.3c-4.4-3.2-6.5-7.4-6.3-12.6
			c0.3-8.4,6.1-12.1,17.5-10.9c3.1,0.3,5.8,0.8,8.1,1.5c2.3,0.7,4.4,1.8,6.2,3.2C37.2,390.5,39.3,394.6,39.2,399.6z M35.5,397
			c0.1-3.4-0.8-5.8-2.8-7.2c-1.1-0.8-2.6-1.5-4.7-2.1c-2-0.7-4.4-1.1-7.1-1.4c-10.7-1.1-16.1,2.3-16.4,10c-0.1,3.5,0.8,6,2.7,7.4
			c1,0.7,2.3,1.3,4.2,1.9c1.8,0.6,3.9,1,6.2,1.2C29.3,407.9,35.3,404.6,35.5,397z"/>
		<path class="st1" d="M36.1,416.8c0.4,0,0.9,0.3,1.6,0.9c0.9,0.7,1.4,1.4,1.4,2.2c1.4,3.7,1.4,7.3,0,10.8c-1,2.4-2.5,4.4-4.6,5.8
			c-2.1,1.4-4.5,2-7.1,1.6c-1.5-0.2-3-0.7-4.5-1.6c-1.6-0.9-3-2.1-4.2-3.6c-2-2.4-3.3-5.2-4-8.4c-0.4-2-0.5-4-0.2-6.1l-10.3-0.9
			c-0.7,0-1.4-0.4-2.3-1.4c-0.3-0.4-0.6-0.7-0.7-1.2c-0.2-0.4-0.2-0.7,0-0.9c0.1-0.1,0.3-0.2,0.6-0.2L36.1,416.8z M36.3,420.3
			l-17.8-1.5c-0.6,2.7-0.7,5.3-0.3,7.8c0.5,2.4,1.2,4.3,2.3,5.6c1.1,1.3,2.7,2.1,4.7,2.4c2,0.3,4-0.2,6-1.5c1.9-1.3,3.3-2.9,4.1-4.9
			s1.2-3.6,1.2-4.8C36.5,422,36.4,421,36.3,420.3z"/>
		<path class="st1" d="M30.1,468.1c-0.5-0.3-1-0.6-1.4-1.1c-0.4-0.5-0.7-0.9-0.9-1.4c-0.1-0.4-0.1-0.7,0.1-0.9
			c2.1-1.1,3.8-2.6,5.2-4.5c1.4-1.9,2.2-4,2.4-6.1c0.1-1.3,0-2.5-0.3-3.5c-0.3-1-0.7-1.7-1.1-2.1c-0.4-0.4-1.2-0.7-2.2-0.9
			c-1.1-0.2-2.2,0-3.5,0.5c-1.3,0.5-2.3,1.4-3.2,2.6c-0.8,1.2-1.6,2.6-2.2,4.4c0,0.1-0.2,0.7-0.6,1.9c-0.4,1.2-0.7,2-1,2.6
			c-1.8,4.1-4.4,6.4-7.8,7c-2.3,0.4-4.6-0.2-6.8-1.7c-1.3-0.8-2.4-1.9-3.3-3.1c-2.3-3-3.2-6.4-2.5-9.9c0.4-2.4,1.4-4.6,3-6.6
			s3.4-3.5,5.7-4.6c0.3-0.1,0.6-0.1,1.1,0.2c0.5,0.3,0.9,0.6,1.4,1.1c0.4,0.5,0.7,0.9,0.9,1.4s0.1,0.7-0.2,0.8
			c-2.1,1.1-3.9,2.5-5.4,4.4c-1.5,1.9-2.4,3.8-2.7,5.9c-0.4,2-0.3,3.7,0.2,5c0.5,1.3,1,2.2,1.7,2.6c1.2,0.8,2.6,1,4.3,0.8
			c3-0.4,5.4-2.6,7.1-6.4c0.3-0.6,0.6-1.4,0.9-2.6c1-3,2-5.1,3-6.4s2.2-2.3,3.6-2.9c1.5-0.6,3.1-0.8,4.8-0.5
			c1.8,0.3,3.5,1.3,5.1,2.9c2.9,2.8,4.2,6.2,3.8,10c-0.3,2.4-1.1,4.6-2.6,6.6c-1.5,2-3.3,3.6-5.4,4.8
			C30.9,468.5,30.6,468.4,30.1,468.1z"/>
	</g>
</g>
</svg>
