<?xml version="1.0" encoding="utf-8"?>
<!-- Generator: Adobe Illustrator 19.2.0, SVG Export Plug-In . SVG Version: 6.00 Build 0)  -->
<svg version="1.1" id="Laag_1" xmlns="http://www.w3.org/2000/svg" xmlns:xlink="http://www.w3.org/1999/xlink" x="0px" y="0px"
	 viewBox="0 0 100.6 630" style="enable-background:new 0 0 100.6 630;" xml:space="preserve">
<style type="text/css">
	.st0{fill:#FFFFFF;}
	.st1{fill:#1D1D1B;}
</style>
<title>chap1</title>
<g>
	<g>
		
			<rect x="-265.2" y="264.7" transform="matrix(4.489635e-011 1 -1 4.489635e-011 364.7625 265.1875)" class="st0" width="630" height="100.6"/>
	</g>
	<g>
		<path class="st1" d="M87.6,28.2c-0.5-0.4-0.9-0.8-1.2-1.2c-0.3-0.4-0.4-0.8-0.5-1c-0.2-0.6,0-0.8,0.5-0.8c1.3,0.1,2.7-0.1,4-0.6
			c1.3-0.6,2.4-1.4,3.2-2.5s1.4-2.4,1.7-3.7c0.3-1.4,0.2-2.7-0.1-4c-1.1-4-5-6.8-11.8-8.4C78.3,4.8,74,5.1,70.7,7
			c-1.9,1-3.4,2.4-4.5,4.3c-1.1,1.8-1.6,3.8-1.5,5.8c0.1,2.1,0.5,3.7,1.4,5c0.9,1.3,2.1,2.2,3.6,2.7c0.4,0.2,0.9,0.5,1.4,1
			c0.5,0.5,0.8,0.9,1,1.4c0.2,0.5,0.2,0.8,0,1c-0.2,0.2-0.5,0.2-0.9,0.1c-1.3-0.5-2.7-1.3-4-2.4c-1.3-1-2.5-2.2-3.4-3.6
			c-1.7-2.4-2.6-4.9-2.7-7.5c-0.1-2.5,0.5-4.8,1.6-6.8c1.2-2,2.7-3.5,4.8-4.6c3.7-2,8.3-2.3,13.9-1c6.4,1.5,11.2,4.3,14.6,8.5
			c2.7,3.4,3.7,6.8,3.1,10.2c-0.3,1.6-0.9,3-1.9,4.2c-1,1.2-2.2,2.1-3.6,2.8c-1.4,0.6-3,0.9-4.6,0.7C88.5,28.8,88.1,28.6,87.6,28.2z
			"/>
		<path class="st1" d="M99.2,51.1c-0.3,8.4-6.6,12-19,10.8c-5.4-0.5-9.7-2-12.9-4.3c-4.4-3.2-6.5-7.4-6.3-12.6
			c0.3-8.4,6.1-12.1,17.5-10.9c3.1,0.3,5.8,0.8,8.1,1.5c2.3,0.7,4.4,1.8,6.2,3.2C97.2,41.9,99.4,46.1,99.2,51.1z M95.6,48.4
			c0.1-3.4-0.8-5.8-2.8-7.2c-1.1-0.8-2.6-1.5-4.7-2.1c-2-0.7-4.4-1.1-7.1-1.4c-10.7-1.1-16.1,2.3-16.4,10c-0.1,3.5,0.8,6,2.7,7.4
			c1,0.7,2.3,1.3,4.2,1.9c1.8,0.6,3.9,1,6.2,1.2C89.4,59.3,95.3,56.1,95.6,48.4z"/>
		<path class="st1" d="M61,65.8c0-0.4,0.2-0.5,0.6-0.5l34.6,2.9c0.4,0,0.8,0.2,1.3,0.6c0.5,0.4,0.9,0.8,1.2,1.2
			c0.3,0.4,0.5,0.8,0.5,1c0.2,0.6,0,0.8-0.5,0.8l-34-2.9v16.9c0,0.5-0.3,0.6-0.9,0.4c-0.8-0.3-1.5-0.7-2-1.5
			c-0.5-0.7-0.8-1.3-0.8-1.6V65.8z"/>
		<path class="st1" d="M99.2,109.4c-0.3,8.4-6.6,12-19,10.8c-5.4-0.5-9.7-2-12.9-4.3c-4.4-3.2-6.5-7.4-6.3-12.6
			c0.3-8.4,6.1-12.1,17.5-10.9c3.1,0.3,5.8,0.8,8.1,1.5c2.3,0.7,4.4,1.8,6.2,3.2C97.2,100.2,99.4,104.3,99.2,109.4z M95.6,106.7
			c0.1-3.4-0.8-5.8-2.8-7.2c-1.1-0.8-2.6-1.5-4.7-2.1c-2-0.7-4.4-1.1-7.1-1.4c-10.7-1.1-16.1,2.3-16.4,10c-0.1,3.5,0.8,6,2.7,7.4
			c1,0.7,2.3,1.3,4.2,1.9c1.8,0.6,3.9,1,6.2,1.2C89.4,117.6,95.3,114.3,95.6,106.7z"/>
		<path class="st1" d="M96.1,126.5c0.4,0,0.9,0.3,1.6,0.9c0.9,0.7,1.4,1.4,1.4,2.2c1.4,3.7,1.4,7.3,0,10.8c-1,2.4-2.5,4.4-4.6,5.8
			c-2.1,1.4-4.5,2-7.1,1.6c-1.5-0.2-3-0.7-4.5-1.6c-1.6-0.9-3-2.1-4.2-3.6c-2-2.4-3.3-5.2-4-8.4c-0.4-2-0.5-4-0.2-6.1l-10.3-0.9
			c-0.7,0-1.4-0.4-2.3-1.4c-0.3-0.4-0.6-0.7-0.7-1.2c-0.2-0.4-0.2-0.7,0-0.9c0.1-0.1,0.3-0.2,0.6-0.2L96.1,126.5z M96.3,130
			l-17.8-1.5c-0.6,2.7-0.7,5.3-0.3,7.8c0.5,2.4,1.2,4.3,2.3,5.6c1.1,1.3,2.7,2.1,4.7,2.4c2,0.3,4-0.2,6-1.5s3.3-2.9,4.1-4.9
			c0.8-2,1.2-3.6,1.2-4.8S96.5,130.8,96.3,130z"/>
		<path class="st1" d="M97.5,154.4c0.5,0.4,0.9,0.8,1.2,1.2c0.3,0.4,0.5,0.8,0.5,1c0.2,0.6,0,0.8-0.5,0.8L82,156v15.3l14.1,1.2
			c0.4,0,0.8,0.2,1.3,0.6c0.5,0.4,0.9,0.8,1.2,1.2c0.3,0.4,0.5,0.8,0.5,1c0.2,0.6,0,0.8-0.5,0.8l-34.6-2.9c-0.4,0-0.8-0.2-1.3-0.6
			c-0.5-0.4-0.9-0.8-1.2-1.2c-0.3-0.4-0.5-0.8-0.5-1c-0.2-0.6,0-0.8,0.5-0.8l16.8,1.4v-15.3l-14.3-1.2c-0.4,0-0.8-0.2-1.3-0.6
			c-0.5-0.4-0.9-0.8-1.2-1.2c-0.3-0.4-0.5-0.8-0.5-1c-0.2-0.6,0-0.8,0.5-0.8l34.6,2.9C96.5,153.8,97,154,97.5,154.4z"/>
		<path class="st1" d="M99.2,196.7c-0.3,8.4-6.6,12-19,10.8c-5.4-0.5-9.7-2-12.9-4.3c-4.4-3.2-6.5-7.4-6.3-12.6
			c0.3-8.4,6.1-12.1,17.5-10.9c3.1,0.3,5.8,0.8,8.1,1.5c2.3,0.7,4.4,1.8,6.2,3.2C97.2,187.6,99.4,191.7,99.2,196.7z M95.6,194
			c0.1-3.4-0.8-5.8-2.8-7.2c-1.1-0.8-2.6-1.5-4.7-2.1c-2-0.7-4.4-1.1-7.1-1.4c-10.7-1.1-16.1,2.3-16.4,10c-0.1,3.5,0.8,6,2.7,7.4
			c1,0.7,2.3,1.3,4.2,1.9c1.8,0.6,3.9,1,6.2,1.2C89.4,205,95.3,201.7,95.6,194z"/>
		<path class="st1" d="M62.7,213.9c-0.5-0.4-0.9-0.8-1.2-1.2c-0.3-0.4-0.4-0.8-0.5-1c-0.2-0.6,0-0.8,0.5-0.8l34.6,3.4
			c1.5,1.2,2.4,2.1,2.7,2.6c0.3,0.5,0.3,0.9,0.1,1L70.2,232l26,2.3c0.4,0,0.8,0.2,1.3,0.6c0.5,0.4,0.9,0.8,1.2,1.2
			c0.3,0.4,0.4,0.8,0.5,1c0.2,0.6,0,0.8-0.5,0.8l-34.6-3c-0.4,0-0.8-0.4-1.3-1c-0.5-0.6-0.8-1.2-1.1-1.8l-0.4-0.9l28.9-14.3
			l-26.1-2.5C63.7,214.5,63.2,214.3,62.7,213.9z"/>
	</g>
</g>
</svg>
