<?xml version="1.0" encoding="utf-8"?>
<!-- Generator: Adobe Illustrator 19.2.0, SVG Export Plug-In . SVG Version: 6.00 Build 0)  -->
<svg version="1.1" id="Laag_1" xmlns="http://www.w3.org/2000/svg" xmlns:xlink="http://www.w3.org/1999/xlink" x="0px" y="0px"
	 viewBox="0 0 100.6 630" style="enable-background:new 0 0 100.6 630;" xml:space="preserve">
<style type="text/css">
	.st0{fill:#FFFFFF;}
	.st1{fill:#1D1D1B;}
</style>
<title>chap1</title>
<g>
	<g>
		
			<rect x="-264" y="268.1" transform="matrix(4.489724e-011 1 -1 4.489724e-011 369.3858 267.4624)" class="st0" width="630" height="100.6"/>
	</g>
	<g>
		<path class="st1" d="M95.6,7c0.5,0.4,0.9,0.8,1.2,1.2c0.3,0.4,0.5,0.8,0.5,1c0.2,0.6,0,0.8-0.5,0.8L62.3,7.1
			c-0.4,0-0.8-0.2-1.3-0.6S60,5.7,59.8,5.3c-0.3-0.4-0.5-0.8-0.5-1c-0.2-0.6,0-0.8,0.5-0.8l34.6,2.9C94.7,6.4,95.1,6.6,95.6,7z"/>
		<path class="st1" d="M60.9,17.5c-0.5-0.4-0.9-0.8-1.2-1.2c-0.3-0.4-0.4-0.8-0.5-1c-0.2-0.6,0-0.8,0.5-0.8l34.6,3.4
			c1.5,1.2,2.4,2.1,2.7,2.6c0.3,0.5,0.3,0.9,0.1,1L68.3,35.6l26,2.3c0.4,0,0.8,0.2,1.3,0.6c0.5,0.4,0.9,0.8,1.2,1.2
			c0.3,0.4,0.4,0.8,0.5,1c0.2,0.6,0,0.8-0.5,0.8l-34.6-3c-0.4,0-0.8-0.4-1.3-1c-0.5-0.6-0.8-1.2-1.1-1.8l-0.4-0.9l28.9-14.3
			l-26.1-2.5C61.9,18.1,61.4,17.8,60.9,17.5z"/>
		<path class="st1" d="M59.8,43.4l34.6,3.4c1.2,0.2,2.1,0.8,2.7,1.8c0.2,0.4,0.4,0.8,0.4,1.3c0.9,14.5-5.1,21.6-17.8,21.2
			c-4.8-0.2-8.9-1.5-12.2-4c-3.3-2.5-5.6-5.7-6.8-9.5s-1.7-8.4-1.3-13.7C59.2,43.5,59.4,43.4,59.8,43.4z M62.8,47.1
			c-0.3,4.7,0.1,8.5,1.1,11.5c1,3,2.2,5,3.8,6.1c2.2,1.6,5.3,2.5,9.4,2.7c5.6,0.2,9.8-1.2,12.6-4c2.8-2.8,4.2-7.3,4.3-13.2
			L62.8,47.1z"/>
		<path class="st1" d="M97.4,99.7c0,0.3-0.2,0.5-0.5,0.5c-0.4,0-0.8-0.2-1.3-0.6c-0.5-0.4-1-0.8-1.3-1.3c-0.4-0.5-0.6-0.9-0.6-1.3
			V80.9l-13.4-1.2c0,5.4,0,10.9,0,16.4c0,0.5-0.3,0.6-0.9,0.4c-0.8-0.3-1.5-0.7-2-1.5c-0.5-0.7-0.8-1.3-0.8-1.6c0-4.7,0-9.3,0-14
			l-13.8-1.2c0,6.1,0,12.3,0,18.5c0,0.5-0.3,0.6-0.9,0.4c-0.8-0.3-1.5-0.7-2-1.5c-0.5-0.7-0.8-1.3-0.8-1.6V75.2c0-0.2,0-0.4,0.1-0.5
			c0.1-0.1,0.3-0.2,0.6-0.1l34.5,2.9c0.4,0,0.8,0.2,1.3,0.6c0.9,0.7,1.5,1.4,1.7,2.2c0,0.2,0,0.3,0,0.3c0,0.1,0,0.1,0,0.2V99.7z"/>
		<path class="st1" d="M95,104.6c0.5,0.3,1,0.6,1.4,1.1c0.4,0.5,0.7,0.9,0.9,1.4c0.1,0.4,0.1,0.7-0.1,0.9l-15.8,9.2l14.3,11
			c0.5,0.4,0.9,0.8,1.2,1.3c0.3,0.5,0.5,0.9,0.4,1.2c0,0.3-0.1,0.4-0.3,0.5c-0.4,0.1-0.9-0.1-1.6-0.6l-15.9-12.2l-16.9,9.9
			c-0.2,0.1-0.6,0.1-1.1-0.2c-0.5-0.3-1-0.6-1.4-1.1s-0.7-0.9-0.9-1.4c-0.1-0.4-0.1-0.7,0.1-0.9l16.2-9.4l-14.6-11.3
			c-0.5-0.4-0.9-0.8-1.3-1.3c-0.3-0.5-0.5-0.9-0.5-1.2c0-0.3,0.1-0.4,0.3-0.5c0.4-0.1,0.9,0.1,1.6,0.6l16.3,12.5l16.5-9.6
			C94.2,104.3,94.5,104.4,95,104.6z"/>
	</g>
</g>
</svg>
