<svg id="Laag_1" data-name="Laag 1" xmlns="http://www.w3.org/2000/svg" viewBox="0 0 101.69 629.95"><defs><style>.cls-1{fill:#fff;}.cls-2{fill:#1d1d1b;}</style></defs><title>intro</title><rect class="cls-1" x="-114.35" y="311" width="629.95" height="100.55" transform="translate(411.55 114.35) rotate(90)"/><path class="cls-2" d="M249.14,51.09a5.53,5.53,0,0,1,1.18,1.2,3.41,3.41,0,0,1,.53,1q0.24,0.86-.53.82l-34.56-2.93a2.76,2.76,0,0,1-1.3-.62,5.33,5.33,0,0,1-1.2-1.2,3.42,3.42,0,0,1-.53-1q-0.24-.86.53-0.82l34.56,2.93A2.64,2.64,0,0,1,249.14,51.09Z" transform="translate(-150.35 -46.3)"/><path class="cls-2" d="M214.41,61.55a4.91,4.91,0,0,1-1.18-1.2,3.67,3.67,0,0,1-.5-1q-0.24-.86.53-0.82l34.56,3.36a13.09,13.09,0,0,1,2.71,2.62q0.46,0.79.12,1L221.85,79.7l26,2.26a2.89,2.89,0,0,1,1.32.62,4.73,4.73,0,0,1,1.2,1.2,3.64,3.64,0,0,1,.5,1q0.24,0.86-.53.82l-34.56-3a2.14,2.14,0,0,1-1.3-1,8.44,8.44,0,0,1-1.1-1.78L212.92,79l28.94-14.26-26.11-2.54A2.77,2.77,0,0,1,214.41,61.55Z" transform="translate(-150.35 -46.3)"/><path class="cls-2" d="M248.16,86.7a4.46,4.46,0,0,1,1.06.58,4.61,4.61,0,0,1,1.15,1.2,2.45,2.45,0,0,1,.53,1.3v21.74q0,0.72-.91.38a3.79,3.79,0,0,1-2-1.46,3.36,3.36,0,0,1-.77-1.61v-7.44L215.76,98.7a2.76,2.76,0,0,1-1.3-.62,5.33,5.33,0,0,1-1.2-1.2,3.43,3.43,0,0,1-.53-1q-0.24-.86.53-0.82l34,2.88V87.09Q247.24,86.42,248.16,86.7Z" transform="translate(-150.35 -46.3)"/><path class="cls-2" d="M226.94,125.68a17.23,17.23,0,0,1-.86-4.92q0-2.09.1-3.19l-10.42-.86a2.76,2.76,0,0,1-1.3-.62,5.33,5.33,0,0,1-1.2-1.2,3.43,3.43,0,0,1-.53-1q-0.24-.86.53-0.82L247.82,116a3,3,0,0,1,1.34.62,3.81,3.81,0,0,1,1.73,2.4,15.34,15.34,0,0,1,1.15,5.83,13.47,13.47,0,0,1-1.2,5.64,11.4,11.4,0,0,1-4.37,5.16,11,11,0,0,1-5.81,1.7q-5.71,0-10.27-5.33a14.7,14.7,0,0,1-1.58-2.21l-12.72,5.38a1.47,1.47,0,0,1-1.13-.26,5.34,5.34,0,0,1-1.39-1.13,3.68,3.68,0,0,1-.84-1.37q-0.19-.65.19-0.79Zm3.89,3q2,5,7.2,5a10.06,10.06,0,0,0,5.23-1.56,9.58,9.58,0,0,0,3.86-4.39,13.64,13.64,0,0,0,1.27-5.62,12.36,12.36,0,0,0-.29-2.69L230.25,118a17.86,17.86,0,0,0,.19,9.55A1.88,1.88,0,0,1,230.83,128.66Z" transform="translate(-150.35 -46.3)"/><path class="cls-2" d="M250.89,159.76q-0.38,12.58-19,10.75-8.16-.82-12.91-4.27a14.39,14.39,0,0,1-6.34-12.62q0.39-12.62,17.52-10.94a39.57,39.57,0,0,1,8.06,1.51,20.19,20.19,0,0,1,6.24,3.19Q251.13,152.22,250.89,159.76Zm-3.65-2.69q0.14-5.09-2.78-7.25a16.81,16.81,0,0,0-4.66-2.14,33.92,33.92,0,0,0-7.1-1.37q-16-1.58-16.37,10-0.19,5.28,2.74,7.44a14.69,14.69,0,0,0,4.15,1.92,30,30,0,0,0,6.22,1.2Q246.86,168.59,247.24,157.07Z" transform="translate(-150.35 -46.3)"/><path class="cls-2" d="M213.26,173.78l34.56,3.36a3.58,3.58,0,0,1,2.69,1.78,2.93,2.93,0,0,1,.38,1.3q1.3,21.79-17.81,21.22a21,21,0,0,1-12.22-4,18.79,18.79,0,0,1-6.84-9.53,37.88,37.88,0,0,1-1.34-13.68Q212.68,173.73,213.26,173.78Zm3,3.7a31.85,31.85,0,0,0,1.08,11.47q1.46,4.46,3.77,6.14,3.31,2.45,9.36,2.69,8.35,0.24,12.55-4t4.3-13.25Z" transform="translate(-150.35 -46.3)"/><path class="cls-2" d="M249.16,229.5a4.87,4.87,0,0,1,1.18,1.2,3.64,3.64,0,0,1,.5,1q0.24,0.86-.53.82l-27.17-2.45a0.91,0.91,0,0,1-.29,0,15.05,15.05,0,0,1-4.46-2.26,13.13,13.13,0,0,1-4.68-5.93,18.8,18.8,0,0,1-1-7.42q0.58-9.84,10.22-8.59l24.91,2a2.76,2.76,0,0,1,1.3.62,5.6,5.6,0,0,1,1.2,1.18,3,3,0,0,1,.53,1q0.24,0.86-.53.82l-25-2q-8.5-1.1-9,7.73a14,14,0,0,0,.55,5.47,5.9,5.9,0,0,0,1.61,2.66,7.37,7.37,0,0,0,2.3,1.08l27,2.45A2.76,2.76,0,0,1,249.16,229.5Z" transform="translate(-150.35 -46.3)"/><path class="cls-2" d="M239.23,262.19a4.86,4.86,0,0,1-1.18-1.2,3.63,3.63,0,0,1-.5-1q-0.24-.86.53-0.82a8,8,0,0,0,4-.65,8.07,8.07,0,0,0,3.24-2.52,8.81,8.81,0,0,0,1.54-7.68q-1.63-6-11.76-8.35-7.63-1.78-12.72,1a11.2,11.2,0,0,0-4.49,4.27,10.64,10.64,0,0,0-1.51,5.83,9.07,9.07,0,0,0,1.44,5,7.35,7.35,0,0,0,3.55,2.74,4.76,4.76,0,0,1,1.39,1,4.6,4.6,0,0,1,1,1.39,1,1,0,0,1,0,1,0.81,0.81,0,0,1-.94.07,17.45,17.45,0,0,1-7.44-6,13.52,13.52,0,0,1-2.71-7.46,12.35,12.35,0,0,1,1.61-6.77,12,12,0,0,1,4.75-4.58q5.57-3,13.87-1,9.55,2.21,14.59,8.54,4,5,3.07,10.18a9.39,9.39,0,0,1-5.47,7,8.87,8.87,0,0,1-4.56.72A2.76,2.76,0,0,1,239.23,262.19Z" transform="translate(-150.35 -46.3)"/><path class="cls-2" d="M248.16,265.93a4.46,4.46,0,0,1,1.06.58,4.61,4.61,0,0,1,1.15,1.2,2.45,2.45,0,0,1,.53,1.3v21.74q0,0.72-.91.38a3.79,3.79,0,0,1-2-1.46,3.36,3.36,0,0,1-.77-1.61v-7.44l-31.49-2.69a2.76,2.76,0,0,1-1.3-.62,5.33,5.33,0,0,1-1.2-1.2,3.43,3.43,0,0,1-.53-1q-0.24-.86.53-0.82l34,2.88V266.32Q247.24,265.65,248.16,265.93Z" transform="translate(-150.35 -46.3)"/><path class="cls-2" d="M249.14,296.61a5.53,5.53,0,0,1,1.18,1.2,3.41,3.41,0,0,1,.53,1q0.24,0.86-.53.82l-34.56-2.93a2.76,2.76,0,0,1-1.3-.62,5.33,5.33,0,0,1-1.2-1.2,3.42,3.42,0,0,1-.53-1q-0.24-.86.53-0.82L247.82,296A2.64,2.64,0,0,1,249.14,296.61Z" transform="translate(-150.35 -46.3)"/><path class="cls-2" d="M250.89,322.19q-0.38,12.58-19,10.75-8.16-.82-12.91-4.27A14.39,14.39,0,0,1,212.68,316q0.39-12.62,17.52-10.94a39.57,39.57,0,0,1,8.06,1.51,20.19,20.19,0,0,1,6.24,3.19Q251.13,314.65,250.89,322.19Zm-3.65-2.69q0.14-5.09-2.78-7.25a16.81,16.81,0,0,0-4.66-2.14,33.92,33.92,0,0,0-7.1-1.37q-16-1.58-16.37,10-0.19,5.28,2.74,7.44a14.69,14.69,0,0,0,4.15,1.92,30,30,0,0,0,6.22,1.2Q246.86,331,247.24,319.5Z" transform="translate(-150.35 -46.3)"/><path class="cls-2" d="M214.41,339.37a4.91,4.91,0,0,1-1.18-1.2,3.67,3.67,0,0,1-.5-1q-0.24-.86.53-0.82l34.56,3.36a13.09,13.09,0,0,1,2.71,2.62q0.46,0.79.12,1l-28.8,14.21,26,2.26a2.89,2.89,0,0,1,1.32.62,4.73,4.73,0,0,1,1.2,1.2,3.64,3.64,0,0,1,.5,1q0.24,0.86-.53.82l-34.56-3a2.14,2.14,0,0,1-1.3-1,8.44,8.44,0,0,1-1.1-1.78l-0.43-.86,28.94-14.26L215.76,340A2.77,2.77,0,0,1,214.41,339.37Z" transform="translate(-150.35 -46.3)"/></svg>